<svg width="713" height="357" viewBox="0 0 713 357" fill="none" xmlns="http://www.w3.org/2000/svg">
<rect x="0.5" y="0.5" width="89" height="89" stroke="white"/>
<path d="M56.17 62.7C53.93 62.7 52.32 62.07 51.2 60.74C50.08 59.41 49.45 57.38 49.38 54.58C48.54 57.1 47.21 59.13 45.25 60.53C43.29 62 41.05 62.7 38.39 62.7C35.38 62.7 33.07 62.07 31.53 60.67C29.92 59.34 29.15 57.38 29.15 54.79C29.15 52.2 30.27 50.03 32.58 48.35C34.82 46.67 38.67 45.06 43.99 43.52C46.23 42.89 47.63 42.54 48.05 42.4C48.47 42.26 48.82 42.19 49.03 42.05V37.22C49.03 34.42 48.4 32.32 47.21 30.92C45.95 29.52 44.13 28.82 41.68 28.82C40.28 28.82 38.95 29.1 37.76 29.52C36.57 30.01 35.59 30.71 34.75 31.55C35.87 31.83 36.78 32.39 37.34 33.09C37.9 33.86 38.25 34.77 38.25 35.89C38.25 37.22 37.83 38.27 37.13 38.97C36.43 39.74 35.38 40.09 34.05 40.09C32.65 40.09 31.6 39.74 30.9 38.97C30.2 38.27 29.85 37.22 29.85 35.89C29.85 33.37 31.11 31.2 33.7 29.24C36.29 27.28 39.44 26.3 43.15 26.3C47.07 26.3 50.08 27.21 52.04 28.89C54 30.57 54.98 33.16 54.98 36.52V56.19C54.98 57.38 55.19 58.29 55.61 58.92C56.03 59.55 56.66 59.83 57.5 59.83C58.69 59.83 59.6 59.13 60.23 57.73C60.79 56.33 61.14 54.16 61.14 51.36H63.03C63.03 55.42 62.47 58.29 61.42 60.04C60.3 61.86 58.55 62.7 56.17 62.7ZM35.45 53.81C35.45 55.63 35.87 57.03 36.78 57.94C37.69 58.92 39.02 59.34 40.7 59.34C43.36 59.34 45.46 58.29 46.86 56.19C48.26 54.09 49.03 51.01 49.03 46.95V43.94C48.75 44.08 48.26 44.22 47.7 44.36C47.07 44.57 46.02 44.92 44.48 45.41C41.26 46.46 38.95 47.65 37.55 48.91C36.15 50.17 35.45 51.85 35.45 53.81Z" fill="white"/>
<rect x="89.5" y="0.5" width="89" height="89" stroke="white"/>
<path d="M134.44 27C138.92 27 142.77 28.68 145.92 31.97C149.07 35.26 150.68 39.39 150.68 44.36C150.68 49.26 149 53.6 145.64 57.24C142.28 60.88 138.5 62.7 134.23 62.7C129.33 62.7 125.34 60.74 122.19 56.82C119.04 52.9 117.5 47.79 117.5 41.42C117.5 32.6 118.9 25.88 121.84 21.26C124.78 16.64 129.61 13.84 136.33 12.93C137.1 12.86 138.22 12.72 139.76 12.58C141.23 12.44 142.28 12.37 142.98 12.23C144.59 12.02 145.78 11.6 146.48 11.04C147.18 10.48 147.53 9.64 147.53 8.52H149.42C149.42 9.92 149.28 11.18 149 12.23C148.72 13.28 148.37 14.19 147.81 14.89C147.25 15.66 146.48 16.29 145.57 16.78C144.66 17.27 143.54 17.62 142.21 17.9C141.3 18.11 140.04 18.25 138.43 18.39C136.75 18.53 135.84 18.6 135.63 18.6C132.13 18.95 129.47 19.65 127.51 20.63C125.55 21.68 124.01 23.22 122.89 25.18C121.91 26.86 121.14 28.96 120.65 31.34C120.16 33.79 119.95 36.59 119.95 39.74H120.3C120.86 35.82 122.47 32.74 125.06 30.43C127.65 28.19 130.8 27 134.44 27ZM134.23 29.1C130.87 29.1 128.28 30.43 126.6 32.95C124.92 35.54 124.08 39.32 124.08 44.36C124.08 49.47 124.92 53.46 126.74 56.33C128.49 59.2 131.01 60.6 134.23 60.6C137.24 60.6 139.69 59.13 141.58 56.12C143.4 53.11 144.38 49.19 144.38 44.36C144.38 39.53 143.47 35.75 141.72 33.09C139.9 30.43 137.45 29.1 134.23 29.1Z" fill="white"/>
<rect x="178.5" y="0.5" width="89" height="89" stroke="white"/>
<path d="M220.45 62H206.8V59.9H212.4V29.17H206.8V27H220.45C226.05 27 230.04 27.7 232.49 29.1C234.87 30.5 236.13 32.6 236.13 35.54C236.13 37.71 235.36 39.46 233.89 40.86C232.35 42.26 230.32 43.1 227.8 43.45C231.16 43.8 233.82 44.71 235.71 46.18C237.53 47.65 238.51 49.61 238.51 52.13C238.51 55.49 237.04 57.94 234.24 59.55C231.44 61.23 226.82 62 220.45 62ZM229.97 35.96C229.97 33.65 229.2 31.9 227.66 30.78C226.12 29.66 223.74 29.1 220.45 29.1H218.35V42.82H221.22C224.58 42.82 226.89 42.33 228.15 41.35C229.34 40.37 229.97 38.55 229.97 35.96ZM218.35 44.78V59.97H221.22C225.14 59.97 227.94 59.41 229.62 58.15C231.3 56.89 232.21 54.93 232.21 52.13C232.21 49.54 231.37 47.65 229.83 46.53C228.29 45.41 225.42 44.78 221.22 44.78H218.35Z" fill="white"/>
<rect x="267.5" y="0.5" width="89" height="89" stroke="white"/>
<path d="M318.75 59.9V62H298.8V59.9H304.4V29.1H298.8V27H326.8V39.6H324.7V37.78C324.7 34.84 324.07 32.6 322.81 31.2C321.55 29.8 319.66 29.1 317.14 29.1H310.35V59.9H318.75Z" fill="white"/>
<rect x="356.5" y="0.5" width="89" height="89" stroke="white"/>
<path d="M406.27 59.9V29.1H394.58C394.58 32.39 394.44 35.47 394.3 38.27C394.09 41.07 393.81 43.59 393.53 45.76C392.97 49.47 392.27 52.48 391.57 54.72C390.87 57.03 390.03 58.78 389.12 59.9H406.27ZM412.22 29.1V59.9H418.52V72.15H416.42V70.33C416.42 67.53 415.72 65.43 414.39 64.03C412.99 62.7 410.96 62 408.16 62H392.06C389.26 62 387.16 62.7 385.83 64.03C384.43 65.43 383.8 67.53 383.8 70.33V72.15H381.7V59.9H385.76C386.88 58.99 387.93 57.38 388.77 55.07C389.61 52.83 390.31 49.82 390.87 46.04C391.15 44.36 391.36 42.19 391.5 39.6C391.64 37.08 391.78 33.58 391.92 29.1H386.39V27H418.52V29.1H412.22Z" fill="white"/>
<rect x="445.5" y="0.5" width="89" height="89" stroke="white"/>
<path d="M491.32 62.7C486.63 62.7 482.85 61.09 479.91 57.73C476.97 54.37 475.5 49.96 475.5 44.36C475.5 39.04 476.9 34.7 479.77 31.34C482.64 27.98 486.28 26.3 490.69 26.3C494.96 26.3 498.32 27.77 500.84 30.64C503.29 33.51 504.55 37.29 504.55 41.98V43.59H481.8V44.36C481.8 50.17 482.5 54.3 484.04 56.75C485.51 59.27 487.96 60.46 491.39 60.46C494.12 60.46 496.36 59.76 498.11 58.36C499.79 56.96 501.19 54.65 502.17 51.43L504.13 51.99C503.29 55.35 501.68 57.94 499.44 59.83C497.2 61.79 494.47 62.7 491.32 62.7ZM490.55 28.47C487.75 28.47 485.65 29.52 484.25 31.62C482.85 33.72 482.01 37.01 481.87 41.49H498.32C498.32 37.01 497.76 33.72 496.5 31.62C495.24 29.52 493.21 28.47 490.55 28.47Z" fill="white"/>
<rect x="534.5" y="0.5" width="89" height="89" stroke="white"/>
<path d="M580.32 62.7C575.63 62.7 571.85 61.09 568.91 57.73C565.97 54.37 564.5 49.96 564.5 44.36C564.5 39.04 565.9 34.7 568.77 31.34C571.64 27.98 575.28 26.3 579.69 26.3C583.96 26.3 587.32 27.77 589.84 30.64C592.29 33.51 593.55 37.29 593.55 41.98V43.59H570.8V44.36C570.8 50.17 571.5 54.3 573.04 56.75C574.51 59.27 576.96 60.46 580.39 60.46C583.12 60.46 585.36 59.76 587.11 58.36C588.79 56.96 590.19 54.65 591.17 51.43L593.13 51.99C592.29 55.35 590.68 57.94 588.44 59.83C586.2 61.79 583.47 62.7 580.32 62.7ZM579.55 28.47C576.75 28.47 574.65 29.52 573.25 31.62C571.85 33.72 571.01 37.01 570.87 41.49H587.32C587.32 37.01 586.76 33.72 585.5 31.62C584.24 29.52 582.21 28.47 579.55 28.47ZM577.17 14.96C577.17 16.15 576.75 17.2 576.05 18.04C575.28 18.88 574.3 19.3 573.11 19.3C571.85 19.3 570.8 18.88 570.1 18.04C569.4 17.2 569.05 16.15 569.05 14.96C569.05 13.77 569.4 12.72 570.1 11.88C570.8 11.04 571.85 10.55 573.11 10.55C574.37 10.55 575.35 11.04 576.05 11.88C576.75 12.79 577.17 13.84 577.17 14.96ZM590.05 14.96C590.05 16.15 589.63 17.2 588.93 18.04C588.16 18.88 587.18 19.3 585.99 19.3C584.73 19.3 583.68 18.88 582.98 18.04C582.28 17.2 581.93 16.15 581.93 14.96C581.93 13.77 582.28 12.72 582.98 11.88C583.68 11.04 584.73 10.55 585.99 10.55C587.25 10.55 588.23 11.04 588.93 11.88C589.63 12.79 590.05 13.84 590.05 14.96Z" fill="white"/>
<rect x="623.5" y="0.5" width="89" height="89" stroke="white"/>
<path d="M661.8 43.17H665.3V29.1H661.1V27H675.45V29.1H671.25V43.17H674.75C675.87 43.17 676.78 42.75 677.55 41.84C678.25 41 679.02 39.04 679.86 36.03C680.91 32.11 682.1 29.45 683.36 28.19C684.62 26.93 686.3 26.3 688.4 26.3C690.15 26.3 691.62 26.86 692.74 27.91C693.86 28.96 694.42 30.43 694.42 32.25C694.42 33.65 694.07 34.7 693.37 35.4C692.67 36.17 691.69 36.52 690.5 36.52C689.17 36.52 688.12 36.17 687.35 35.47C686.51 34.77 686.16 33.79 686.16 32.67C686.16 31.62 686.44 30.71 687.07 29.94C687.7 29.17 688.61 28.68 689.73 28.47C689.59 28.33 689.38 28.26 689.24 28.19C689.03 28.19 688.82 28.12 688.61 28.12C687.07 28.12 685.88 28.68 684.97 29.66C683.99 30.71 683.15 32.88 682.31 36.24C681.54 39.18 680.84 41.14 680.14 42.12C679.44 43.17 678.53 43.87 677.48 44.15C680.7 45.41 683.15 46.6 684.69 47.86C686.23 49.12 687.28 50.94 687.91 53.18C687.98 53.53 688.12 54.16 688.4 55.07C688.61 55.98 688.82 56.68 688.96 57.1C689.24 58.08 689.59 58.71 690.01 59.13C690.43 59.55 690.99 59.69 691.62 59.69C692.6 59.69 693.3 58.99 693.79 57.59C694.28 56.19 694.56 54.16 694.56 51.36H696.45C696.45 55.7 695.89 58.71 694.84 60.32C693.72 61.93 691.9 62.7 689.31 62.7C687.21 62.7 685.53 62.14 684.27 60.95C683.01 59.76 681.96 57.59 681.19 54.37C680.77 52.69 680.35 51.36 680.07 50.38C679.72 49.4 679.51 48.7 679.37 48.28C678.81 47.16 678.11 46.39 677.27 45.83C676.43 45.34 675.45 45.06 674.33 45.06H671.25V59.9H676.15V62H660.4V59.9H665.3V45.06H662.22C661.03 45.06 660.05 45.34 659.21 45.83C658.37 46.39 657.67 47.16 657.11 48.28C656.9 48.7 656.69 49.19 656.55 49.68C656.34 50.24 655.92 51.78 655.22 54.37C654.38 57.66 653.4 59.9 652.21 61.02C650.95 62.14 649.34 62.7 647.31 62.7C644.72 62.7 642.9 61.93 641.78 60.25C640.66 58.57 640.1 55.63 640.1 51.36H641.99C641.99 54.3 642.2 56.4 642.69 57.73C643.11 59.06 643.88 59.69 645 59.69C645.63 59.69 646.19 59.55 646.61 59.13C647.03 58.71 647.38 58.08 647.66 57.1C647.8 56.68 647.94 56.05 648.22 55.14C648.43 54.23 648.57 53.6 648.71 53.18C649.27 50.8 650.39 49.05 651.93 47.79C653.47 46.53 655.85 45.34 659.07 44.15C657.95 43.87 657.11 43.17 656.41 42.12C655.71 41.14 655.01 39.18 654.31 36.24C653.47 32.88 652.56 30.71 651.65 29.66C650.67 28.68 649.48 28.12 648.01 28.12C647.73 28.12 647.45 28.19 647.24 28.26C646.96 28.33 646.75 28.47 646.61 28.61C647.8 28.75 648.71 29.17 649.41 29.87C650.11 30.57 650.46 31.55 650.46 32.67C650.46 33.86 650.04 34.77 649.34 35.47C648.57 36.17 647.59 36.45 646.4 36.45C645.07 36.45 644.02 36.1 643.25 35.33C642.48 34.63 642.13 33.58 642.13 32.25C642.13 30.43 642.69 28.96 643.81 27.91C644.93 26.86 646.33 26.3 648.15 26.3C649.55 26.3 650.74 26.58 651.79 27.07C652.77 27.63 653.68 28.4 654.45 29.38C654.87 30.08 655.29 30.92 655.64 31.83C655.99 32.81 656.41 34.21 656.97 36.17C657.67 39.11 658.37 41.07 659.07 41.91C659.77 42.75 660.68 43.17 661.8 43.17Z" fill="white"/>
<rect x="0.5" y="89.5" width="89" height="89" stroke="white"/>
<path d="M58.8 141.27C58.8 144.63 57.47 147.15 54.88 148.97C52.22 150.79 48.93 151.7 44.87 151.7C40.6 151.7 37.24 150.86 34.79 149.18C32.34 147.5 31.15 145.33 31.15 142.6C31.15 141.2 31.5 140.15 32.2 139.31C32.9 138.47 33.95 138.05 35.35 138.05C36.61 138.05 37.59 138.47 38.29 139.17C38.99 139.94 39.34 140.99 39.34 142.25C39.34 143.3 38.92 144.14 38.22 144.84C37.52 145.54 36.54 145.96 35.28 146.1C35.98 147.29 37.03 148.2 38.57 148.76C40.11 149.32 42 149.6 44.31 149.6C46.97 149.6 49 148.9 50.4 147.43C51.8 146.03 52.5 143.86 52.5 140.99C52.5 138.61 51.73 136.86 50.26 135.74C48.79 134.69 46.34 134.13 42.91 134.13H39.97V132.03H42.98C45.85 132.03 47.95 131.47 49.21 130.21C50.47 129.02 51.17 127.06 51.17 124.33C51.17 122.23 50.54 120.55 49.28 119.43C48.02 118.31 46.27 117.75 43.96 117.75C41.3 117.75 39.27 118.52 37.87 119.99C36.47 121.46 35.42 123.98 34.86 127.48H32.9V115.79H34.79L36.47 118.45C37.87 117.33 39.27 116.49 40.74 116C42.21 115.58 43.89 115.3 45.85 115.3C49.35 115.3 52.15 116.14 54.25 117.68C56.28 119.22 57.33 121.46 57.33 124.26C57.33 126.57 56.56 128.46 55.09 129.93C53.55 131.47 51.45 132.45 48.79 132.87C51.87 133.29 54.25 134.2 56.07 135.6C57.89 137.07 58.8 138.96 58.8 141.27Z" fill="white"/>
<rect x="89.5" y="89.5" width="89" height="89" stroke="white"/>
<path d="M126.35 148.9H132.3V151H114.8V148.9H120.4V118.1H114.8V116H132.3V118.1H126.35V141.76L142.45 121.46V118.1H136.5V116H154V118.1H148.4V148.9H154V151H136.5V148.9H142.45V125.03L126.35 145.33V148.9Z" fill="white"/>
<rect x="178.5" y="89.5" width="89" height="89" stroke="white"/>
<path d="M215.35 148.9H221.3V151H203.8V148.9H209.4V118.1H203.8V116H221.3V118.1H215.35V141.76L231.45 121.46V118.1H225.5V116H243V118.1H237.4V148.9H243V151H225.5V148.9H231.45V125.03L215.35 145.33V148.9ZM230.96 96.12C232.15 96.12 233.06 96.54 233.76 97.31C234.46 98.08 234.81 99.06 234.81 100.32C234.81 103.05 233.76 105.43 231.66 107.46C229.56 109.49 226.83 110.47 223.54 110.47C220.18 110.47 217.52 109.49 215.42 107.46C213.32 105.43 212.27 103.05 212.27 100.32C212.27 99.06 212.62 98.08 213.32 97.31C214.02 96.54 214.93 96.12 216.12 96.12C217.24 96.12 218.08 96.47 218.71 97.1C219.34 97.73 219.69 98.57 219.69 99.55C219.69 100.81 219.2 101.72 218.22 102.42C217.24 103.12 215.91 103.33 214.37 102.98C215.07 104.24 216.26 105.15 217.94 105.85C219.55 106.55 221.44 106.9 223.54 106.9C225.78 106.9 227.74 106.55 229.42 105.85C231.1 105.15 232.29 104.17 233.06 102.91C231.24 103.4 229.84 103.33 228.86 102.7C227.88 102.07 227.39 101.02 227.39 99.55C227.39 98.57 227.67 97.73 228.37 97.1C229 96.47 229.84 96.12 230.96 96.12Z" fill="white"/>
<rect x="267.5" y="89.5" width="89" height="89" stroke="white"/>
<path d="M324.32 151.7C322.22 151.7 320.54 151.14 319.28 149.95C318.02 148.76 317.04 146.59 316.27 143.37C315.36 139.8 314.24 137.35 312.91 136.09C311.58 134.83 309.83 134.13 307.59 134.13H305.35V148.9H312V151H293.8V148.9H299.4V118.1H293.8V116H310.6V118.1H305.35V132.03H308.01C309.13 132.03 310.04 131.61 310.88 130.7C311.65 129.86 312.49 127.9 313.47 124.96C314.73 121.04 315.99 118.45 317.32 117.19C318.65 115.93 320.33 115.3 322.43 115.3C324.11 115.3 325.58 115.86 326.7 116.91C327.82 118.03 328.45 119.43 328.45 121.25C328.45 122.65 328.1 123.7 327.4 124.47C326.7 125.31 325.72 125.66 324.53 125.66C323.2 125.66 322.15 125.31 321.38 124.61C320.54 123.91 320.19 122.93 320.19 121.67C320.19 120.55 320.47 119.64 321.17 118.94C321.8 118.24 322.71 117.75 323.97 117.54C323.69 117.4 323.41 117.33 323.13 117.26C322.85 117.19 322.5 117.12 322.08 117.12C320.75 117.12 319.63 117.61 318.72 118.59C317.81 119.57 316.83 121.6 315.85 124.82C315.01 127.48 314.24 129.37 313.54 130.42C312.84 131.54 312.07 132.31 311.23 132.8C312.98 133.36 314.52 133.85 315.78 134.41C317.04 134.97 318.09 135.6 319 136.16C319.98 136.93 320.82 137.77 321.45 138.68C322.01 139.66 322.64 141.13 323.2 143.23C323.27 143.51 323.41 144.07 323.62 144.84C323.76 145.68 323.97 146.24 324.11 146.59C324.39 147.36 324.67 147.92 325.09 148.2C325.44 148.55 325.93 148.69 326.49 148.69C327.47 148.69 328.17 148.06 328.59 146.73C329.01 145.4 329.22 143.3 329.22 140.36H331.11C331.11 144.56 330.55 147.5 329.5 149.18C328.38 150.86 326.7 151.7 324.32 151.7Z" fill="white"/>
<rect x="356.5" y="89.5" width="89" height="89" stroke="white"/>
<path d="M407.46 148.9V118.1H397.17C397.17 123.42 397.1 127.41 397.1 130.21C397.03 133.01 396.96 135.32 396.82 137.28C396.47 142.81 395.7 146.59 394.44 148.62C393.18 150.72 391.01 151.7 388.07 151.7C386.11 151.7 384.57 151.14 383.45 150.02C382.26 148.9 381.7 147.22 381.7 145.12C381.7 143.72 382.05 142.53 382.89 141.62C383.66 140.78 384.71 140.29 386.04 140.29C387.3 140.29 388.28 140.71 389.05 141.48C389.75 142.32 390.17 143.3 390.17 144.49C390.17 145.82 389.75 146.8 388.98 147.5C388.14 148.2 387.02 148.55 385.55 148.48C385.83 148.9 386.25 149.18 386.74 149.32C387.16 149.46 387.72 149.53 388.42 149.53C390.38 149.53 391.78 148.55 392.69 146.45C393.53 144.35 394.09 140.64 394.37 135.18C394.37 133.64 394.44 131.82 394.44 129.72C394.44 127.62 394.51 123.7 394.51 118.1H388.63V116H419.01V118.1H413.41V148.9H419.01V151H401.16V148.9H407.46Z" fill="white"/>
<rect x="445.5" y="89.5" width="89" height="89" stroke="white"/>
<path d="M474.2 148.9H480.15V151H465.8V148.9H471.4V118.1H465.8V116H478.96L489.81 138.75L500.8 116H513.54V118.1H507.94V148.9H513.54V151H496.04V148.9H501.99V119.22L488.55 147.36H487.22L474.2 119.15V148.9Z" fill="white"/>
<rect x="534.5" y="89.5" width="89" height="89" stroke="white"/>
<path d="M571.35 148.9H576.95V151H559.8V148.9H565.4V118.1H559.8V116H576.95V118.1H571.35V131.68H587.45V118.1H581.85V116H599V118.1H593.4V148.9H599V151H581.85V148.9H587.45V133.78H571.35V148.9Z" fill="white"/>
<rect x="623.5" y="89.5" width="89" height="89" stroke="white"/>
<path d="M667.6 115.3C672.08 115.3 675.86 117.05 679.01 120.48C682.09 123.91 683.7 128.25 683.7 133.5C683.7 138.82 682.09 143.16 679.01 146.59C675.86 150.02 672.08 151.7 667.6 151.7C662.91 151.7 659.06 150.09 656.05 146.73C653.04 143.37 651.57 139.03 651.57 133.57C651.57 128.11 653.04 123.7 656.05 120.34C659.06 116.98 662.91 115.3 667.6 115.3ZM667.6 117.4C664.24 117.4 661.72 118.73 660.18 121.25C658.64 123.84 657.87 127.97 657.87 133.57C657.87 139.17 658.64 143.3 660.18 145.82C661.72 148.34 664.24 149.6 667.6 149.6C670.82 149.6 673.2 148.27 674.88 145.54C676.56 142.88 677.4 138.82 677.4 133.5C677.4 128.25 676.56 124.26 674.88 121.53C673.2 118.8 670.82 117.4 667.6 117.4Z" fill="white"/>
<rect x="0.5" y="178.5" width="89" height="89" stroke="white"/>
<path d="M37.35 237.9H42.6V240H25.8V237.9H31.4V207.1H25.8V205H63.6V207.1H58V237.9H63.6V240H46.8V237.9H52.05V207.1H37.35V237.9Z" fill="white"/>
<rect x="89.5" y="178.5" width="89" height="89" stroke="white"/>
<path d="M136.66 238.6C139.74 238.6 141.98 237.34 143.52 234.68C144.99 232.02 145.76 227.89 145.83 222.29C145.83 216.83 145.13 212.77 143.66 210.18C142.19 207.66 139.88 206.33 136.8 206.33C134 206.33 131.69 207.73 129.94 210.53C128.19 213.33 127.35 217.04 127.35 221.59V225.51C127.35 230.06 128.05 233.35 129.52 235.45C130.92 237.55 133.3 238.6 136.66 238.6ZM127.35 255.05H135.05V257.5H115.8V255.05H121.4V207.45H115.8V205C119.3 205 121.68 205 122.94 204.86C124.2 204.72 125.11 204.44 125.74 204.02L126.44 204.65V214.8C126.79 211.58 127.98 209.06 130.01 207.1C132.04 205.21 134.63 204.23 137.71 204.23C141.7 204.23 145.13 205.98 147.93 209.34C150.73 212.77 152.13 217.11 152.13 222.29C152.13 227.68 150.59 232.09 147.65 235.52C144.71 239.02 141 240.7 136.66 240.7C134.56 240.7 132.74 240.35 131.2 239.51C129.66 238.67 128.4 237.41 127.35 235.66V255.05Z" fill="white"/>
<rect x="178.5" y="178.5" width="89" height="89" stroke="white"/>
<path d="M235.47 229.43L237.43 229.99C236.52 233.49 235.05 236.15 232.95 237.97C230.85 239.79 228.19 240.7 224.97 240.7C220.21 240.7 216.5 239.16 213.7 235.94C210.9 232.72 209.57 228.38 209.57 222.78C209.57 217.04 210.97 212.56 213.91 209.27C216.85 205.98 220.7 204.3 225.6 204.3C228.89 204.3 231.62 205.28 233.72 207.1C235.82 208.99 236.87 211.44 236.87 214.52C236.87 215.92 236.45 217.04 235.75 217.88C235.05 218.72 234.07 219.07 232.81 219.07C231.41 219.07 230.29 218.72 229.52 217.95C228.75 217.25 228.4 216.2 228.4 214.87C228.4 213.61 228.75 212.56 229.59 211.79C230.36 211.02 231.55 210.53 233.09 210.25C232.46 209.13 231.48 208.15 230.15 207.45C228.75 206.75 227.28 206.4 225.6 206.4C222.24 206.4 219.79 207.73 218.25 210.39C216.64 213.05 215.87 217.18 215.87 222.78C215.87 227.82 216.64 231.67 218.25 234.4C219.79 237.13 222.1 238.46 225.04 238.46C227.7 238.46 229.87 237.76 231.55 236.36C233.23 234.96 234.49 232.65 235.47 229.43Z" fill="white"/>
<rect x="267.5" y="178.5" width="89" height="89" stroke="white"/>
<path d="M321.6 237.9V240H303.05V237.9H309.35V207.1H306.06C303.4 207.1 301.51 207.8 300.32 209.13C299.06 210.53 298.5 212.7 298.5 215.78V217.6H296.4V205H328.25V217.6H326.15V215.78C326.15 212.7 325.52 210.53 324.33 209.13C323.07 207.8 321.18 207.1 318.59 207.1H315.3V237.9H321.6Z" fill="white"/>
<rect x="356.5" y="178.5" width="89" height="89" stroke="white"/>
<path d="M390.61 258.2C388.51 258.2 386.83 257.57 385.57 256.17C384.24 254.77 383.61 252.95 383.61 250.64C383.61 249.17 383.96 247.98 384.8 247.07C385.64 246.16 386.69 245.67 388.09 245.67C389.35 245.67 390.33 246.09 391.03 246.79C391.73 247.56 392.08 248.61 392.08 249.87C392.08 251.13 391.59 252.18 390.75 252.88C389.91 253.65 388.72 254.07 387.18 254.07C387.53 254.77 388.02 255.26 388.58 255.54C389.14 255.82 389.77 255.96 390.61 255.96C392.15 255.96 393.55 255.05 394.81 253.16C396.07 251.34 397.75 247.56 399.78 241.82L400.48 239.79L387.11 207.1H381.65V205H399.78V207.1H393.06L403.14 231.88L412.38 207.1H406.78V205H419.94V207.1H415.18L406.36 231.25L402.79 241.05C400.13 248.47 397.96 253.23 396.42 255.19C394.81 257.22 392.85 258.2 390.61 258.2Z" fill="white"/>
<rect x="445.5" y="178.5" width="89" height="89" stroke="white"/>
<path d="M471.8 222.08C471.8 227.4 472.43 231.39 473.76 234.19C475.09 236.99 477.05 238.39 479.57 238.39C481.74 238.39 483.49 237.13 484.75 234.54C486.01 231.95 486.64 228.52 486.64 224.18V220.4C486.64 216.2 486.01 212.84 484.75 210.32C483.49 207.87 481.74 206.61 479.57 206.61C477.05 206.61 475.09 208.01 473.76 210.67C472.43 213.33 471.8 217.18 471.8 222.08ZM500.15 238.39C502.6 238.39 504.42 237.06 505.61 234.4C506.8 231.74 507.43 227.68 507.43 222.08C507.43 216.83 506.8 212.91 505.61 210.39C504.35 207.87 502.53 206.61 500.08 206.61C497.7 206.61 495.81 207.87 494.55 210.25C493.22 212.7 492.59 216.06 492.59 220.4V224.18C492.59 228.52 493.22 231.95 494.62 234.54C496.02 237.13 497.84 238.39 500.15 238.39ZM491.26 230.62C491.26 236.08 491.75 241.05 492.66 245.39C493.5 249.73 494.9 253.93 496.79 257.85L496.09 258.48L489.44 249.66L483.14 258.48L482.44 257.85C484.33 253.51 485.73 249.1 486.57 244.76C487.41 240.42 487.9 235.73 487.97 230.62C487.41 234.12 486.36 236.71 484.96 238.32C483.49 239.93 481.53 240.7 479.15 240.7C475.23 240.7 472.01 238.88 469.42 235.17C466.76 231.46 465.5 227.12 465.5 222.08C465.5 217.18 466.69 213.05 469.21 209.55C471.73 206.05 474.88 204.3 478.66 204.3C481.18 204.3 483.28 205.21 484.82 206.89C486.36 208.64 487.41 211.23 487.97 214.73C487.9 209.55 487.48 204.72 486.64 200.38C485.8 196.04 484.4 191.63 482.44 187.15L483.14 186.52L489.86 195.34L496.09 186.52L496.79 187.15C494.76 192.19 493.36 196.81 492.52 201.08C491.68 205.35 491.26 209.9 491.26 214.73C491.82 211.23 492.87 208.64 494.41 206.89C495.95 205.21 497.98 204.3 500.57 204.3C504.35 204.3 507.43 206.05 509.95 209.55C512.47 213.05 513.73 217.18 513.73 222.08C513.73 227.19 512.47 231.6 510.02 235.24C507.5 238.88 504.35 240.7 500.57 240.7C498.05 240.7 496.02 239.93 494.48 238.25C492.94 236.57 491.82 234.05 491.26 230.62Z" fill="white"/>
<rect x="534.5" y="178.5" width="89" height="89" stroke="white"/>
<path d="M575.42 240H561.35V237.9H566.6L577.17 222.78L566.39 207.1H562.05V205H577.87V207.1H572.76L581.02 219L589.21 207.1H584.17V205H597.12V207.1H592.22L582.49 221.1L594.18 237.9H598.1V240H581.72V237.9H587.6L578.78 225.09L569.89 237.9H575.42V240Z" fill="white"/>
<rect x="623.5" y="178.5" width="89" height="89" stroke="white"/>
<path d="M688.7 237.9V250.15H686.6V248.33C686.6 245.53 685.9 243.43 684.57 242.03C683.17 240.7 681.14 240 678.34 240H648.8V237.9H654.4V207.1H648.8V205H665.95V207.1H660.35V237.9H676.45V207.1H670.85V205H688V207.1H682.4V237.9H688.7Z" fill="white"/>
<rect x="0.5" y="267.5" width="89" height="89" stroke="white"/>
<path d="M62.24 326.9V329H42.99V326.9H50.69V312.13C49.5 312.9 48.17 313.46 46.77 313.88C45.37 314.3 43.83 314.44 42.29 314.44C38.23 314.44 35.22 313.6 33.26 311.78C31.23 309.96 30.25 307.3 30.25 303.66V296.1H25.35V294H40.96V296.1H36.2V303.59C36.2 306.53 36.76 308.7 38.02 310.1C39.21 311.5 41.1 312.2 43.62 312.2C44.95 312.2 46.21 312.06 47.4 311.64C48.59 311.29 49.71 310.73 50.69 309.89V296.1H45.86V294H62.24V296.1H56.64V326.9H62.24Z" fill="white"/>
<rect x="89.5" y="267.5" width="89" height="89" stroke="white"/>
<path d="M161.75 326.9V339.15H159.65V337.33C159.65 334.53 158.95 332.43 157.62 331.03C156.22 329.7 154.19 329 151.39 329H106.8V326.9H112.4V296.1H106.8V294H122.2V296.1H118.35V326.9H130.95V296.1H126.4V294H141.45V296.1H136.9V326.9H149.5V296.1H145.65V294H161.05V296.1H155.45V326.9H161.75Z" fill="white"/>
<rect x="178.5" y="267.5" width="89" height="89" stroke="white"/>
<path d="M242.39 318.99C242.39 322.21 241.06 324.73 238.4 326.41C235.74 328.16 232.03 329 227.27 329H211.1V326.9H216.7V296.1H213.76C210.96 296.1 208.93 296.87 207.53 298.27C206.13 299.74 205.5 301.91 205.5 304.78V306.6H203.4V294H229.3V296.1H222.65V309.19H227.27C232.03 309.19 235.74 310.03 238.4 311.71C241.06 313.39 242.39 315.84 242.39 318.99ZM227.2 311.29H222.65V326.9H227.27C230.21 326.9 232.45 326.27 233.92 324.94C235.32 323.68 236.09 321.65 236.09 318.92C236.09 316.26 235.39 314.3 234.06 313.11C232.66 311.92 230.42 311.29 227.2 311.29Z" fill="white"/>
<rect x="267.5" y="267.5" width="89" height="89" stroke="white"/>
<path d="M299.35 296.1V309.19H303.97C308.73 309.19 312.44 310.03 315.1 311.71C317.76 313.39 319.09 315.84 319.09 318.99C319.09 322.21 317.76 324.73 315.1 326.41C312.44 328.16 308.73 329 303.97 329H287.8V326.9H293.4V296.1H287.8V294H306V296.1H299.35ZM336.24 329H319.09V326.9H324.69V296.1H318.39V294H336.24V296.1H330.64V326.9H336.24V329ZM303.9 311.29H299.35V326.9H303.97C306.91 326.9 309.15 326.27 310.62 324.94C312.02 323.68 312.79 321.65 312.79 318.92C312.79 316.26 312.09 314.3 310.76 313.11C309.36 311.92 307.12 311.29 303.9 311.29Z" fill="white"/>
<rect x="356.5" y="267.5" width="89" height="89" stroke="white"/>
<path d="M397.35 296.1V309.19H401.97C406.73 309.19 410.44 310.03 413.1 311.71C415.76 313.39 417.09 315.84 417.09 318.99C417.09 322.21 415.76 324.73 413.1 326.41C410.44 328.16 406.73 329 401.97 329H385.8V326.9H391.4V296.1H385.8V294H404V296.1H397.35ZM401.9 311.29H397.35V326.9H401.97C404.91 326.9 407.15 326.27 408.62 324.94C410.02 323.68 410.79 321.65 410.79 318.92C410.79 316.26 410.09 314.3 408.76 313.11C407.36 311.92 405.12 311.29 401.9 311.29Z" fill="white"/>
<rect x="445.5" y="267.5" width="89" height="89" stroke="white"/>
<path d="M504.36 310.45C504.36 316.12 502.82 320.74 499.81 324.31C496.8 327.95 492.81 329.7 487.84 329.7C484.2 329.7 481.26 328.86 479.09 327.18C476.85 325.5 475.8 323.26 475.8 320.6C475.8 319.2 476.15 318.15 476.92 317.31C477.69 316.47 478.74 316.05 480.14 316.05C481.4 316.05 482.45 316.47 483.15 317.24C483.85 318.01 484.27 318.99 484.27 320.25C484.27 321.58 483.85 322.63 483.15 323.33C482.45 324.03 481.33 324.45 479.86 324.59C480.77 325.64 481.89 326.41 483.15 326.9C484.41 327.39 485.88 327.6 487.56 327.6C490.92 327.6 493.51 326.34 495.26 323.68C496.94 321.09 497.92 317.1 498.06 311.64H484.62V309.54H498.06C497.92 304.92 497.01 301.42 495.33 299.18C493.65 296.94 491.13 295.75 487.77 295.75C485.6 295.75 483.85 296.59 482.45 298.27C481.05 299.95 480 302.54 479.3 305.9H477.34V293.79H479.23L480.91 296.1C481.82 295.19 482.94 294.49 484.27 294C485.53 293.58 487 293.3 488.68 293.3C493.16 293.3 496.87 294.98 499.88 298.27C502.82 301.56 504.36 305.62 504.36 310.45Z" fill="white"/>
<rect x="534.5" y="267.5" width="89" height="89" stroke="white"/>
<path d="M603.78 311.29C603.78 316.75 602.24 321.23 599.23 324.59C596.15 328.02 592.44 329.7 588.03 329.7C583.69 329.7 579.98 328.09 576.9 324.73C573.82 321.37 572.35 317.1 572.35 311.78H566.05V326.9H570.95V329H554.5V326.9H560.1V296.1H554.5V294H570.95V296.1H566.05V309.68H572.42C572.7 304.78 574.31 300.79 577.25 297.78C580.19 294.84 583.76 293.3 588.03 293.3C592.51 293.3 596.22 294.98 599.23 298.27C602.24 301.56 603.78 305.9 603.78 311.29ZM578.65 311.36C578.65 317.24 579.35 321.37 580.89 323.89C582.36 326.41 584.74 327.6 588.03 327.6C591.18 327.6 593.56 326.27 595.1 323.61C596.64 320.95 597.48 316.89 597.48 311.29C597.48 305.83 596.71 301.84 595.17 299.25C593.63 296.73 591.25 295.4 588.03 295.4C584.67 295.4 582.29 296.66 580.82 299.04C579.35 301.42 578.65 305.55 578.65 311.36Z" fill="white"/>
<rect x="623.5" y="267.5" width="89" height="89" stroke="white"/>
<path d="M669.49 310.31H673.41V296.1H669.77C666.97 296.1 664.66 296.8 662.98 298.06C661.3 299.32 660.46 301.14 660.46 303.38C660.46 305.62 661.23 307.3 662.91 308.49C664.52 309.75 666.69 310.31 669.49 310.31ZM665.08 315.63C664.66 316.26 664.31 317.03 663.96 317.87C663.61 318.78 663.12 320.32 662.49 322.56C661.65 325.29 660.67 327.18 659.55 328.16C658.43 329.21 657.03 329.7 655.28 329.7C652.97 329.7 651.36 328.86 650.45 327.18C649.47 325.5 649.05 322.56 649.05 318.36H650.94C650.94 321.02 651.15 323.12 651.64 324.52C652.13 325.99 652.76 326.69 653.6 326.69C654.09 326.69 654.51 326.55 654.79 326.13C655.07 325.71 655.7 324.03 656.68 321.02C657.45 318.64 658.43 316.82 659.62 315.7C660.74 314.58 662.98 313.32 666.27 311.85C662.63 311.85 659.76 311.15 657.52 309.61C655.28 308.07 654.16 305.97 654.16 303.31C654.16 300.37 655.49 298.13 658.29 296.45C661.02 294.84 664.8 294 669.63 294H684.96V296.1H679.36V326.9H684.96V329H667.11V326.9H673.41V312.13H671.03C669.7 312.13 668.58 312.41 667.6 312.97C666.62 313.53 665.78 314.44 665.08 315.63Z" fill="white"/>
</svg>
