<svg width="731" height="357" viewBox="0 0 731 357" fill="none" xmlns="http://www.w3.org/2000/svg">
<rect x="0.5" y="0.5" width="91.25" height="89" stroke="white"/>
<path d="M57.95 67.9V70H33.1V67.9H42.55V26.32H33.1V24.29C37.44 24.29 40.87 24.01 43.32 23.31C45.77 22.61 47.59 21.56 48.71 20.02L49.76 20.44C49.48 21.14 49.2 22.26 49.06 23.73C48.92 25.27 48.85 26.81 48.85 28.49V67.9H57.95Z" fill="white"/>
<rect x="91.75" y="0.5" width="91.25" height="89" stroke="white"/>
<path d="M151.12 70H122.63V67.55C128.51 61.39 133.13 56.35 136.56 52.29C139.92 48.23 142.65 44.66 144.68 41.58C143.7 42.77 142.58 43.68 141.18 44.31C139.78 45.01 138.31 45.29 136.63 45.29C132.71 45.29 129.28 44.17 126.34 41.86C123.4 39.55 121.93 36.61 121.93 33.11C121.93 29.61 123.47 26.74 126.62 24.43C129.77 22.19 133.55 21 137.96 21C141.95 21 145.24 22.12 147.9 24.36C150.49 26.6 151.82 29.54 151.82 33.11C151.82 34.58 151.4 36.12 150.56 37.73C149.72 39.41 148.39 41.37 146.57 43.68C144.89 45.78 141.74 49.42 137.26 54.46C132.78 59.57 129.84 62.86 128.51 64.4H141.11C143.14 64.4 144.54 64.4 145.38 64.26C146.22 64.19 146.85 64.05 147.41 63.77C148.25 63.49 148.88 62.93 149.3 62.09C149.72 61.32 150 60.13 150.28 58.52L150.77 54.32H152.87L151.12 70ZM136.91 23.1C134.39 23.1 132.43 24.01 130.89 25.83C129.35 27.65 128.51 30.1 128.51 33.18C128.44 36.33 129.21 38.78 130.75 40.6C132.29 42.42 134.39 43.26 137.05 43.26C139.5 43.26 141.46 42.35 143 40.53C144.54 38.71 145.31 36.26 145.31 33.18C145.31 30.1 144.47 27.65 142.93 25.83C141.39 24.01 139.36 23.1 136.91 23.1Z" fill="white"/>
<rect x="183" y="0.5" width="91.25" height="89" stroke="white"/>
<path d="M243.19 55.72C243.19 60.06 241.79 63.7 238.99 66.5C236.19 69.3 232.48 70.7 227.72 70.7C223.1 70.7 219.6 69.58 217.08 67.34C214.56 65.1 213.3 62.16 213.3 58.45C213.3 57.05 213.72 55.93 214.56 55.02C215.4 54.18 216.45 53.69 217.85 53.69C219.11 53.69 220.16 54.11 220.93 54.95C221.7 55.79 222.12 56.84 222.12 58.1C222.12 59.5 221.63 60.62 220.65 61.39C219.67 62.16 218.27 62.51 216.52 62.51C217.22 64.47 218.41 66.01 220.09 66.99C221.77 68.04 223.94 68.53 226.6 68.53C229.61 68.53 231.99 67.41 233.67 65.1C235.35 62.86 236.19 59.71 236.19 55.72C236.12 51.87 235.21 48.79 233.46 46.41C231.64 44.1 229.4 42.91 226.74 42.91C225.83 42.91 225.06 43.05 224.36 43.26C223.66 43.54 222.96 43.96 222.19 44.52L221.35 43.47L235.84 27.3H226.53C224.01 27.3 222.33 27.37 221.42 27.51C220.51 27.65 219.81 27.79 219.32 28C218.48 28.42 217.92 29.05 217.64 29.96C217.36 30.94 217.22 32.48 217.22 34.58V36.68H215.12V21.7H241.79V23.8L226.74 40.6C232.13 41.3 236.19 42.91 238.99 45.43C241.79 47.95 243.19 51.38 243.19 55.72Z" fill="white"/>
<rect x="274.25" y="0.5" width="91.25" height="89" stroke="white"/>
<path d="M335 67.9V70H315.75V67.9H322.75V56.7H302.45V55.65L327.79 20.86H329.05V54.6H335V56.7H329.05V67.9H335ZM305.81 54.6H322.75V31.08L305.81 54.6Z" fill="white"/>
<rect x="365.5" y="0.5" width="91.25" height="89" stroke="white"/>
<path d="M424.99 54.25C424.99 58.8 423.45 62.65 420.51 65.87C417.57 69.09 413.65 70.7 408.82 70.7C404.62 70.7 401.4 69.79 399.16 67.83C396.92 65.94 395.8 63.28 395.8 59.85C395.8 58.45 396.22 57.33 397.06 56.42C397.9 55.58 398.95 55.09 400.35 55.09C401.61 55.09 402.66 55.51 403.43 56.35C404.2 57.19 404.62 58.24 404.62 59.5C404.62 60.83 404.13 61.88 403.22 62.72C402.24 63.56 401.05 63.91 399.58 63.91C400.07 65.45 401.12 66.57 402.66 67.34C404.2 68.18 406.16 68.53 408.54 68.53C411.76 68.53 414.14 67.41 415.68 65.1C417.22 62.79 417.99 59.22 417.99 54.32C417.99 49.77 417.15 46.34 415.61 44.1C414 41.86 411.55 40.74 408.33 40.74C406.16 40.74 404.27 41.37 402.66 42.56C401.05 43.75 399.93 45.36 399.37 47.46H397.62L400.42 21.7H415.54C417.22 21.7 418.48 21.42 419.32 20.72C420.16 20.09 420.72 18.83 421 16.94L421.14 15.89H423.24L421.7 27.3H402.1L400.42 42.77C401.4 41.37 402.73 40.25 404.27 39.48C405.81 38.78 407.63 38.36 409.73 38.36C414.42 38.36 418.13 39.9 420.86 42.98C423.59 46.06 424.99 49.77 424.99 54.25Z" fill="white"/>
<rect x="456.75" y="0.5" width="91.25" height="89" stroke="white"/>
<path d="M503.5 40.67C507.14 40.67 510.43 42.21 513.37 45.22C516.31 48.23 517.78 51.73 517.78 55.72C517.78 59.64 516.24 63.14 513.16 66.15C510.08 69.23 506.58 70.7 502.73 70.7C498.04 70.7 494.26 68.74 491.39 64.75C488.45 60.83 487.05 55.37 487.05 48.37C487.05 45.43 487.33 42.42 488.03 39.34C488.73 36.33 489.64 33.6 490.9 31.08C492.51 27.86 494.47 25.34 496.78 23.59C499.09 21.91 501.61 21 504.41 21C507.63 21 510.22 21.84 512.25 23.45C514.28 25.13 515.33 27.23 515.33 29.75C515.33 31.15 514.91 32.2 514.21 32.97C513.44 33.81 512.39 34.16 511.13 34.16C509.73 34.16 508.68 33.81 507.84 33.04C507 32.27 506.65 31.22 506.65 29.89C506.65 28.56 507.07 27.51 507.91 26.74C508.75 25.97 509.94 25.55 511.41 25.55C510.71 24.71 509.73 24.01 508.54 23.59C507.35 23.17 505.95 22.89 504.27 22.89C500.91 22.89 498.39 24.43 496.57 27.51C494.75 30.59 493.84 35 493.84 40.6V47.67C494.68 45.43 495.94 43.68 497.62 42.49C499.23 41.3 501.19 40.67 503.5 40.67ZM502.73 42.84C500 42.84 497.9 43.96 496.5 46.2C495.03 48.44 494.33 51.66 494.33 55.72C494.33 59.92 495.03 63.07 496.43 65.31C497.83 67.55 499.93 68.6 502.73 68.6C505.32 68.6 507.35 67.48 508.89 65.1C510.36 62.72 511.13 59.64 511.13 55.72C511.13 51.73 510.36 48.58 508.89 46.27C507.42 44.03 505.39 42.84 502.73 42.84Z" fill="white"/>
<rect x="548" y="0.5" width="91.25" height="89" stroke="white"/>
<path d="M594.02 67.41C593.67 68.53 593.18 69.37 592.62 69.93C591.99 70.49 591.22 70.7 590.31 70.7C589.05 70.7 588.14 70.42 587.58 69.86C586.95 69.3 586.67 68.39 586.67 67.2C586.67 66.57 586.81 65.87 587.09 65.1C587.37 64.33 588.07 62.93 589.26 60.9C590.45 58.8 591.36 57.12 592.06 55.72C592.76 54.32 593.39 52.92 594.02 51.45C596.82 44.45 598.78 39.48 599.9 36.54C600.95 33.6 601.93 30.52 602.91 27.3H591.36C588.84 27.3 587.16 27.37 586.25 27.51C585.34 27.65 584.64 27.79 584.15 28C583.31 28.42 582.75 29.05 582.47 29.96C582.19 30.94 582.05 32.48 582.05 34.58V36.68H579.95V21.7H606.62V23.38C606.06 24.92 605.22 27.44 604.1 30.8C602.98 34.23 601.51 38.57 599.76 43.82C598.5 47.53 597.52 50.96 596.68 54.04C595.84 57.19 595.21 60.55 594.65 64.05C594.51 65.17 594.37 65.87 594.3 66.29C594.16 66.71 594.09 67.13 594.02 67.41Z" fill="white"/>
<rect x="639.25" y="0.5" width="91.25" height="89" stroke="white"/>
<path d="M700.89 56.42C700.89 60.2 699.28 63.56 696.2 66.43C693.05 69.3 689.2 70.7 684.72 70.7C680.17 70.7 676.32 69.3 673.24 66.43C670.09 63.56 668.55 60.2 668.55 56.42C668.55 53.13 669.6 50.26 671.77 47.74C673.94 45.22 676.95 43.47 680.87 42.49C677.51 41.65 674.99 40.39 673.24 38.57C671.49 36.75 670.65 34.58 670.65 32.06C670.65 28.98 671.98 26.39 674.78 24.22C677.51 22.12 680.8 21 684.65 21C688.5 21 691.79 22.12 694.59 24.29C697.39 26.46 698.79 29.05 698.79 32.06C698.79 34.58 697.88 36.75 696.13 38.57C694.38 40.39 691.86 41.72 688.57 42.49C692.42 43.47 695.43 45.22 697.6 47.74C699.77 50.26 700.89 53.13 700.89 56.42ZM677.51 32.06C677.51 35.07 678.14 37.38 679.4 39.06C680.66 40.74 682.48 41.51 684.72 41.51C686.96 41.51 688.71 40.74 689.97 39.06C691.23 37.38 691.93 35.07 691.93 32.06C691.93 29.26 691.23 27.02 689.97 25.48C688.71 23.94 686.89 23.1 684.65 23.1C682.41 23.1 680.66 23.94 679.4 25.48C678.14 27.02 677.51 29.26 677.51 32.06ZM675.55 56.42C675.48 60.27 676.25 63.28 677.86 65.38C679.47 67.55 681.78 68.6 684.72 68.6C687.66 68.6 689.9 67.55 691.51 65.38C693.12 63.28 693.89 60.27 693.89 56.42C693.82 52.36 692.98 49.21 691.44 46.97C689.9 44.73 687.66 43.61 684.72 43.61C681.78 43.61 679.54 44.73 678 46.97C676.39 49.21 675.55 52.36 675.55 56.42Z" fill="white"/>
<rect x="0.5" y="89.5" width="91.25" height="89" stroke="white"/>
<path d="M46.2 112.1C43.68 112.1 41.65 113.36 40.11 115.81C38.57 118.26 37.8 121.34 37.8 124.98C37.8 128.9 38.5 131.98 40.04 134.36C41.58 136.74 43.61 137.86 46.2 137.86C48.86 137.86 50.89 136.74 52.36 134.43C53.83 132.12 54.6 128.97 54.6 124.98C54.6 121.06 53.83 117.91 52.36 115.6C50.89 113.29 48.86 112.1 46.2 112.1ZM61.81 133.8C61.81 141.78 60.34 148.15 57.4 152.77C54.46 157.39 50.4 159.7 45.22 159.7C41.37 159.7 38.36 158.86 36.19 157.18C33.95 155.5 32.9 153.12 32.9 150.11C32.9 148.78 33.25 147.73 34.09 146.89C34.93 146.05 35.98 145.63 37.31 145.63C38.64 145.63 39.69 146.05 40.46 146.82C41.16 147.59 41.58 148.64 41.58 149.97C41.58 151.3 41.09 152.35 40.18 153.12C39.2 153.96 38.01 154.31 36.54 154.31C37.24 155.43 38.22 156.34 39.62 156.9C41.02 157.53 42.63 157.81 44.52 157.81C48.16 157.81 50.82 156.62 52.36 154.17C53.9 151.79 54.74 147.66 54.74 141.85V133.31C53.97 135.69 52.78 137.37 51.24 138.42C49.63 139.54 47.53 140.03 44.87 140.03C41.23 140.03 38.01 138.63 35.28 135.69C32.48 132.75 31.15 129.18 31.15 124.98C31.15 121.06 32.69 117.63 35.77 114.55C38.85 111.54 42.28 110 46.2 110C51.17 110 55.02 112.03 57.75 116.09C60.41 120.15 61.81 126.1 61.81 133.8Z" fill="white"/>
<rect x="91.75" y="89.5" width="91.25" height="89" stroke="white"/>
<path d="M150.45 118.96C151.64 121.27 152.62 123.79 153.32 126.59C154.02 129.39 154.37 132.12 154.37 134.78C154.37 137.44 154.02 140.17 153.32 142.97C152.62 145.77 151.71 148.36 150.45 150.6C148.91 153.54 147.02 155.85 144.85 157.39C142.61 158.93 140.23 159.7 137.71 159.7C135.12 159.7 132.74 158.93 130.57 157.39C128.33 155.85 126.51 153.61 124.97 150.6C123.71 148.36 122.8 145.77 122.1 142.97C121.4 140.17 121.05 137.44 121.05 134.78C121.05 132.12 121.33 129.39 122.03 126.59C122.73 123.79 123.71 121.27 124.97 118.96C126.51 116.09 128.33 113.85 130.5 112.31C132.67 110.77 135.05 110 137.71 110C140.23 110 142.61 110.77 144.85 112.31C147.02 113.85 148.91 116.09 150.45 118.96ZM137.71 112.1C134.07 112.1 131.55 113.78 130.15 117.14C128.75 120.5 128.05 126.38 128.05 134.78C128.05 143.18 128.75 149.06 130.22 152.49C131.62 155.92 134.14 157.6 137.71 157.6C141.28 157.6 143.8 155.92 145.2 152.56C146.6 149.2 147.37 143.25 147.37 134.78C147.37 126.38 146.6 120.5 145.2 117.14C143.8 113.78 141.28 112.1 137.71 112.1Z" fill="white"/>
<rect x="183" y="89.5" width="91.25" height="89" stroke="white"/>
<path d="M228.76 142.95C230.09 142.95 231.14 143.44 231.98 144.28C232.75 145.12 233.17 146.17 233.17 147.36C233.17 148.55 232.75 149.6 231.98 150.44C231.14 151.28 230.09 151.7 228.76 151.7C227.36 151.7 226.31 151.28 225.54 150.44C224.7 149.6 224.35 148.62 224.35 147.36C224.35 146.1 224.7 145.05 225.54 144.21C226.31 143.37 227.36 142.95 228.76 142.95Z" fill="white"/>
<rect x="274.25" y="89.5" width="91.25" height="89" stroke="white"/>
<path d="M324.42 148.41C324.42 151.49 323.79 154.43 322.53 157.16C321.27 159.96 319.45 162.27 317.21 164.23L315.6 162.76C317.07 161.57 318.4 159.89 319.52 157.79C320.64 155.69 321.27 153.66 321.41 151.63C321.27 151.63 320.99 151.7 320.64 151.7C320.29 151.7 320.08 151.7 320.01 151.7C318.61 151.7 317.56 151.28 316.79 150.44C315.95 149.6 315.6 148.62 315.6 147.36C315.6 146.1 315.95 145.05 316.79 144.21C317.56 143.37 318.61 142.95 320.01 142.95C321.41 142.95 322.53 143.44 323.3 144.42C324 145.4 324.42 146.73 324.42 148.41Z" fill="white"/>
<rect x="365.5" y="89.5" width="91.25" height="89" stroke="white"/>
<path d="M420.26 105.31L422.78 106.5L392.82 166.56L390.3 165.37L420.26 105.31Z" fill="white"/>
<rect x="456.75" y="89.5" width="91.25" height="89" stroke="white"/>
<path d="M509.13 143.11C508.71 144.37 507.94 145.42 506.89 146.12C505.77 146.89 504.58 147.24 503.25 147.24C500.8 147.24 498.91 146.61 497.51 145.21C496.11 143.88 495.48 142.06 495.48 139.75C495.48 137.58 495.97 135.62 497.02 133.8C498.07 132.05 500.24 129.95 503.53 127.5C506.19 125.54 507.94 124 508.78 122.74C509.55 121.48 509.97 120.15 509.97 118.75C509.97 116.58 509.27 114.9 508.01 113.78C506.75 112.66 504.86 112.1 502.41 112.1C500.59 112.1 498.98 112.45 497.58 113.15C496.18 113.85 495.2 114.76 494.64 115.95C496.18 116.23 497.3 116.72 498.14 117.49C498.91 118.26 499.33 119.31 499.33 120.57C499.33 121.9 498.91 122.95 498.14 123.65C497.37 124.42 496.32 124.77 494.92 124.77C493.66 124.77 492.61 124.42 491.91 123.58C491.21 122.74 490.86 121.62 490.86 120.22C490.86 117.14 491.91 114.62 494.08 112.8C496.25 110.98 499.12 110 502.76 110C506.47 110 509.34 110.98 511.37 112.8C513.4 114.69 514.45 117.35 514.45 120.78C514.45 122.74 513.89 124.49 512.84 126.17C511.79 127.85 509.62 129.88 506.26 132.4C503.46 134.57 501.57 136.25 500.73 137.51C499.89 138.77 499.47 140.03 499.47 141.36C499.47 142.62 499.75 143.53 500.45 144.16C501.15 144.86 502.13 145.14 503.39 145.14C505.42 145.14 506.75 144.3 507.38 142.62C507.94 140.94 507.45 139.12 505.91 137.09L506.96 136.25C508.08 137.09 508.78 138.14 509.2 139.4C509.62 140.66 509.55 141.85 509.13 143.11ZM502.27 150.95C503.6 150.95 504.65 151.44 505.49 152.28C506.26 153.12 506.68 154.17 506.68 155.36C506.68 156.55 506.26 157.6 505.49 158.44C504.65 159.28 503.6 159.7 502.27 159.7C500.87 159.7 499.82 159.28 499.05 158.44C498.21 157.6 497.86 156.62 497.86 155.36C497.86 154.1 498.21 153.05 499.05 152.21C499.82 151.37 500.87 150.95 502.27 150.95Z" fill="white"/>
<rect x="548" y="89.5" width="91.25" height="89" stroke="white"/>
<path d="M601.75 166.4V168.5H586.35V98.5H601.75V100.6H591.95V166.4H601.75Z" fill="white"/>
<rect x="639.25" y="89.5" width="91.25" height="89" stroke="white"/>
<path d="M691.6 98.5V168.5H676.2V166.4H686V100.6H676.2V98.5H691.6Z" fill="white"/>
<rect x="0.5" y="178.5" width="91.25" height="89" stroke="white"/>
<path d="M49.07 251.48C49.35 253.44 50.05 254.91 51.17 255.82C52.22 256.73 53.69 257.15 55.65 257.15V258.2C52.29 258.2 49.56 257.71 47.46 256.73C45.36 255.75 43.89 254.21 43.05 252.18C42.42 250.78 42.07 249.1 42.07 247.07C42 245.11 42.28 241.89 42.98 237.55C43.4 234.61 43.68 232.44 43.75 231.11C43.82 229.85 43.82 228.66 43.68 227.68C43.4 225.86 42.7 224.46 41.58 223.62C40.46 222.78 38.85 222.29 36.75 222.29V220.89C38.78 220.89 40.39 220.54 41.51 219.7C42.63 218.86 43.33 217.6 43.61 215.85C43.75 215.01 43.82 213.89 43.75 212.63C43.61 211.37 43.33 209.27 42.91 206.4C42.14 202.2 41.79 199.05 41.86 197.09C41.93 195.13 42.28 193.52 42.98 192.12C43.82 190.23 45.36 188.83 47.46 187.92C49.56 187.01 52.29 186.52 55.65 186.52V187.92C53.62 187.92 52.08 188.41 50.96 189.25C49.84 190.09 49.07 191.42 48.79 193.24C48.58 194.22 48.51 195.34 48.51 196.6C48.51 197.93 48.65 200.03 49 202.9C49.28 206.4 49.42 208.92 49.42 210.53C49.42 212.21 49.21 213.61 48.93 214.73C48.37 216.83 47.32 218.37 45.92 219.49C44.52 220.61 42.63 221.31 40.25 221.59C42.7 221.94 44.66 222.71 46.13 223.97C47.53 225.23 48.58 226.91 49.14 229.15C49.42 230.48 49.63 232.02 49.7 233.7C49.7 235.45 49.56 238.11 49.28 241.75C49 244.69 48.86 246.79 48.86 248.05C48.86 249.38 48.93 250.5 49.07 251.48Z" fill="white"/>
<rect x="91.75" y="178.5" width="91.25" height="89" stroke="white"/>
<path d="M146.2 220.89V222.29C144.1 222.29 142.42 222.78 141.3 223.62C140.18 224.46 139.48 225.86 139.27 227.68C139.13 228.66 139.06 229.85 139.13 231.11C139.2 232.44 139.48 234.61 139.97 237.55C140.6 241.89 140.88 245.11 140.88 247.07C140.81 249.1 140.46 250.78 139.9 252.18C139.06 254.21 137.59 255.75 135.49 256.73C133.39 257.71 130.66 258.2 127.3 258.2V257.15C129.19 257.15 130.66 256.73 131.78 255.82C132.83 254.91 133.53 253.44 133.81 251.48C133.95 250.57 134.02 249.45 134.02 248.12C134.02 246.86 133.88 244.76 133.6 241.82C133.25 238.18 133.11 235.45 133.11 233.7C133.11 232.02 133.32 230.48 133.67 229.15C134.23 226.91 135.21 225.23 136.75 223.97C138.22 222.71 140.18 221.94 142.7 221.59C140.32 221.31 138.43 220.61 137.03 219.49C135.63 218.37 134.65 216.83 134.16 214.73C133.81 213.61 133.6 212.21 133.6 210.6C133.6 208.99 133.74 206.47 134.09 202.97C134.37 200.1 134.51 198 134.51 196.67C134.51 195.41 134.37 194.29 134.23 193.31C133.81 191.49 133.11 190.09 131.99 189.25C130.87 188.41 129.26 187.92 127.3 187.92V186.52C130.66 186.52 133.39 187.01 135.49 187.92C137.59 188.83 139.06 190.23 139.97 192.05C140.6 193.45 140.95 195.13 141.02 197.09C141.09 199.05 140.74 202.2 140.04 206.4C139.55 209.27 139.27 211.37 139.2 212.63C139.06 213.89 139.13 215.01 139.34 215.85C139.55 217.6 140.25 218.86 141.37 219.7C142.49 220.54 144.1 220.89 146.2 220.89Z" fill="white"/>
<rect x="183" y="178.5" width="91.25" height="89" stroke="white"/>
<path d="M241.69 217.18V219.49H229.93V230.97H227.41V219.49H215.65V217.18H227.41V205.63H229.93V217.18H241.69Z" fill="white"/>
<rect x="274.25" y="178.5" width="91.25" height="89" stroke="white"/>
<path d="M330.32 219.49H308.9V217.18H330.32V219.49Z" fill="white"/>
<rect x="365.5" y="178.5" width="91.25" height="89" stroke="white"/>
<path d="M424.26 207.12L396.54 248.7L393.88 246.95L420.27 207.33C420.41 207.12 420.48 206.91 420.62 206.7C420.76 206.56 420.83 206.35 420.97 206.14C418.31 206.77 415.72 206.98 413.34 206.77C410.96 206.63 408.79 206.07 406.9 205.09C407.32 206.07 407.6 207.05 407.81 208.17C408.02 209.29 408.16 210.41 408.16 211.67C408.16 215.45 407.18 218.46 405.36 220.77C403.47 223.15 401.02 224.27 398.08 224.27C395.21 224.27 392.55 223.08 390.17 220.56C387.79 218.04 386.6 215.1 386.6 211.67C386.6 208.31 387.79 205.3 390.17 202.78C392.55 200.26 395.21 199 398.08 199C399.27 199 400.39 199.21 401.44 199.63C402.49 200.05 403.47 200.61 404.31 201.38C406.55 203.13 409.21 204.18 412.29 204.53C415.37 204.88 418.66 204.53 422.16 203.48C422.44 202.64 422.72 201.94 423 201.38C423.21 200.89 423.35 200.54 423.49 200.4C423.77 199.91 424.19 199.56 424.61 199.35C425.03 199.14 425.59 199 426.29 199C426.99 199 427.62 199.28 428.18 199.77C428.74 200.26 429.02 200.75 429.02 201.31C429.02 202.15 428.81 202.85 428.39 203.48C427.97 204.18 427.13 204.95 425.87 205.79C425.31 206.21 424.96 206.49 424.75 206.63C424.54 206.77 424.4 206.98 424.26 207.12ZM398.92 201.24C396.89 201.24 395.35 202.15 394.3 203.97C393.18 205.79 392.69 208.38 392.69 211.67C392.69 215.03 393.18 217.55 394.3 219.37C395.42 221.19 396.96 222.03 398.99 222.03C400.95 222.03 402.56 221.12 403.68 219.3C404.8 217.48 405.36 214.96 405.36 211.67C405.36 208.45 404.8 205.86 403.68 204.04C402.56 202.22 400.95 201.24 398.92 201.24ZM425.59 223.43C428.53 223.43 430.98 224.62 432.87 227C434.69 229.38 435.67 232.39 435.67 236.1C435.67 239.88 434.69 242.89 432.87 245.2C430.98 247.58 428.53 248.7 425.59 248.7C422.72 248.7 420.06 247.51 417.68 244.99C415.3 242.47 414.11 239.53 414.11 236.1C414.11 232.74 415.3 229.73 417.68 227.21C420.06 224.69 422.72 223.43 425.59 223.43ZM426.43 225.67C424.4 225.67 422.86 226.58 421.81 228.4C420.69 230.22 420.2 232.81 420.2 236.1C420.2 239.46 420.69 242.05 421.81 243.8C422.86 245.62 424.4 246.46 426.5 246.46C428.46 246.46 430.07 245.55 431.19 243.73C432.31 241.91 432.87 239.39 432.87 236.1C432.87 232.88 432.31 230.29 431.19 228.47C430.07 226.65 428.46 225.67 426.43 225.67Z" fill="white"/>
<rect x="456.75" y="178.5" width="91.25" height="89" stroke="white"/>
<path d="M506.1 253.44C497.35 253.44 490.28 250.99 484.82 245.95C479.36 240.91 476.7 234.19 476.7 225.65C476.7 221.8 477.4 218.16 478.94 214.66C480.48 211.23 482.65 208.22 485.45 205.56C488.18 203.04 491.33 201.15 494.9 199.75C498.4 198.35 502.11 197.65 506.03 197.65C514.29 197.65 520.87 199.96 525.77 204.51C530.6 209.13 533.05 215.22 533.05 222.92C533.05 228.1 531.86 232.3 529.48 235.66C527.1 239.02 523.88 240.7 519.89 240.7C516.95 240.7 514.64 240.07 512.96 238.74C511.28 237.41 510.44 235.52 510.37 233.07C509.32 235.59 507.99 237.55 506.31 238.81C504.63 240.07 502.67 240.7 500.43 240.7C496.79 240.7 493.92 239.3 491.89 236.36C489.86 233.42 489.09 229.64 489.58 224.95C490.07 220.54 491.68 216.9 494.41 214.03C497.07 211.23 500.36 209.76 504.14 209.76C506.17 209.76 507.92 210.32 509.46 211.44C510.93 212.56 511.98 214.03 512.61 215.85L517.37 209.76H517.93L515.34 230.48C514.99 233.7 515.2 235.94 516.04 237.06C516.81 238.18 518.28 238.74 520.45 238.74C523.25 238.74 525.49 237.34 527.1 234.47C528.71 231.6 529.55 227.82 529.55 223.2C529.55 215.92 527.45 210.18 523.32 205.98C519.19 201.85 513.45 199.75 506.03 199.75C498.75 199.75 492.59 202.27 487.62 207.17C482.65 212.07 480.2 218.23 480.2 225.65C480.2 233.63 482.51 239.93 487.27 244.48C491.96 249.1 498.26 251.34 506.1 251.34C510.02 251.34 513.38 250.99 516.18 250.29C518.98 249.59 521.15 248.47 522.62 247.07L523.6 248.19C522.55 249.66 520.31 250.92 516.88 251.9C513.45 252.95 509.88 253.44 506.1 253.44ZM495.74 224.88C495.32 229.08 495.6 232.37 496.58 234.68C497.56 237.06 499.17 238.18 501.41 238.18C503.65 238.18 505.61 237.06 507.22 234.68C508.76 232.37 509.88 229.15 510.44 224.95C511 220.96 510.65 217.74 509.46 215.29C508.27 212.91 506.45 211.65 504 211.65C501.83 211.65 500.01 212.84 498.54 215.22C497.07 217.6 496.16 220.82 495.74 224.88Z" fill="white"/>
<rect x="548" y="178.5" width="91.25" height="89" stroke="white"/>
<path d="M593.76 209.41C595.09 209.41 596.14 209.9 596.98 210.74C597.75 211.58 598.17 212.63 598.17 213.82C598.17 215.01 597.75 216.06 596.98 216.9C596.14 217.74 595.09 218.16 593.76 218.16C592.36 218.16 591.31 217.74 590.54 216.9C589.7 216.06 589.35 215.08 589.35 213.82C589.35 212.56 589.7 211.51 590.54 210.67C591.31 209.83 592.36 209.41 593.76 209.41ZM593.76 231.95C595.09 231.95 596.14 232.44 596.98 233.28C597.75 234.12 598.17 235.17 598.17 236.36C598.17 237.55 597.75 238.6 596.98 239.44C596.14 240.28 595.09 240.7 593.76 240.7C592.36 240.7 591.31 240.28 590.54 239.44C589.7 238.6 589.35 237.62 589.35 236.36C589.35 235.1 589.7 234.05 590.54 233.21C591.31 232.37 592.36 231.95 593.76 231.95Z" fill="white"/>
<rect x="639.25" y="178.5" width="91.25" height="89" stroke="white"/>
<path d="M685.01 209.41C686.34 209.41 687.39 209.9 688.23 210.74C689 211.58 689.42 212.63 689.42 213.82C689.42 215.01 689 216.06 688.23 216.9C687.39 217.74 686.34 218.16 685.01 218.16C683.61 218.16 682.56 217.74 681.79 216.9C680.95 216.06 680.6 215.08 680.6 213.82C680.6 212.56 680.95 211.51 681.79 210.67C682.56 209.83 683.61 209.41 685.01 209.41ZM689.42 237.41C689.42 240.49 688.79 243.43 687.53 246.16C686.27 248.96 684.45 251.27 682.21 253.23L680.6 251.76C682.07 250.57 683.4 248.89 684.52 246.79C685.64 244.69 686.27 242.66 686.41 240.63C686.27 240.63 685.99 240.7 685.64 240.7C685.29 240.7 685.08 240.7 685.01 240.7C683.61 240.7 682.56 240.28 681.79 239.44C680.95 238.6 680.6 237.62 680.6 236.36C680.6 235.1 680.95 234.05 681.79 233.21C682.56 232.37 683.61 231.95 685.01 231.95C686.41 231.95 687.53 232.44 688.3 233.42C689 234.4 689.42 235.73 689.42 237.41Z" fill="white"/>
<rect x="0.5" y="267.5" width="91.25" height="89" stroke="white"/>
<path d="M41.85 292.25C41.85 289.45 42.34 287 43.32 284.97C44.3 283.01 45.77 281.33 47.87 280L49.27 281.68C47.8 282.66 46.75 283.78 46.05 284.97C45.35 286.23 45 287.56 44.86 289.03C45 289.03 45.21 289.03 45.56 289.03C45.91 289.03 46.12 288.96 46.26 288.96C47.59 288.96 48.64 289.38 49.48 290.22C50.25 291.06 50.67 292.11 50.67 293.3C50.67 294.56 50.25 295.61 49.48 296.45C48.64 297.29 47.59 297.71 46.26 297.71C44.79 297.71 43.67 297.29 42.97 296.31C42.2 295.33 41.85 294 41.85 292.25Z" fill="white"/>
<rect x="91.75" y="267.5" width="91.25" height="89" stroke="white"/>
<path d="M140.78 298.15C139.94 303.33 139.31 307.95 139.03 311.87C138.68 315.79 138.54 319.85 138.54 323.98H136.79C136.79 319.85 136.58 315.79 136.23 311.8C135.88 307.88 135.25 303.26 134.34 298.01C134.06 296.26 133.85 295.07 133.78 294.44C133.64 293.81 133.64 293.25 133.64 292.83C133.64 291.5 133.99 290.38 134.69 289.4C135.39 288.49 136.3 288 137.56 288C138.75 288 139.73 288.49 140.43 289.4C141.13 290.38 141.48 291.5 141.48 292.83C141.48 293.25 141.41 293.81 141.34 294.44C141.27 295.14 141.06 296.33 140.78 298.15ZM137.56 328.95C138.89 328.95 139.94 329.44 140.78 330.28C141.55 331.12 141.97 332.17 141.97 333.36C141.97 334.55 141.55 335.6 140.78 336.44C139.94 337.28 138.89 337.7 137.56 337.7C136.16 337.7 135.11 337.28 134.34 336.44C133.5 335.6 133.15 334.62 133.15 333.36C133.15 332.1 133.5 331.05 134.34 330.21C135.11 329.37 136.16 328.95 137.56 328.95Z" fill="white"/>
<rect x="183" y="267.5" width="91.25" height="89" stroke="white"/>
<path d="M238.79 302.75H240.47C240.47 306.74 239.77 309.54 238.51 311.08C237.25 312.62 235.15 313.39 232.28 313.39C230.74 313.39 229.2 313.11 227.8 312.48C226.4 311.85 224.51 310.52 222.27 308.56C220.59 307.16 219.4 306.25 218.63 305.83C217.79 305.41 217.02 305.2 216.32 305.2C214.57 305.2 213.31 305.83 212.47 307.09C211.63 308.35 211.28 310.24 211.28 312.83H209.6C209.6 309.19 210.23 306.53 211.63 304.78C212.96 303.1 215.06 302.19 217.86 302.19C219.4 302.19 220.87 302.54 222.27 303.17C223.67 303.8 225.56 305.06 227.8 306.95C229.41 308.42 230.67 309.33 231.51 309.75C232.35 310.17 233.12 310.38 233.96 310.38C235.57 310.38 236.76 309.75 237.6 308.49C238.37 307.23 238.79 305.34 238.79 302.75Z" fill="white"/>
<rect x="274.25" y="267.5" width="91.25" height="89" stroke="white"/>
<path d="M333.72 337.7C331.48 337.7 329.59 337.28 327.91 336.37C326.23 335.53 324.27 333.85 322.17 331.47C320.21 333.64 318.18 335.18 316.22 336.09C314.26 337.07 311.74 337.49 308.73 337.49C304.67 337.49 301.45 336.37 299.07 334.06C296.69 331.82 295.5 328.81 295.5 325.03C295.5 321.95 296.34 319.29 298.09 316.98C299.84 314.67 302.5 312.64 306.07 310.89C304.32 308.37 303.13 306.27 302.5 304.52C301.8 302.84 301.52 300.88 301.52 298.78C301.52 295.56 302.5 292.97 304.6 291.01C306.7 289.05 309.43 288.07 312.86 288.07C316.01 288.07 318.6 288.98 320.56 290.66C322.52 292.41 323.57 294.72 323.57 297.52C323.57 299.69 322.73 301.72 321.12 303.61C319.44 305.57 316.71 307.6 312.93 309.7C313.49 310.54 314.75 312.15 316.78 314.6C318.74 317.12 321.47 320.41 324.97 324.61C326.51 322.86 328.26 320.34 330.08 317.12C331.9 313.9 333.3 310.82 334.28 308.02H328.47V305.92H341.77V308.02H337.01C335.4 311.52 333.65 314.88 331.83 318.03C330.01 321.25 328.19 323.98 326.51 326.29C328.82 329.51 330.64 331.61 332.04 332.73C333.37 333.85 334.7 334.41 336.1 334.41C337.71 334.41 338.97 333.43 339.88 331.47C340.79 329.51 341.28 326.99 341.28 323.91H343.17C343.17 328.6 342.33 332.1 340.79 334.34C339.18 336.58 336.8 337.7 333.72 337.7ZM312.93 290.17C310.97 290.17 309.36 290.73 308.1 291.85C306.84 292.97 306.28 294.37 306.28 296.19C306.28 298.01 306.63 299.83 307.47 301.58C308.24 303.33 309.71 305.57 311.81 308.3C314.05 307.04 315.8 305.5 316.92 303.68C318.04 301.86 318.67 299.83 318.67 297.52C318.67 295.14 318.18 293.32 317.2 292.06C316.22 290.8 314.82 290.17 312.93 290.17ZM301.17 322.86C301.17 326.36 302.08 329.02 303.9 330.84C305.72 332.73 308.38 333.64 311.81 333.64C313.63 333.64 315.24 333.36 316.78 332.66C318.32 332.03 319.58 331.05 320.7 329.72C319.86 328.67 318.95 327.55 318.11 326.43C317.2 325.31 315.94 323.77 314.4 321.74C312.16 318.87 310.55 316.84 309.64 315.65C308.73 314.53 307.96 313.48 307.33 312.57C305.16 313.76 303.62 315.16 302.64 316.84C301.66 318.52 301.17 320.48 301.17 322.86Z" fill="white"/>
<rect x="365.5" y="267.5" width="91.25" height="89" stroke="white"/>
<path d="M416.53 339.64C417.09 340.34 417.65 340.97 418.35 341.53C419.05 342.09 420.87 343.42 423.81 345.45L422.76 347.2C416.74 344.54 411.77 339.99 407.85 333.55C403.86 327.11 401.9 320.32 401.9 313.18C401.9 305.62 403.93 298.06 408.13 290.5C412.33 282.94 417.16 277.97 422.76 275.52L423.81 277.27C420.59 279.16 418 281.33 416.11 283.85C414.22 286.37 412.68 289.45 411.56 292.95C410.65 295.75 409.95 298.76 409.53 302.12C409.11 305.48 408.9 309.19 408.9 313.18C408.9 314.93 408.9 316.61 409.04 318.15C409.11 319.69 409.25 321.23 409.53 322.63C409.74 324.31 410.02 325.92 410.37 327.39C410.72 328.93 411.14 330.33 411.7 331.66C412.26 333.2 412.96 334.67 413.8 336C414.57 337.33 415.48 338.52 416.53 339.64Z" fill="white"/>
<rect x="456.75" y="267.5" width="91.25" height="89" stroke="white"/>
<path d="M510.51 312.06C510.51 319.2 508.48 326.13 504.49 332.78C500.43 339.5 495.53 344.26 489.65 347.2L488.6 345.45C491.68 343.35 493.78 341.67 494.9 340.55C496.02 339.43 497 338.24 497.91 336.84C498.89 335.23 499.8 333.41 500.57 331.45C501.27 329.49 501.9 327.25 502.39 324.87C502.74 322.98 503.02 320.95 503.23 318.85C503.37 316.75 503.51 314.44 503.51 312.06C503.51 308.14 503.3 304.57 502.88 301.28C502.46 298.06 501.76 295.05 500.85 292.39C499.73 289.31 498.33 286.58 496.65 284.27C494.9 282.03 492.24 279.65 488.6 277.27L489.65 275.52C495.25 278.04 500.15 282.87 504.28 290.08C508.41 297.29 510.51 304.64 510.51 312.06Z" fill="white"/>
<rect x="548" y="267.5" width="91.25" height="89" stroke="white"/>
<rect x="639.25" y="267.5" width="91.25" height="89" stroke="white"/>
</svg>
