<svg width="502" height="544" viewBox="0 0 502 544" fill="none" xmlns="http://www.w3.org/2000/svg">
<circle cx="251" cy="293" r="251" fill="#EB6502"/>
<path d="M422.617 31.2117C420.537 30.5181 418.456 29.8245 417.068 29.1309C415.681 29.1309 413.6 28.4373 411.519 28.4373C396.259 28.4373 384.467 34.6797 374.756 46.4708C365.044 58.9555 356.027 85.312 346.316 125.54C335.911 167.85 325.506 196.981 315.102 212.24C304.697 228.192 291.517 238.596 275.563 243.451C304.697 254.549 326.894 263.565 341.46 271.195C356.027 278.825 367.819 286.454 376.837 294.777C385.854 303.794 393.484 314.891 399.727 327.376C405.276 340.554 412.906 364.137 422.617 397.429C430.941 428.641 437.184 446.674 441.346 452.223C444.814 457.772 449.67 459.852 455.913 459.852C462.849 459.852 467.705 453.61 471.173 439.738C474.641 426.56 476.722 406.446 476.722 378.702H501C501 424.479 494.757 456.384 482.271 473.031C469.786 489.677 448.976 498 421.23 498C395.565 498 374.756 491.064 359.495 476.499C344.235 462.627 330.362 436.27 319.263 397.429C319.263 397.429 315.795 386.332 309.552 364.137C303.31 341.942 297.76 325.295 292.905 312.811C284.581 293.39 275.563 279.518 265.852 270.501C256.141 262.178 244.349 257.323 231.17 257.323H212.441V462.627H264.465V488.29H64V462.627H116.717V35.3733H64V9.71031H262.384V35.3733H212.441V230.967H240.881C257.529 230.967 271.402 224.724 282.5 211.546C292.905 198.368 303.31 169.93 314.408 126.234C319.957 101.958 325.506 83.9248 329.668 72.1337C333.83 61.0362 337.992 50.6323 342.848 42.3092C351.171 28.4373 360.883 17.3399 372.675 10.4039C384.467 3.46796 398.34 0 414.987 0C435.103 0 451.751 6.24234 464.237 18.0334C476.722 30.5181 483.659 47.1644 483.659 67.9722C483.659 87.3928 478.803 101.958 469.786 112.362C460.075 122.766 446.895 127.621 430.248 127.621C414.987 127.621 402.502 123.46 392.791 115.136C383.079 106.813 378.224 95.7159 378.224 81.844C378.224 68.6658 381.692 57.5682 390.016 47.8579C398.34 38.8413 408.744 33.2925 422.617 31.2117Z" fill="#FCC945"/>
<mask id="mask0_3001_170" style="mask-type:alpha" maskUnits="userSpaceOnUse" x="64" y="0" width="437" height="498">
<path d="M422.617 31.2117C420.537 30.5181 418.456 29.8245 417.068 29.1309C415.681 29.1309 413.6 28.4373 411.519 28.4373C396.259 28.4373 384.467 34.6797 374.756 46.4708C365.044 58.9555 356.027 85.312 346.316 125.54C335.911 167.85 325.506 196.981 315.102 212.24C304.697 228.192 291.517 238.596 275.563 243.451C304.697 254.549 326.894 263.565 341.46 271.195C356.027 278.825 367.819 286.454 376.837 294.777C385.854 303.794 393.484 314.891 399.727 327.376C405.276 340.554 412.906 364.137 422.617 397.429C430.941 428.641 437.184 446.674 441.346 452.223C444.814 457.772 449.67 459.852 455.913 459.852C462.849 459.852 467.705 453.61 471.173 439.738C474.641 426.56 476.722 406.446 476.722 378.702H501C501 424.479 494.757 456.384 482.271 473.031C469.786 489.677 448.976 498 421.23 498C395.565 498 374.756 491.064 359.495 476.499C344.235 462.627 330.362 436.27 319.263 397.429C319.263 397.429 315.795 386.332 309.552 364.137C303.31 341.942 297.76 325.295 292.905 312.811C284.581 293.39 275.563 279.518 265.852 270.501C256.141 262.178 244.349 257.323 231.17 257.323H212.441V462.627H264.465V488.29H64V462.627H116.717V35.3733H64V9.71031H262.384V35.3733H212.441V230.967H240.881C257.529 230.967 271.402 224.724 282.5 211.546C292.905 198.368 303.31 169.93 314.408 126.234C319.957 101.958 325.506 83.9248 329.668 72.1337C333.83 61.0362 337.992 50.6323 342.848 42.3092C351.171 28.4373 360.883 17.3399 372.675 10.4039C384.467 3.46796 398.34 0 414.987 0C435.103 0 451.751 6.24234 464.237 18.0334C476.722 30.5181 483.659 47.1644 483.659 67.9722C483.659 87.3928 478.803 101.958 469.786 112.362C460.075 122.766 446.895 127.621 430.248 127.621C414.987 127.621 402.502 123.46 392.791 115.136C383.079 106.813 378.224 95.7159 378.224 81.844C378.224 68.6658 381.692 57.5682 390.016 47.8579C398.34 38.8413 408.744 33.2925 422.617 31.2117Z" fill="#FCC945"/>
</mask>
<g mask="url(#mask0_3001_170)">
<circle cx="250" cy="292" r="251" fill="white"/>
</g>
</svg>
