<svg width="502" height="589" viewBox="0 0 502 589" fill="none" xmlns="http://www.w3.org/2000/svg">
<path d="M258 0.5C307.131 0.5 346.494 11.699 376.04 34.1475C405.596 56.6037 421.09 86.8012 421.09 124.699C421.09 143.672 415.452 162.629 404.2 181.562C392.955 201.185 374.701 222.882 349.465 247.35C345.257 252.244 339.653 258.531 331.954 266.906L331.947 266.915L331.939 266.922C323.526 275.312 308.801 289.297 287.081 310.258C257.65 339.607 235.225 361.968 220.509 376.644C206.157 391.637 193.814 404.629 184.12 415.625H316.168C332.272 415.625 345.732 414.752 356.381 412.924C367.042 411.094 374.827 408.316 379.634 404.55L379.644 404.543L379.652 404.536C389.28 397.678 395.568 382.496 398.368 360.153L401.873 331.502L401.927 331.062H429.56L429.497 331.618L411.275 493.056L411.226 493.5H92.8076V459.247L92.9541 459.101C97.1605 454.906 135.715 417.857 208.593 346.58L208.595 346.578C245.035 311.288 273.589 282.814 294.345 261.242C312.068 242.823 324.086 229.454 330.479 221.178C319.98 230.115 307.789 236.847 293.912 241.879C278.421 247.496 260.837 249.597 242.582 249.597C199.045 249.597 162.491 238.391 132.254 214.554L130.814 213.463C100.835 190.453 86.5001 160.629 86.5 124.699C86.5 88.1824 102.709 57.9854 135.065 34.8379L135.071 34.833C167.409 12.4003 208.862 0.5 258 0.5ZM253.795 28.0566C232.944 28.0567 216.972 37.0539 205.146 53.7041C193.314 70.3613 187.017 94.7056 187.017 125.397V125.409C186.328 155.626 191.744 179.673 203.854 196.294L204.437 197.08L204.443 197.09L204.45 197.099C216.263 214.422 232.921 222.738 255.196 222.738C275.353 222.738 291.319 214.435 303.141 197.099C314.278 180.436 320.574 156.086 320.574 125.397C320.574 94.7161 314.281 71.0662 302.444 53.7041C289.912 37.0463 273.936 28.0566 253.795 28.0566Z" fill="#151515" stroke="white"/>
<circle cx="251" cy="338" r="251" fill="#FF0000"/>
<mask id="mask0_3001_171" style="mask-type:alpha" maskUnits="userSpaceOnUse" x="87" y="1" width="342" height="492">
<path d="M410.779 493H93.3074V459.455C97.5123 455.261 136.057 418.222 208.943 346.938C281.828 276.352 323.176 233.023 333.689 217.648C322.475 228.131 309.16 235.818 293.742 241.409C278.324 247 260.803 249.097 242.582 249.097C199.131 249.097 162.689 237.915 132.553 214.153C101.717 191.091 87 161.04 87 124.699C87 88.3579 103.119 58.3068 135.357 35.2443C167.594 12.8807 208.943 1 258 1C307.057 1 346.303 12.1818 375.738 34.5455C405.172 56.9091 420.59 86.9602 420.59 124.699C420.59 143.568 414.984 162.438 403.77 181.307C392.557 200.875 374.336 222.54 349.107 247C344.902 251.892 339.295 258.182 331.586 266.568C323.176 274.955 308.459 288.932 286.734 309.898C257.299 339.25 234.873 361.614 220.156 376.29C205.439 391.665 192.824 404.943 183.012 416.125H316.168C348.406 416.125 370.131 412.631 379.943 404.943C389.754 397.955 396.061 382.58 398.865 360.216L402.369 331.562H429L410.779 493ZM253.795 27.5568C232.77 27.5568 216.652 36.642 204.738 53.4148C192.824 70.1875 186.516 94.6477 186.516 125.398C185.816 156.148 191.422 180.608 204.037 197.381C215.951 214.852 232.77 223.239 255.197 223.239C275.52 223.239 291.639 214.852 303.553 197.381C314.766 180.608 321.074 156.148 321.074 125.398C321.074 94.6477 314.766 70.8864 302.852 53.4148C290.238 36.642 274.119 27.5568 253.795 27.5568Z" fill="white"/>
</mask>
<g mask="url(#mask0_3001_171)">
<circle cx="253" cy="337" r="251" fill="white"/>
</g>
</svg>
