<svg width="423" height="910" viewBox="0 0 423 910" fill="none" xmlns="http://www.w3.org/2000/svg">
<path d="M328.006 92.9199C334.795 131.242 325.041 164.356 299.143 194.518C273.246 224.68 236.997 243.889 190.397 252.144C148.457 259.574 115.205 255.002 88.3111 238.842C61.4171 222.681 46.1401 197.488 39.9506 162.548C33.3617 125.353 41.7511 91.3178 67.6486 61.1556C93.546 30.9935 129.795 11.7849 177.56 3.3235C218.335 -3.89969 251.587 0.672096 278.481 16.8325C305.375 32.9929 322.016 59.1067 328.006 92.9199ZM307.167 904.532C236.102 917.121 182.813 907.962 148.463 876.847C112.949 845.939 93.6458 791.235 89.3887 712.941L72.8933 389.207L2.99321 401.59L2.75534e-05 343.996C66.4051 332.233 124.455 320.787 172.986 309.865C221.517 298.943 259.163 287.624 284.96 277.242L332.192 279.337L355.238 755.357C355.703 771.549 358.865 782.614 362.393 788.964C365.921 795.314 370.98 796.742 377.97 795.504C386.125 794.059 391.718 784.931 395.713 766.787C399.907 749.769 400.175 724.147 399.045 690.635L465.45 678.872C466.578 753.07 455.758 807.299 431.425 839.509C406.126 873.052 365.417 894.213 307.167 904.532Z" fill="#0077FF"/>
</svg>
