<svg width="748" height="572" viewBox="0 0 748 572" fill="none" xmlns="http://www.w3.org/2000/svg">
<path d="M509.626 130.774L509.706 131.339L515.792 173.506L515.855 173.94L448.71 192.813L456.607 239.64C458.588 234.897 461.685 230.799 465.734 227.391L466.177 227.024C470.703 223.209 476.717 220.258 483.735 218.285C499.648 213.812 514.016 215.334 526.323 223.033C538.607 230.717 546.917 242.3 551.128 257.279C555.471 272.734 554.006 287.315 546.959 300.928L546.956 300.934C539.665 314.632 527.802 323.778 510.957 328.513C496.712 332.516 484.745 332.353 474.806 327.769L474.806 327.768C464.921 323.411 458.572 315.261 455.405 303.993C453.942 298.788 454.153 294.079 456.329 289.84C458.508 285.598 462.123 282.78 467.351 281.311C472.123 279.97 476.443 280.564 480.208 282.879C483.96 285.187 486.473 288.621 487.745 293.147C489.09 297.933 488.319 302.562 485.527 306.459L485.528 306.459C482.712 310.45 478.659 313.364 473.339 315.005C476.282 318.554 480.314 320.792 485.708 321.828L486.263 321.929L486.28 321.933C492.304 323.197 498.819 322.612 506.207 320.535C516.208 317.724 522.598 312.223 525.622 303.772L525.903 302.944C528.647 294.277 527.903 281.824 523.34 265.591C519.171 250.758 513.451 240.205 506.363 234.302C499.309 228.426 490.541 226.939 480.446 229.776C473.562 231.711 467.906 235.281 463.913 240.342C459.919 245.403 457.738 251.682 457.773 258.835L457.774 259.216L450.597 261.233L450.506 260.683L435.961 173.255L435.888 172.812L488.603 157.995C494.152 156.435 498.159 154.306 500.192 151.349C502.217 148.401 502.691 143.921 501.925 137.642L501.282 133.578L501.212 133.139L509.626 130.774Z" fill="#151515" stroke="white"/>
<path d="M374.676 184.017L379.651 183.872L380.223 183.856L380.163 184.426C379.893 186.944 380.066 191.102 381.163 196.782L381.165 196.792L381.167 196.802C382.033 202.546 383.493 208.631 385.188 214.662L420.91 341.754L449.957 333.59L452.382 342.22L367.301 366.134L364.876 357.504L395.084 349.013L356.95 213.341L326.742 221.832L324.381 213.433L324.862 213.297C339.958 209.054 351.494 204.809 359.145 200.171C366.812 195.523 371.997 190.349 374.222 184.343L374.339 184.027L374.676 184.017Z" fill="#151515" stroke="#0077FF"/>
<path d="M251.397 221.909C260.327 219.4 269.282 219.674 278.248 222.728C286.927 225.684 295.046 230.927 302.877 238.586L303.634 239.335L303.639 239.339C310.004 245.86 315.933 253.512 320.891 262.193C325.842 270.86 329.867 279.801 332.363 288.68C334.924 297.791 336.146 307.521 336.436 317.499C336.726 327.491 335.653 337.111 333.617 345.994L333.617 345.995C331.001 357.318 326.722 366.36 320.664 373.633C314.602 380.911 307.101 385.811 298.171 388.321C289.242 390.831 280.287 390.556 271.32 387.502C262.371 384.454 253.776 379.037 245.872 370.668L245.256 370.058C238.898 363.726 233.18 356.272 228.312 347.636L228.312 347.635C223.358 338.961 219.567 329.956 217.074 321.085C214.58 312.214 213.124 302.551 212.834 292.565C212.544 282.572 213.617 272.948 215.889 263.993C218.34 252.963 222.854 243.862 228.905 236.597C234.967 229.319 242.468 224.419 251.397 221.909ZM253.758 230.308C248.146 231.885 243.811 234.585 240.741 238.353C237.671 242.123 235.838 246.997 235.288 252.968L235.287 252.976C233.953 265.031 237.32 285.052 245.224 313.173C253.062 341.059 260.686 360.138 268.172 369.967C271.902 374.864 276.082 378.112 280.677 379.759C285.269 381.405 290.317 381.466 295.811 379.922C301.308 378.377 305.601 375.751 308.678 372.011C311.757 368.271 313.649 363.38 314.281 357.257C315.383 345.259 312.18 324.934 304.214 296.592C296.378 268.714 288.586 249.924 281.326 240.024L281.325 240.023C277.631 235.248 273.469 232.06 268.885 230.443C264.3 228.825 259.251 228.764 253.758 230.308Z" fill="#151515" stroke="#0077FF"/>
<path d="M126.468 257.026C140.73 253.017 153.515 253.462 164.794 258.406L164.8 258.408L164.8 258.409C175.855 263.424 183.346 271.995 186.782 284.22C188.312 289.662 188.245 295.783 186.778 302.269C185.315 308.743 182.147 317.181 177.394 327.049C175.912 330.741 173.698 335.386 171.159 340.607C168.675 346.082 163.855 355.716 156.873 369.203L156.872 369.204C151.661 379.189 147.849 387.025 145.14 392.551C142.626 397.677 140.252 402.554 137.97 406.99L179.388 395.348C185.534 393.62 190.42 391.933 194.078 390.253C197.751 388.566 200.122 386.913 201.311 385.284C203.721 381.984 204.406 376.461 203.119 368.329L200.987 355.389L200.914 354.947L209.553 352.518L209.642 353.073L218.427 407.519L218.498 407.959L119.526 435.778L116.79 426.043L116.882 425.867C138.077 385.308 151.548 359.211 157.298 347.571C161.606 338.534 164.806 331.04 166.911 325.087C164.907 328.075 162.419 330.766 159.551 332.969C155.197 336.481 150.05 338.941 144.421 340.523C130.85 344.337 117.838 343.953 105.806 338.98C93.757 333.999 86.0216 325.496 82.6468 313.49C79.2689 301.472 81.6821 290.108 90.379 279.548C99.0504 269.02 111.045 261.361 126.468 257.026ZM125.576 266.338C117.821 268.518 112.748 273.132 109.793 280.108C106.897 287.33 106.618 296.062 109.468 306.202L109.471 306.212C112.075 316.334 116.435 323.559 122.302 328.013L122.875 328.435L122.883 328.44C129.082 333.067 136.205 334.021 144.449 331.704C151.983 329.587 157.343 325.134 160.229 317.943C163.125 310.728 163.179 302.061 160.325 291.907C157.476 281.771 152.755 274.693 146.52 270.037C140.063 265.453 133.096 264.225 125.576 266.338Z" fill="#151515" stroke="white"/>
<circle cx="322.432" cy="284.775" r="205" transform="rotate(21.1959 322.432 284.775)" fill="white"/>
<mask id="mask0_1640_205" style="mask-type:alpha" maskUnits="userSpaceOnUse" x="81" y="131" width="473" height="305">
<path d="M550.646 257.414C554.957 272.751 553.502 287.2 546.515 300.698C539.295 314.261 527.552 323.328 510.821 328.031C496.646 332.015 484.81 331.832 475.016 327.314C465.286 323.028 459.021 315.01 455.886 303.857C454.449 298.744 454.668 294.17 456.774 290.067C458.881 285.965 462.374 283.228 467.486 281.791C472.133 280.485 476.308 281.067 479.946 283.304C483.584 285.541 486.023 288.867 487.264 293.282C488.57 297.929 487.821 302.402 485.12 306.17C482.251 310.236 478.06 313.169 472.484 314.737C475.649 318.862 480.114 321.367 486.177 322.421C492.305 323.708 498.906 323.106 506.342 321.016C516.799 318.077 523.422 312.203 526.379 303.098C529.169 294.291 528.394 281.721 523.822 265.455C519.642 250.583 513.885 239.916 506.683 233.917C499.481 227.918 490.535 226.42 480.311 229.294C473.339 231.254 467.588 234.876 463.521 240.031C459.454 245.186 457.238 251.575 457.273 258.837L450.999 260.6L436.454 173.172L488.738 158.476C494.315 156.909 498.469 154.738 500.604 151.631C502.739 148.523 503.19 143.883 502.422 137.58L501.776 133.499L509.212 131.409L515.297 173.577L448.142 192.452L456.419 241.526C458.366 235.964 461.801 231.237 466.493 227.411C470.952 223.651 476.899 220.725 483.87 218.766C499.672 214.325 513.889 215.844 526.058 223.456C538.226 231.068 546.466 242.542 550.646 257.414Z" fill="white"/>
<path d="M449.607 334.204L451.762 341.873L367.644 365.516L365.488 357.848L395.697 349.357L357.292 212.723L327.084 221.213L324.994 213.777C340.098 209.532 351.688 205.272 359.4 200.597C367.112 195.922 372.406 190.672 374.687 184.515L379.661 184.371C379.385 186.956 379.566 191.167 380.669 196.875C381.539 202.648 383.005 208.755 384.703 214.796L420.56 342.369L449.607 334.204Z" fill="#0077FF"/>
<path d="M303.281 239.688C309.619 246.181 315.521 253.799 320.457 262.44C325.394 271.082 329.4 279.985 331.882 288.815C334.43 297.878 335.648 307.565 335.937 317.513C336.226 327.461 335.157 337.038 333.129 345.882C330.528 357.144 326.279 366.111 320.28 373.313C314.281 380.515 306.866 385.357 298.036 387.839C289.206 390.321 280.354 390.051 271.481 387.029C262.609 384.007 254.078 378.632 246.222 370.309C239.652 363.882 233.75 356.264 228.748 347.39C223.812 338.748 220.037 329.78 217.555 320.95C215.073 312.12 213.623 302.498 213.334 292.55C213.045 282.602 214.114 273.025 216.374 264.115C218.808 253.151 223.29 244.119 229.289 236.917C235.288 229.714 242.702 224.872 251.532 222.39C260.362 219.908 269.214 220.179 278.087 223.201C286.96 226.223 295.258 231.663 303.281 239.688ZM253.622 229.826C242.236 233.027 235.903 240.824 234.79 252.921C233.445 265.084 236.84 285.191 244.743 313.308C252.58 341.193 260.224 360.356 267.774 370.269C275.324 380.182 284.792 383.538 295.946 380.403C307.1 377.268 313.498 369.703 314.778 357.308C315.891 345.211 312.663 324.806 304.695 296.457C296.857 268.572 289.047 249.706 281.729 239.728C274.244 230.047 264.776 226.691 253.622 229.826Z" fill="#0077FF"/>
<path d="M217.929 407.598L119.868 435.16L117.321 426.098C138.516 385.54 151.99 359.437 157.743 347.791C163.263 336.21 166.983 327.142 168.901 320.585C166.692 325.217 163.359 329.414 159.234 332.579C154.942 336.042 149.859 338.474 144.282 340.041C130.804 343.829 117.908 343.443 105.993 338.517C94.0781 333.592 86.4551 325.204 83.1241 313.353C79.7931 301.502 82.1621 290.306 90.7611 279.866C99.3602 269.425 111.263 261.817 126.599 257.507C140.774 253.522 153.438 253.975 164.59 258.863C175.51 263.817 182.901 272.271 186.297 284.354C187.799 289.699 187.74 295.733 186.287 302.159C184.834 308.585 181.681 316.993 176.931 326.853C175.456 330.527 173.248 335.159 170.705 340.387C168.228 345.847 163.413 355.475 156.425 368.972C151.21 378.963 147.396 386.805 144.687 392.33C141.978 397.855 139.435 403.083 136.995 407.781L179.519 395.828C191.835 392.367 199.176 389.049 201.711 385.579C204.246 382.108 204.9 376.408 203.609 368.247L201.476 355.307L209.145 353.151L217.929 407.598ZM125.436 265.857C117.535 268.078 112.343 272.797 109.328 279.912C106.379 287.26 106.109 296.112 108.983 306.336C111.689 316.858 116.299 324.338 122.579 328.841C128.925 333.576 136.215 334.536 144.581 332.185C152.249 330.029 157.739 325.477 160.688 318.129C163.638 310.781 163.675 301.995 160.802 291.771C157.928 281.547 153.151 274.364 146.805 269.629C140.227 264.959 133.104 263.701 125.436 265.857Z" fill="white"/>
</mask>
<g mask="url(#mask0_1640_205)">
<circle cx="322.432" cy="284.776" r="205" transform="rotate(21.1959 322.432 284.776)" fill="#0077FF"/>
</g>
<path d="M625.297 291.085L626.525 295.414L593.188 304.865L591.961 300.535L597.156 299.062L587.092 263.561L581.897 265.034L580.67 260.705L622.232 248.923L627.141 266.24L622.812 267.468L622.419 266.082C621.388 262.445 619.65 259.945 617.329 258.357C614.922 256.795 612.116 256.468 608.913 257.376L606.575 258.039L616.639 293.54L625.297 291.085ZM650.621 239.004C657.808 236.967 664.532 237.586 670.657 240.714C676.807 243.929 680.963 249.018 682.926 255.945C684.841 262.699 683.925 269.039 680.328 274.83C676.669 280.732 671.222 284.615 664.121 286.627C656.848 288.689 650.149 288.156 643.999 284.942C637.873 281.814 633.804 276.699 631.816 269.686C629.902 262.932 630.755 256.703 634.414 250.801C638.011 245.011 643.434 241.041 650.621 239.004ZM651.971 243.766C649.979 244.331 649.011 246.196 648.931 249.212C648.851 252.228 649.792 257.2 651.731 264.04C653.744 271.14 655.601 276.04 657.301 278.738C659.002 281.437 660.78 282.43 662.771 281.865C664.676 281.325 665.756 279.522 665.836 276.506C665.916 273.49 664.975 268.518 663.011 261.591C660.998 254.491 659.166 249.678 657.466 246.979C655.765 244.281 653.876 243.226 651.971 243.766ZM716.102 265.344L706.038 229.842L697.119 232.371C698.418 238.27 699.397 243.044 700.032 246.606C700.668 250.168 701.069 253.234 701.41 255.757C701.799 259.108 701.843 261.902 701.653 264.201C701.462 266.5 700.952 268.329 700.17 269.86L716.102 265.344ZM725.52 224.32L735.584 259.821L742.511 257.857L747.789 276.473L743.459 277.701L743.017 276.142C741.888 272.159 739.879 269.361 737.076 267.723C734.187 266.11 730.75 265.868 726.681 267.022L706.159 272.839C702.176 273.969 699.551 275.929 698.149 278.571C696.771 281.301 696.727 284.774 697.905 288.931L698.347 290.489L694.018 291.717L688.74 273.1L692.637 271.996C694.048 271.034 695.065 269.343 695.602 266.945C696.138 264.548 696.256 261.334 695.906 257.13C695.738 254.558 695.288 251.319 694.69 247.559C694.005 243.824 693.186 239.286 692.097 233.794L686.209 235.464L684.982 231.134L729.488 218.517L730.716 222.847L725.52 224.32Z" fill="white"/>
</svg>
