<svg width="1440" height="315" viewBox="0 0 1440 315" fill="none" xmlns="http://www.w3.org/2000/svg">
<g clip-path="url(#clip0_3001_180)">
<path d="M488.608 395.497C460.046 401.412 436.315 399.078 417.967 387.654C399.067 377.073 384.85 357.546 376.019 328.93C374.114 358.32 364.498 382.057 346.767 401.675C329.034 421.294 304.002 433.726 273.35 440.074C240.608 446.854 213.25 444.545 191.274 433.15C168.602 421.898 155.084 402.228 149.327 374.426C142.994 343.844 150.351 316.225 173.08 292.67C195.81 269.118 234.321 248.096 288.323 228.214L337.043 210.877L326.535 160.138C320.778 132.336 310.19 112.783 295.469 101.335C280.051 90.0303 260.499 86.8304 236.117 91.8796C225.668 94.0436 216.201 97.454 207.024 102.254C197.848 107.053 191.457 111.276 187.997 115.617C204.474 118.004 217.205 123.341 226.041 130.934C234.879 138.527 240.809 149.622 243.687 163.523C247.43 181.594 244.736 196.649 236.301 208.544C228.011 221.133 215.085 228.884 196.973 232.635C177.468 236.674 161.831 234.838 148.526 226.721C135.364 219.298 127.609 206.407 123.867 188.336C117.534 157.753 128.231 128.718 157.639 102.333C187.047 75.9467 226.133 57.7044 275.595 47.4617C323.661 37.5079 363.295 39.4483 394.492 53.2838C424.995 67.2632 444.684 92.1801 451.881 126.932L491.031 315.986C493.046 325.716 496.024 333.074 499.817 337.362C503.612 341.65 508.919 342.726 515.886 341.283C524.246 339.552 530.061 332.548 532.345 319.027C533.935 305.652 533.124 287.699 528.374 264.761L558.328 258.558C566.964 300.262 565.491 331.736 554.604 352.836C543.163 374.776 521.35 388.717 488.608 395.497ZM272.923 329.26C275.945 343.855 280.892 353.704 287.903 359.5C294.917 365.296 303.995 367.041 315.839 364.588C331.861 361.27 342.818 351.027 348.706 333.861C353.899 316.839 354.027 292.894 347.981 263.7L343.232 240.764L320.001 251.373C299.412 260.711 285.67 271.53 277.933 283.281C270.338 295.727 269.18 311.188 272.923 329.26Z" fill="#046E00"/>
</g>
<circle cx="565" cy="174" r="20" fill="white"/>
<rect x="1462.98" y="9.41235" width="1" height="1503.93" transform="rotate(78.3443 1462.98 9.41235)" fill="white"/>
<defs>
<clipPath id="clip0_3001_180">
<rect width="424" height="203.209" fill="white" transform="translate(89.5938 85.9797) rotate(-11.6997)"/>
</clipPath>
</defs>
</svg>
