<svg width="1282" height="355" viewBox="0 0 1282 355" fill="none" xmlns="http://www.w3.org/2000/svg">
<path d="M287.111 50.0486C324.07 50.0486 354.101 63.9679 376.633 91.2751L377.701 92.5857L377.707 92.5935C399.454 120.864 408.342 155.546 403.88 197.122L403.658 199.106C398.696 242.103 382.704 276.865 355.661 303.356L355.657 303.359C328.065 329.847 295.491 343.098 257.411 343.098C220.971 343.098 191.68 329.839 169.031 303.323C146.482 276.924 136.545 243.42 139.178 203.398H103.304L87.4077 334.959L87.354 335.398H10.9956L11.0649 334.838L42.3461 79.0984H0.555122L0.613716 78.5466L2.81391 57.6462L2.86079 57.199H3.31098C33.5568 57.199 57.7448 56.6486 75.3295 55.5496C84.1285 54.9996 91.4044 54.4501 97.1645 53.7644C102.936 53.0773 107.141 52.2578 109.825 51.1843L110.022 51.1052L110.216 51.1921L121.216 56.1423L121.552 56.2937L121.507 56.6599L106.175 181.499H142.039C148.701 141.997 165.225 110.678 191.623 86.4802C218.118 62.1923 250.141 50.0486 287.111 50.0486ZM284.361 72.4988C265.3 72.4988 251.156 81.194 241.339 97.5554C236.429 105.739 232.181 117.78 228.473 133.643C224.767 149.499 221.606 169.142 218.857 192.507V192.508C213.358 238.695 214.473 271.602 221.036 291.291C224.313 301.123 229.075 308.312 235.434 313.048C241.791 317.781 249.791 320.098 259.611 320.098C278.129 320.098 292.27 311.946 302.082 295.592C306.994 287.406 311.379 275.226 315.224 259.089C319.068 242.958 322.365 222.905 325.114 198.992C330.063 152.792 329.498 120.444 322.938 101.31C319.663 91.7574 314.763 84.5634 308.331 79.7556C301.9 74.9495 293.897 72.4988 284.361 72.4988Z" stroke="#FCC945"/>
<path d="M637.453 190.249C633.053 228.749 634.153 257.349 640.203 276.049C646.253 295.299 657.803 304.649 674.303 304.649C692.453 304.649 707.853 295.849 719.953 277.149C732.053 258.449 740.303 232.049 744.703 197.949C745.803 190.799 746.353 184.749 746.903 180.349C747.453 175.949 748.003 172.649 748.003 171.549C751.303 138.549 749.103 113.799 742.503 97.2986C735.353 80.7986 723.253 72.5486 705.653 71.9986C686.953 71.9986 672.103 81.3486 661.103 101.149C649.553 120.949 641.853 150.649 637.453 190.249ZM647.903 342.599C616.003 342.599 591.803 329.399 575.303 302.449C558.803 275.499 553.303 239.749 558.253 194.649C563.203 152.849 578.603 118.199 605.003 91.2486C631.403 64.2986 663.853 50.5486 702.353 50.5486C719.953 50.5486 735.353 54.9486 748.553 63.1986C761.753 71.9986 772.203 84.0986 779.903 99.4986L816.203 50.5486H837.653L809.603 279.899C807.953 291.449 808.503 300.249 810.703 305.749C812.903 311.249 816.753 313.999 822.803 313.999C830.503 313.999 836.553 309.049 840.953 299.149C845.353 289.249 849.203 273.299 851.953 251.299H873.403C867.903 287.049 860.203 311.249 849.203 323.349C838.203 335.999 822.253 342.049 800.253 342.049C780.453 342.049 766.703 336.549 757.903 324.999C749.103 313.999 745.253 296.399 746.903 272.749L749.653 249.649C740.303 279.899 727.103 302.999 709.503 318.949C691.903 334.899 671.553 342.599 647.903 342.599Z" fill="#0077FF"/>
<path d="M1240.59 199.049C1235.64 240.849 1219.14 275.499 1190.54 302.449C1161.94 329.399 1127.84 342.599 1089.34 342.599C1050.29 342.599 1018.94 328.299 995.286 299.149C971.086 270.549 961.736 234.799 966.686 192.449C971.636 150.649 988.686 116.549 1017.29 90.1486C1045.89 63.7486 1079.44 50.5486 1119.04 50.5486C1157.54 50.5486 1188.89 64.8486 1212.54 93.4486C1236.19 122.049 1245.54 157.249 1240.59 199.049ZM1044.24 192.449C1039.29 237.549 1040.94 269.999 1048.64 290.349C1056.34 310.699 1070.64 320.599 1091.54 320.599C1111.89 320.599 1127.84 311.799 1138.84 293.099C1149.84 274.949 1157.54 243.599 1163.04 199.049C1167.44 155.049 1166.34 122.599 1158.64 102.249C1150.94 82.4486 1137.19 71.9986 1116.29 71.9986C1095.39 71.9986 1079.99 81.3486 1068.99 98.9486C1057.99 117.099 1049.74 148.449 1044.24 192.449Z" fill="white"/>
<path d="M133.043 161.276C132.495 163.575 131.327 165.207 129.518 166.136C127.73 167.101 125.659 167.165 123.364 166.339C121.099 165.521 119.409 164.117 118.324 162.135C117.239 160.152 116.978 157.982 117.533 155.654C117.941 153.944 118.641 152.704 119.591 151.986C120.541 151.267 121.674 151.087 123.006 151.51C123.761 151.741 124.282 152.169 124.606 152.769C124.959 153.376 125.012 154.071 124.822 154.867C124.632 155.663 124.285 156.206 123.773 156.526C123.26 156.846 122.663 156.867 121.938 156.642C121.302 156.437 120.819 156.112 120.467 155.629C120.115 155.146 119.916 154.543 119.893 153.855C119.667 154.021 119.492 154.23 119.333 154.505C119.174 154.78 119.045 155.062 118.96 155.415C118.701 156.506 119.029 157.48 119.939 158.367C120.849 159.254 122.399 160.068 124.619 160.814C126.721 161.534 128.368 161.811 129.538 161.607C130.708 161.404 131.43 160.728 131.704 159.578C131.907 158.723 131.765 157.884 131.269 157.09C130.773 156.295 129.976 155.589 128.923 155.042L129.408 153.66C130.951 154.503 132.069 155.561 132.689 156.881C133.309 158.2 133.423 159.684 133.043 161.276Z" fill="white"/>
<path d="M139.123 127.327C140.435 127.963 141.25 129.129 141.521 130.774C141.821 132.429 141.562 134.268 140.794 136.245C139.938 138.448 138.557 139.913 136.632 140.601C134.725 141.328 132.698 141.108 130.54 139.972C128.314 138.842 126.813 137.267 125.999 135.264C125.202 133.3 125.214 131.178 126.041 128.964C126.831 126.931 127.804 125.511 128.951 124.735C130.086 123.986 131.287 123.906 132.56 124.561C133.371 124.984 133.879 125.684 134.091 126.727C134.303 127.771 134.224 129.063 133.825 130.594C134.474 129.089 135.248 128.016 136.153 127.442C137.087 126.879 138.073 126.849 139.123 127.327ZM127.314 129.619C127.068 130.336 127.304 131.066 127.995 131.799C128.713 132.543 130.006 133.398 131.884 134.337L132.147 133.659C132.474 132.649 132.474 131.812 132.159 131.118C131.843 130.423 131.167 129.823 130.139 129.29C129.392 128.955 128.772 128.794 128.296 128.847C127.82 128.901 127.489 129.167 127.314 129.619ZM133.082 134.932C135.194 136.02 136.704 136.567 137.657 136.623C138.6 136.707 139.207 136.315 139.525 135.495C139.745 134.931 139.664 134.386 139.34 133.882C139.015 133.377 138.351 132.911 137.416 132.475C136.423 132.019 135.628 131.892 134.983 132.045C134.357 132.236 133.87 132.737 133.552 133.556C133.486 133.725 133.427 133.961 133.306 134.272C133.185 134.583 133.126 134.819 133.082 134.932Z" fill="white"/>
<path d="M147.732 109.892C149.046 110.771 149.728 112.041 149.833 113.729C149.939 115.417 149.434 117.269 148.321 119.285C147.178 121.353 145.886 122.563 144.418 122.966C142.949 123.37 141.291 122.927 139.428 121.664L132.955 117.285L131.959 119.088L130.888 118.334C131.694 116.875 132.341 115.641 132.844 114.606C133.347 113.57 133.635 112.799 133.761 112.319L134.443 111.648L139.387 115.038C139.455 114.664 139.579 114.251 139.745 113.826C139.911 113.4 140.119 112.962 140.353 112.538C141.232 110.947 142.382 109.869 143.745 109.343C145.135 108.831 146.445 109.027 147.732 109.892ZM154.578 107.96C153.801 109.366 152.882 110.153 151.819 110.323C150.742 110.519 149.481 110.109 147.966 109.093L139.147 103.135L141.814 98.3081L152.067 105.241C152.523 105.543 152.846 105.709 153.106 105.74C153.351 105.798 153.519 105.68 153.651 105.442C153.798 105.176 153.714 104.827 153.358 104.406C153.03 103.999 152.444 103.494 151.586 102.917L152.289 101.644C153.868 102.795 154.819 103.829 155.129 104.771C155.439 105.713 155.237 106.767 154.578 107.96ZM146.852 118.122C147.145 117.592 147.137 117.043 146.801 116.462C146.465 115.88 145.773 115.253 144.768 114.567C143.857 113.962 143.112 113.682 142.495 113.672C141.89 113.702 141.413 114.001 141.061 114.638C140.944 114.85 140.854 115.076 140.805 115.289C140.742 115.529 140.708 115.716 140.674 115.903L143.086 117.55C144.184 118.318 145.007 118.707 145.58 118.797C146.153 118.887 146.559 118.653 146.852 118.122Z" fill="white"/>
<path d="M167.754 89.9778C166.767 91.2444 165.734 91.8804 164.655 91.8857C163.557 91.9149 162.37 91.3197 161.027 90.0883L159.223 88.4129L156.969 91.3047L162.276 96.2184L158.905 100.544L148.573 90.995L147.306 92.6201L146.337 91.6964C147.361 90.382 148.212 89.241 148.871 88.2974C149.529 87.3538 149.916 86.6615 150.115 86.2082L150.92 85.6685L156 90.381L158.235 87.5131L153.21 82.8778L156.581 78.5521L165.668 86.9408C166.073 87.3078 166.368 87.5206 166.62 87.5908C166.873 87.661 167.058 87.5708 167.207 87.3796C167.394 87.1406 167.365 86.7836 167.096 86.291C166.833 85.8399 166.331 85.2532 165.57 84.5547L166.464 83.4075C167.85 84.7815 168.633 85.9441 168.794 86.9194C168.956 87.8947 168.593 88.9023 167.754 89.9778Z" fill="white"/>
<path d="M178.678 67.1311C180.185 68.9619 180.863 70.9701 180.735 73.2183C180.586 75.4879 179.691 77.4299 178.027 79.0656C176.363 80.7013 174.45 81.479 172.264 81.3777C170.1 81.2973 168.232 80.3315 166.704 78.48C165.198 76.6912 164.52 74.683 164.669 72.4135C164.818 70.144 165.714 68.202 167.399 66.545C169.041 64.9305 170.977 64.1736 173.14 64.2541C175.283 64.3558 177.15 65.3215 178.678 67.1311ZM170.744 74.5075C172.339 76.4213 173.62 77.6247 174.631 78.1592C175.642 78.6937 176.449 78.6215 177.097 77.9842C177.746 77.3469 177.889 76.5263 177.528 75.4805C177.188 74.4554 176.211 72.9966 174.638 71.1036C173.044 69.2318 171.763 68.0284 170.752 67.4939C169.763 66.9801 168.955 67.0103 168.307 67.6476C167.659 68.2849 167.537 69.1262 167.899 70.172C168.238 71.2391 169.194 72.6772 170.744 74.5075Z" fill="white"/>
<path d="M192.63 66.2818C190.772 67.7418 188.827 68.3069 186.8 67.9354C184.769 67.6058 183.067 66.4017 181.733 64.3695C180.419 62.3602 179.928 60.2434 180.28 58.0421C180.632 55.8408 181.761 53.9914 183.643 52.5128C185.025 51.4272 186.353 50.8848 187.559 50.8999C188.765 50.915 189.787 51.4602 190.595 52.596C191.059 53.2331 191.213 53.8815 191.103 54.5457C191.012 55.2329 190.626 55.8061 189.982 56.3115C189.339 56.8168 188.725 57.0297 188.116 56.9688C187.507 56.908 187.015 56.5633 186.571 55.9493C186.187 55.4045 186 54.8583 186.015 54.269C186.03 53.6797 186.242 53.0891 186.649 52.539C186.364 52.5316 186.095 52.5891 185.798 52.7071C185.5 52.8251 185.223 52.9661 184.937 53.1907C184.055 53.8832 183.718 54.8412 183.901 56.0832C184.084 57.3253 184.827 58.8976 186.15 60.8233C187.394 62.6567 188.546 63.8691 189.611 64.4186C190.676 64.9682 191.673 64.878 192.602 64.148C193.293 63.6052 193.696 62.8649 193.788 61.9457C193.88 61.0265 193.676 59.9934 193.168 58.9298L194.41 58.1467C195.129 59.7377 195.374 61.2392 195.058 62.6423C194.742 64.0455 193.917 65.2711 192.63 66.2818Z" fill="white"/>
<path d="M213.383 52.4548C212.004 53.2787 210.811 53.4981 209.802 53.1132C208.768 52.7438 207.876 51.7602 207.067 50.1271L205.99 47.9138L202.842 49.7947L206.018 56.2919L201.311 59.1054L195.122 46.4723L193.353 47.5293L192.782 46.3182C194.213 45.4633 195.419 44.7073 196.374 44.0658C197.33 43.4243 197.94 42.9185 198.29 42.5682L199.235 42.3559L202.272 48.5836L205.393 46.7183L202.38 40.5824L207.088 37.7689L212.534 48.8705C212.779 49.3589 212.977 49.6637 213.187 49.8203C213.397 49.9769 213.603 49.9599 213.811 49.8355C214.071 49.6801 214.173 49.337 214.101 48.7807C214.018 48.2654 213.762 47.537 213.304 46.6111L214.553 45.8649C215.349 47.6463 215.66 49.0129 215.458 49.9801C215.256 50.9474 214.553 51.7553 213.383 52.4548Z" fill="white"/>
<path d="M232.89 38.2071C233.329 39.7255 233.033 41.1361 232.026 42.4946C231.018 43.8532 229.439 44.9442 227.289 45.7676C225.082 46.6126 223.315 46.7054 221.931 46.0675C220.548 45.4297 219.565 44.0224 218.954 41.8565L216.825 34.3373L214.901 35.074L214.567 33.8071C216.124 33.2112 217.414 32.6849 218.466 32.2173C219.518 31.7497 220.235 31.3454 220.641 31.0602L221.595 30.9868L223.192 36.7639C223.485 36.5221 223.846 36.2866 224.247 36.0682C224.648 35.8498 225.089 35.6485 225.542 35.4751C227.24 34.8251 228.813 34.7414 230.195 35.2179C231.588 35.7223 232.464 36.7166 232.89 38.2071ZM239.372 41.1414C237.872 41.7156 236.661 41.7252 235.739 41.1701C234.789 40.6258 234.088 39.4997 233.584 37.7469L230.678 27.509L235.828 25.5372L239.203 37.4441C239.357 37.9689 239.497 38.3043 239.676 38.4954C239.826 38.6973 240.031 38.7162 240.286 38.6187C240.569 38.5103 240.73 38.1892 240.729 37.6382C240.74 37.1151 240.617 36.3514 240.333 35.3577L241.691 34.8377C242.156 36.7349 242.218 38.138 241.848 39.058C241.478 39.9781 240.645 40.6539 239.372 41.1414ZM226.915 43.9326C227.481 43.7159 227.828 43.291 227.945 42.6299C228.063 41.9688 227.938 41.0436 227.612 39.8714C227.304 38.8219 226.915 38.1276 226.449 37.722C225.968 37.3552 225.41 37.277 224.73 37.537C224.504 37.6237 224.289 37.7383 224.115 37.8701C223.912 38.0126 223.765 38.1335 223.619 38.2544L224.402 41.0677C224.747 42.3626 225.127 43.1903 225.507 43.6284C225.887 44.0665 226.349 44.1493 226.915 43.9326Z" fill="white"/>
<path d="M249.987 34.6934C250.044 34.9909 250.042 35.2988 249.98 35.6171C249.924 35.9652 249.821 36.2292 249.695 36.3742C250.049 35.9741 250.322 35.3114 250.514 34.3862C250.681 33.4959 250.766 32.3431 250.74 30.9331C250.758 30.0689 250.724 28.9369 250.679 27.5915C250.605 26.2514 250.543 24.8168 250.423 23.2386L248.005 23.6606L247.931 22.3204L256.199 20.8773L258.827 28.0761L261.005 20.0384L267.273 18.9443L268.154 31.307C268.198 31.8529 268.273 32.2396 268.403 32.4322C268.539 32.6546 268.735 32.7126 268.974 32.6709C269.272 32.6188 269.495 32.3339 269.606 31.7917C269.723 31.2793 269.758 30.5043 269.711 29.4668L271.114 29.222C271.214 31.1727 270.984 32.5353 270.436 33.369C269.858 34.208 268.912 34.7421 267.569 34.9766C265.987 35.2527 264.802 35.029 264.013 34.3055C263.196 33.5872 262.739 32.3445 262.602 30.5231L262.044 22.3788L258.462 36.0741L256.582 36.4023L252.073 24.2729C252.125 25.4941 252.183 26.591 252.229 27.6285C252.246 28.6712 252.27 29.5897 252.3 30.384C252.341 33.1446 252.131 35.088 251.64 36.2193C251.119 37.3557 250.172 38.0438 248.77 38.2887C247.993 38.4241 247.35 38.2904 246.781 37.8978C246.211 37.5051 245.857 36.9519 245.719 36.2379C245.592 35.5835 245.686 34.952 246.066 34.363C246.445 33.7739 246.99 33.402 247.707 33.2769C248.304 33.1727 248.786 33.2731 249.208 33.5378C249.635 33.8322 249.895 34.2174 249.987 34.6934Z" fill="white"/>
<path d="M286.672 30.0365C286.188 31.348 285.514 32.3295 284.62 32.9815C283.727 33.6637 282.643 33.9856 281.371 34.0078C279.735 34.0363 278.542 33.5722 277.76 32.5554C276.979 31.569 276.673 30.15 276.842 28.3288L277.697 19.6166L275.637 19.6525L275.788 18.3468C277.454 18.3178 278.847 18.2632 279.997 18.1826C281.147 18.102 281.962 17.9666 282.444 17.837L283.359 18.0937L282.279 28.8099C282.18 29.7814 282.227 30.4776 282.449 30.898C282.642 31.3492 283.01 31.5549 283.556 31.5454C284.222 31.5338 284.788 31.13 285.224 30.3042C285.629 29.5092 285.933 28.2614 286.075 26.5922L286.786 19.4584L285.18 19.4863L285.361 18.1801C286.816 18.1548 288.087 18.1023 289.207 18.0222C290.326 17.9421 291.111 17.8072 291.532 17.6787L292.448 17.9355L291.251 30.1386C291.203 30.6849 291.213 31.109 291.311 31.38C291.408 31.6511 291.593 31.7691 291.835 31.7649C292.138 31.7596 292.406 31.5428 292.606 31.0544C292.776 30.5666 292.94 29.8061 293.066 28.713L294.52 28.6877C294.264 30.6619 293.811 32.0032 293.13 32.712C292.42 33.4517 291.368 33.8034 289.974 33.8276C289.005 33.8445 288.242 33.6154 287.685 33.1402C287.128 32.665 286.777 31.9136 286.662 30.9155C286.662 30.9155 286.659 30.764 286.683 30.4909C286.676 30.2183 286.673 30.0668 286.672 30.0365Z" fill="white"/>
<path d="M323.992 29.1545C323.284 31.4641 321.997 33.2179 320.064 34.4359C318.131 35.6539 315.974 36.0368 313.642 35.6541C311.669 35.3302 310.29 34.7662 309.487 33.8976C308.649 33.0538 308.436 31.9749 308.843 30.6907C309.027 29.9839 309.424 29.4657 309.98 29.0964C310.531 28.7569 311.23 28.626 312.007 28.7536C312.785 28.8812 313.317 29.1834 313.603 29.6603C313.889 30.1372 313.936 30.7588 313.752 31.4656C313.559 32.048 313.262 32.5212 312.836 32.8504C312.41 33.1797 311.915 33.3748 311.286 33.4558C311.434 33.6644 311.677 33.8578 311.961 33.9965C312.239 34.165 312.563 34.2488 312.952 34.3126C314.207 34.5187 315.247 34.198 316.07 33.3506C316.893 32.5031 317.631 30.9047 318.319 28.5305L313.445 27.7307L313.822 26.4415L318.696 27.2414C319.191 25.2655 319.32 23.8128 319.056 22.8484C318.792 21.884 318.152 21.3184 317.136 21.1516C316.269 21.0093 315.424 21.2698 314.572 21.9283C313.72 22.5868 313.101 23.4985 312.685 24.6584L311.399 24.4474L313.048 19.0069L314.125 19.1836L314.695 20.5054C315.241 20.1958 315.861 19.9905 316.59 19.8645C317.314 19.7684 318.112 19.7765 318.949 19.9139C321.012 20.2525 322.547 21.3334 323.534 23.092C324.521 24.8507 324.664 26.8699 323.992 29.1545Z" fill="white"/>
<path d="M333.327 32.9187C332.064 35.1912 330.952 36.7178 329.981 37.4318C328.972 38.1656 327.835 38.3208 326.504 37.9081C325.751 37.6748 325.249 37.2653 324.938 36.6616C324.628 36.0578 324.587 35.4108 324.816 34.7205C325.025 34.0877 325.418 33.5753 326.043 33.2299C326.669 32.8844 327.333 32.805 328.028 33.0203C328.607 33.1998 328.984 33.5069 329.226 33.931C329.459 34.3838 329.499 34.8403 329.347 35.3005C329.251 35.5881 329.098 35.8578 328.887 36.1095C328.667 36.39 328.446 36.5753 328.263 36.6455C328.725 36.5985 329.244 36.2837 329.762 35.6831C330.281 35.0825 330.961 34.0882 331.737 32.7111C332.253 31.7295 332.866 30.5555 333.526 29.2377C334.186 27.9199 334.798 26.6507 335.362 25.43L333.018 24.7033L333.611 23.4916L345.187 27.0802L339.89 38.3469C339.661 38.8467 339.537 39.2206 339.557 39.4488C339.568 39.7059 339.713 39.846 339.944 39.9178C340.234 40.0075 340.57 39.8581 340.935 39.432C341.29 39.0346 341.702 38.3693 342.171 37.4363L343.531 37.8579C342.66 39.618 341.788 40.7112 340.893 41.1952C339.97 41.6701 338.872 41.7103 337.569 41.3065C336.035 40.831 335.098 40.0964 334.757 39.1026C334.387 38.0999 334.604 36.7716 335.369 35.1374L339.356 26.6681L336.867 25.8965C336.035 27.6368 335.346 29.0408 334.791 30.1375C334.237 31.2342 333.739 32.1583 333.327 32.9187Z" fill="white"/>
<path d="M351.842 47.1893C349.694 46.1332 348.39 44.6482 347.915 42.6939C347.427 40.7664 347.9 38.7712 349.304 36.7619C350.709 34.7527 352.486 33.4661 354.717 32.8753C356.921 32.2712 359.096 32.4972 361.245 33.5532C362.822 34.3285 363.874 35.3184 364.458 36.4828C365.027 37.6739 365.021 38.852 364.426 39.977C363.662 41.3566 362.362 42.0671 360.497 42.0953C358.618 42.1503 356.366 41.5495 353.741 40.293C352.783 41.8468 352.309 43.1324 352.347 44.0963C352.372 45.087 352.88 45.8095 353.886 46.3041C354.757 46.7319 355.632 46.8249 356.597 46.5565C357.519 46.3014 358.421 45.6982 359.313 44.7872L360.548 45.5628C359.306 46.8757 357.962 47.6666 356.477 47.9489C354.964 48.2178 353.42 47.9646 351.842 47.1893ZM360.077 34.5314C359.451 34.224 358.68 34.4521 357.762 35.2159C356.817 35.9664 355.726 37.2525 354.474 39.1009C355.659 39.582 356.742 39.608 357.708 39.2056C358.674 38.8032 359.512 37.9324 360.219 36.66C360.488 36.151 360.619 35.7091 360.611 35.3343C360.59 34.9862 360.403 34.6918 360.077 34.5314Z" fill="white"/>
<path d="M366.313 50.9432C366.12 51.1765 365.878 51.3729 365.589 51.5325C365.28 51.7154 365.005 51.8098 364.808 51.811C365.357 51.8125 366.056 51.5856 366.905 51.1302C367.711 50.6798 368.667 50.0009 369.748 49.0752C370.434 48.5326 371.294 47.7799 372.313 46.8824C373.307 45.9665 374.384 44.999 375.534 43.8964L373.586 42.4028L374.581 41.4869L381.241 46.5947L377.389 53.1418L385.112 49.5635L390.161 53.4358L381.115 62.0281C380.719 62.4112 380.467 62.7145 380.404 62.9331C380.322 63.1751 380.408 63.3557 380.6 63.5032C380.841 63.6876 381.212 63.667 381.709 63.3994C382.186 63.1552 382.814 62.6825 383.592 61.9815L384.722 62.8481C383.268 64.1754 382.052 64.8836 381.035 65.0194C379.994 65.1368 378.944 64.7898 377.862 63.9601C376.588 62.9828 375.969 61.9738 376.006 60.9333C376.018 59.8744 376.681 58.7421 378.009 57.4713L383.984 51.827L370.911 58.018L369.396 56.8563L375.833 45.7663C374.915 46.589 374.099 47.3367 373.321 48.0377C372.52 48.7204 371.82 49.3281 371.221 49.861C369.096 51.6657 367.441 52.7619 366.23 53.1311C364.996 53.4818 363.826 53.233 362.696 52.3664C362.071 51.8869 361.745 51.3315 361.669 50.6632C361.594 49.9948 361.788 49.3807 362.252 48.8207C362.677 48.3074 363.232 47.9699 363.946 47.8683C364.659 47.7667 365.314 47.9255 365.891 48.3681C366.372 48.7369 366.616 49.1534 366.692 49.6314C366.749 50.1326 366.622 50.5699 366.313 50.9432Z" fill="white"/>
<path d="M388.903 74.9706C387.312 73.1828 386.668 71.3217 386.976 69.3452C387.26 67.388 388.463 65.7342 390.538 64.4221C392.612 63.11 394.756 62.6035 397.055 62.9093C399.334 63.1925 401.269 64.2279 402.861 66.0157C404.03 67.3282 404.629 68.6384 404.725 69.9304C404.798 71.2416 404.341 72.322 403.358 73.1296C402.12 74.107 400.639 74.2651 398.896 73.5816C397.129 72.9172 395.266 71.5084 393.308 69.3552C391.823 70.4184 390.89 71.4195 390.557 72.3201C390.2 73.2398 390.396 74.0974 391.142 74.9347C391.786 75.6588 392.565 76.0775 393.563 76.1976C394.519 76.3143 395.587 76.1029 396.765 75.6052L397.615 76.7876C395.958 77.5216 394.407 77.7375 392.919 77.4318C391.411 77.1035 390.072 76.2831 388.903 74.9706ZM401.401 66.4703C400.938 65.9498 400.133 65.8659 398.988 66.2188C397.823 66.5489 396.317 67.3158 394.446 68.5385C395.363 69.4313 396.359 69.867 397.411 69.8649C398.463 69.8628 399.574 69.381 400.718 68.4806C401.163 68.1152 401.454 67.7589 401.591 67.4116C401.704 67.0835 401.643 66.7418 401.401 66.4703Z" fill="white"/>
<path d="M404.347 95.9154C403.498 94.5521 403.274 93.3897 403.674 92.4282C404.058 91.4409 405.077 90.6138 406.767 89.891L409.057 88.9293L407.12 85.8169L400.396 88.6523L397.498 83.9965L410.571 78.4698L409.482 76.7207L410.735 76.2129C411.616 77.6276 412.395 78.8216 413.056 79.7689C413.717 80.7163 414.239 81.3249 414.6 81.6763L414.818 82.5984L408.373 85.3091L410.295 88.3958L416.644 85.7046L419.543 90.3604L408.054 95.2245C407.549 95.4439 407.233 95.6245 407.071 95.822C406.909 96.0196 406.926 96.219 407.054 96.4248C407.214 96.6821 407.569 96.7932 408.144 96.7431C408.677 96.6824 409.43 96.4606 410.388 96.0518L411.157 97.2865C409.314 97.9924 407.9 98.2429 406.901 98.0124C405.901 97.782 405.068 97.0729 404.347 95.9154Z" fill="white"/>
<path d="M416.723 123.71C416.191 122.291 416.209 121.133 416.827 120.28C417.405 119.409 418.592 118.778 420.339 118.435L426.281 117.197C427.172 116.988 427.821 116.733 428.158 116.425C428.496 116.117 428.618 115.755 428.469 115.358C428.278 114.847 427.802 114.53 427.073 114.396C426.314 114.272 425.262 114.313 423.898 114.557L414.54 116.518L412.601 111.355L423.255 109.141C424.186 108.95 424.835 108.696 425.183 108.416C425.52 108.108 425.614 107.756 425.455 107.33C425.242 106.763 424.688 106.409 423.815 106.324C422.931 106.211 421.678 106.32 420.067 106.681L411.515 108.462L409.587 103.328L423.464 100.392L422.74 98.4636L424.054 98.1729C424.565 99.5344 425.02 100.659 425.418 101.547C425.816 102.435 426.176 103.048 426.44 103.406L426.473 104.356L423.325 105.019C424.642 105.08 425.718 105.447 426.589 106.045C427.461 106.642 428.11 107.508 428.546 108.671C428.898 109.607 428.956 110.452 428.789 111.214C428.594 111.985 428.152 112.617 427.445 113.148C428.429 113.355 429.283 113.734 429.961 114.334C430.639 114.934 431.188 115.706 431.561 116.699C432.104 118.146 432.011 119.362 431.35 120.358C430.649 121.334 429.387 122.023 427.604 122.443L420.713 123.91C420.147 124.04 419.746 124.178 419.549 124.342C419.312 124.487 419.262 124.696 419.347 124.923C419.453 125.207 419.778 125.383 420.312 125.425C420.845 125.466 421.654 125.381 422.682 125.188L423.193 126.55C421.223 126.905 419.781 126.855 418.866 126.401C417.923 125.956 417.235 125.071 416.723 123.71Z" fill="white"/>
<path d="M428.329 135.706C426.281 135.769 424.818 136.02 423.959 136.394C423.07 136.773 422.701 137.319 422.826 138.066C422.957 138.843 423.481 139.408 424.435 139.785C425.36 140.166 426.678 140.336 428.391 140.292C428.391 140.292 428.481 140.279 428.606 140.29L429.345 140.302C429.71 140.277 429.954 140.271 430.079 140.283C430.199 140.265 430.264 140.286 430.294 140.281C432.062 140.199 433.315 139.98 434.109 139.584C434.903 139.189 435.237 138.618 435.112 137.871C434.972 137.034 434.352 136.453 433.313 136.12C432.239 135.76 430.586 135.611 428.329 135.706ZM419.659 136.215C419.363 134.452 419.862 133.029 421.21 131.906C422.558 130.784 424.455 130.192 426.962 130.121C429.374 130.034 431.472 130.637 433.226 131.935C434.979 133.234 436.074 134.999 436.455 137.27C436.62 138.256 436.561 139.184 436.272 140.025C435.983 140.865 435.524 141.608 434.86 142.229L437.532 143.695L437.833 145.488L425.023 145.854C424.474 145.876 424.054 145.939 423.8 146.069C423.545 146.2 423.455 146.397 423.495 146.636C423.546 146.935 423.825 147.138 424.34 147.275C424.854 147.412 425.633 147.478 426.707 147.47L426.943 148.874C424.915 148.873 423.516 148.594 422.712 148.01C421.908 147.427 421.408 146.46 421.177 145.086C420.982 143.92 421.166 143.004 421.735 142.367C422.304 141.73 423.248 141.312 424.601 141.139L425.48 141.067C423.772 140.773 422.453 140.237 421.454 139.407C420.454 138.577 419.88 137.53 419.659 136.215Z" fill="white"/>
<path d="M425.757 155.816C425.454 155.815 425.151 155.753 424.847 155.631C424.514 155.508 424.272 155.356 424.15 155.204C424.484 155.629 425.09 156.026 425.969 156.392C426.818 156.729 427.939 157.036 429.333 157.284C430.181 157.469 431.303 157.655 432.636 157.872C433.969 158.059 435.394 158.277 436.969 158.464L436.968 156.01L438.301 156.197L438.306 164.59L430.762 165.773L438.31 169.469L438.314 175.832L425.981 174.3C425.435 174.237 425.041 174.236 424.829 174.326C424.587 174.416 424.496 174.597 424.496 174.84C424.496 175.143 424.739 175.416 425.254 175.63C425.739 175.844 426.497 176.029 427.527 176.184L427.528 177.609C425.589 177.328 424.285 176.839 423.558 176.139C422.83 175.409 422.466 174.377 422.465 173.014C422.464 171.408 422.887 170.289 423.735 169.655C424.583 168.992 425.886 168.785 427.704 169.004L435.825 170.035L422.944 163.865L422.943 161.956L435.667 159.884C434.455 159.697 433.364 159.542 432.334 159.386C431.304 159.2 430.395 159.045 429.607 158.921C426.879 158.426 425 157.843 423.97 157.142C422.939 156.411 422.423 155.349 422.422 153.925C422.422 153.137 422.664 152.532 423.148 152.049C423.633 151.566 424.239 151.326 424.966 151.329C425.632 151.331 426.239 151.545 426.754 152.032C427.269 152.519 427.543 153.126 427.543 153.853C427.543 154.459 427.362 154.913 427.029 155.275C426.665 155.638 426.241 155.818 425.757 155.816Z" fill="white"/>
<path d="M424.387 191.33C423.165 190.651 422.298 189.835 421.789 188.852C421.251 187.866 421.098 186.746 421.27 185.485C421.491 183.864 422.132 182.755 423.256 182.138C424.349 181.517 425.798 181.43 427.573 181.875L436.053 184.05L436.331 182.008L437.598 182.357C437.373 184.008 437.215 185.393 437.119 186.542C437.024 187.69 437.034 188.516 437.088 189.012L436.695 189.878L426.269 187.175C425.324 186.93 424.629 186.87 424.179 187.025C423.704 187.146 423.445 187.479 423.371 188.02C423.281 188.68 423.594 189.301 424.343 189.857C425.067 190.38 426.254 190.87 427.882 191.266L434.824 193.056L435.041 191.465L436.305 191.844C436.108 193.285 435.966 194.55 435.875 195.668C435.783 196.787 435.797 197.583 435.86 198.019L435.467 198.885L423.589 195.84C423.056 195.709 422.635 195.654 422.353 195.709C422.07 195.764 421.925 195.929 421.892 196.169C421.852 196.469 422.025 196.767 422.477 197.039C422.933 197.282 423.66 197.56 424.721 197.851L424.524 199.292C422.612 198.738 421.356 198.085 420.759 197.304C420.136 196.49 419.949 195.396 420.137 194.015C420.268 193.054 420.611 192.335 421.166 191.857C421.72 191.38 422.516 191.147 423.52 191.186C423.52 191.186 423.67 191.206 423.937 191.271C424.207 191.306 424.357 191.326 424.387 191.33Z" fill="white"/>
<path d="M566.268 331.488C568.039 329.903 570.031 329.129 572.306 329.138C574.603 329.168 576.608 329.953 578.342 331.514C580.076 333.075 580.957 334.928 580.965 337.095C580.993 339.239 580.112 341.137 578.321 342.744C576.592 344.326 574.6 345.101 572.302 345.071C570.005 345.041 568 344.256 566.244 342.675C564.532 341.134 563.671 339.259 563.643 337.114C563.638 334.99 564.519 333.093 566.268 331.488ZM574.109 338.954C575.96 337.277 577.11 335.948 577.598 334.921C578.087 333.893 577.973 333.098 577.298 332.49C576.622 331.882 575.787 331.782 574.75 332.194C573.733 332.582 572.31 333.625 570.479 335.279C568.671 336.952 567.521 338.281 567.032 339.309C566.564 340.314 566.635 341.111 567.31 341.719C567.986 342.328 568.841 342.404 569.878 341.993C570.938 341.601 572.341 340.582 574.109 338.954Z" fill="#FCC945"/>
<path d="M561.608 311.947C562.54 313.255 562.849 314.42 562.537 315.444C562.242 316.492 561.294 317.459 559.735 318.35L558.012 319.326C558.683 319.432 559.309 319.684 559.89 320.083C560.472 320.481 560.985 321.044 561.459 321.711C562.409 323.043 562.722 324.319 562.376 325.556C562.03 326.793 561.044 327.863 559.443 328.748L556.913 330.209L558.108 331.887L556.956 332.515C555.989 331.158 555.156 330.041 554.439 329.139C553.723 328.237 553.15 327.643 552.772 327.32L552.463 326.418L556.898 323.923C557.698 323.48 558.241 323.04 558.458 322.615C558.7 322.172 558.642 321.725 558.308 321.256C558.062 320.91 557.778 320.668 557.397 320.498C557.033 320.353 556.631 320.311 556.192 320.373L550.459 323.604L547.277 319.138L558.07 312.985C558.519 312.728 558.811 312.511 558.953 312.293C559.095 312.075 559.063 311.872 558.922 311.675C558.746 311.428 558.393 311.35 557.856 311.484C557.344 311.6 556.63 311.903 555.714 312.393L554.888 311.234C556.604 310.301 557.932 309.92 558.921 310.054C559.927 310.214 560.817 310.836 561.608 311.947Z" fill="#FCC945"/>
<path d="M554.32 298.653C555.355 300.811 555.477 302.816 554.671 304.708C553.892 306.587 552.326 307.944 550.026 308.754C547.726 309.563 545.571 309.555 543.482 308.702C541.405 307.876 539.849 306.384 538.814 304.226C538.054 302.641 537.83 301.195 538.077 299.887C538.35 298.565 539.063 297.6 540.201 297.032C541.624 296.355 543.063 296.552 544.529 297.648C546.023 298.731 547.413 300.577 548.698 303.186C550.377 302.483 551.519 301.71 552.068 300.894C552.645 300.065 552.683 299.165 552.198 298.154C551.779 297.28 551.154 296.678 550.243 296.32C549.372 295.975 548.309 295.931 547.067 296.144L546.574 294.765C548.329 294.431 549.848 294.587 551.173 295.246C552.51 295.933 553.559 297.068 554.32 298.653ZM540.31 304.122C540.612 304.75 541.349 305.026 542.521 304.949C543.707 304.898 545.328 304.496 547.412 303.726C546.78 302.619 545.954 301.948 544.961 301.699C543.968 301.45 542.793 301.664 541.479 302.286C540.964 302.543 540.596 302.828 540.377 303.141C540.184 303.44 540.153 303.794 540.31 304.122Z" fill="#FCC945"/>
<path d="M545.482 274.818C545.948 276.354 545.868 277.555 545.244 278.419C544.628 279.312 543.447 279.907 541.652 280.251L539.223 280.699L540.287 284.208L547.419 282.88L549.01 288.128L535.139 290.724L535.736 292.696L534.412 292.923C533.929 291.328 533.487 289.974 533.095 288.891C532.703 287.807 532.359 287.09 532.103 286.662L532.128 285.701L538.962 284.435L537.908 280.955L531.168 282.223L529.577 276.975L541.769 274.686C542.307 274.58 542.654 274.47 542.858 274.311C543.063 274.151 543.097 273.949 543.027 273.717C542.939 273.427 542.629 273.239 542.067 273.162C541.543 273.105 540.768 273.159 539.75 273.353L539.328 271.961C541.266 271.668 542.678 271.731 543.574 272.179C544.469 272.627 545.086 273.513 545.482 274.818Z" fill="#FCC945"/>
<path d="M536.105 253.042C537.687 252.953 539.015 253.554 540.149 254.834C541.283 256.114 542.039 257.89 542.416 260.162C542.803 262.493 542.538 264.23 541.632 265.432C540.725 266.634 539.143 267.276 536.889 267.389L529.061 267.787L529.399 269.82L528.085 269.862C527.812 268.218 527.554 266.848 527.306 265.723C527.058 264.597 526.804 263.811 526.605 263.353L526.725 262.41L532.731 262.141C532.552 261.803 532.393 261.4 532.259 260.962C532.125 260.524 532.016 260.051 531.937 259.573C531.639 257.779 531.874 256.232 532.621 254.996C533.398 253.755 534.552 253.125 536.105 253.042ZM540.535 260.118C540.436 259.52 540.087 259.088 539.461 258.827C538.834 258.567 537.928 258.477 536.709 258.534C535.614 258.6 534.823 258.829 534.33 259.19C533.842 259.582 533.653 260.107 533.772 260.824C533.812 261.063 533.881 261.297 533.946 261.501C534.04 261.7 534.13 261.869 534.219 262.038L537.21 261.922C538.553 261.874 539.444 261.69 539.952 261.418C540.46 261.145 540.634 260.716 540.535 260.118Z" fill="#FCC945"/>
<path d="M539.676 226.543C539.704 227.785 539.422 228.731 538.831 229.382C538.24 230.062 537.249 230.48 535.8 230.696C535.619 230.76 535.256 230.799 534.773 230.871C534.29 230.943 533.897 230.983 533.656 231.049C533.174 231.182 532.783 231.342 532.545 231.53C532.308 231.748 532.162 232.024 532.109 232.358L532.118 232.752L539.317 233.462L539.441 238.945L525.378 237.578L525.424 239.638L524.087 239.488C524.05 237.822 523.987 236.399 523.901 235.249C523.814 234.099 523.675 233.314 523.543 232.833L523.825 231.917L530.751 232.602L530.741 232.148C530.73 231.663 530.538 231.244 530.167 230.919C529.797 230.625 529.001 230.28 527.721 229.946C526.837 229.724 526.165 229.498 525.737 229.326C525.309 229.154 524.94 228.92 524.631 228.685C524.2 228.362 523.857 227.946 523.634 227.466C523.411 226.986 523.277 226.413 523.262 225.747C523.242 224.899 523.469 224.196 523.943 223.7C524.416 223.204 525.079 223.007 525.928 223.047C526.657 223.091 527.239 223.38 527.674 223.855C528.139 224.329 528.365 224.93 528.382 225.657C528.396 226.293 528.226 226.812 527.84 227.185C527.455 227.588 526.975 227.781 526.369 227.796C526.187 227.8 526.036 227.803 525.853 227.747C525.7 227.72 525.548 227.663 525.425 227.606C525.641 227.752 525.886 227.898 526.192 228.012C526.498 228.126 527.017 228.296 527.687 228.462C528.847 228.798 529.672 229.112 530.163 229.404C530.655 229.695 530.996 230.021 531.247 230.409C531.689 228.519 532.146 227.266 532.677 226.647C533.209 226.028 534.169 225.612 535.619 225.396C536.646 225.25 537.249 225.115 537.428 224.99C537.608 224.894 537.665 224.742 537.661 224.56C537.656 224.317 537.408 224.081 536.889 223.911C536.37 223.742 535.578 223.578 534.484 223.452L534.455 222.15C536.399 222.347 537.743 222.8 538.485 223.449C539.258 224.128 539.645 225.15 539.676 226.543Z" fill="#FCC945"/>
<path d="M532.438 203.065C534.783 203.493 536.638 204.593 538.063 206.398C539.486 208.234 540.138 210.302 540.019 212.632C539.9 214.962 539.017 216.796 537.341 218.133C535.695 219.472 533.668 219.94 531.293 219.51C528.978 219.114 527.122 218.014 525.699 216.178C524.276 214.343 523.624 212.275 523.744 209.915C523.862 207.615 524.775 205.782 526.421 204.444C528.066 203.135 530.092 202.667 532.438 203.065ZM531.583 213.852C534.049 214.286 535.803 214.38 536.908 214.135C538.013 213.891 538.558 213.313 538.605 212.405C538.651 211.497 538.203 210.775 537.231 210.208C536.289 209.642 534.584 209.157 532.149 208.723C529.712 208.321 527.957 208.227 526.852 208.472C525.778 208.718 525.204 209.264 525.157 210.172C525.111 211.08 525.589 211.803 526.562 212.371C527.532 212.969 529.207 213.452 531.583 213.852Z" fill="#FCC945"/>
<path d="M542.479 185.688C542.274 187.281 541.71 188.336 540.787 188.854C539.861 189.402 538.543 189.439 536.768 188.987L534.374 188.359L533.905 191.996L540.94 193.827L540.237 199.266L526.551 195.716L526.287 197.759L524.989 197.401C525.202 195.748 525.354 194.332 525.442 193.182C525.529 192.032 525.51 191.235 525.452 190.738L525.869 189.876L532.607 191.638L533.073 188.032L526.42 186.312L527.123 180.873L539.155 183.988C539.688 184.121 540.048 184.169 540.3 184.111C540.552 184.053 540.665 183.885 540.696 183.645C540.735 183.344 540.53 183.041 540.05 182.732C539.597 182.458 538.87 182.176 537.864 181.919L538.05 180.477C539.934 181.035 541.193 181.694 541.824 182.482C542.456 183.27 542.654 184.336 542.479 185.688Z" fill="#FCC945"/>
<path d="M548.7 156.424C548.336 157.895 547.664 158.848 546.667 159.218C545.693 159.625 544.351 159.499 542.707 158.826L537.078 156.597C536.22 156.282 535.537 156.138 535.083 156.209C534.628 156.28 534.321 156.514 534.219 156.925C534.088 157.455 534.302 157.979 534.831 158.491C535.39 159.009 536.285 159.553 537.555 160.098L546.428 163.599L545.105 168.952L535.014 164.951C534.133 164.599 533.451 164.455 533.004 164.497C532.55 164.567 532.271 164.809 532.162 165.25C532.017 165.838 532.275 166.437 532.951 166.986C533.619 167.564 534.721 168.16 536.262 168.744L544.364 171.953L543.048 177.277L529.875 172.108L529.381 174.108L528.126 173.629C528.475 172.217 528.736 171.033 528.91 170.076C529.084 169.12 529.134 168.413 529.118 167.971L529.63 167.164L532.617 168.339C531.559 167.566 530.875 166.671 530.492 165.697C530.108 164.722 530.062 163.646 530.36 162.44C530.6 161.47 531.031 160.736 531.601 160.194C532.201 159.66 532.927 159.377 533.814 159.324C533.116 158.613 532.623 157.829 532.401 156.959C532.179 156.088 532.162 155.145 532.417 154.116C532.787 152.616 533.555 151.655 534.669 151.191C535.804 150.763 537.241 150.882 538.959 151.512L545.505 154.07C546.048 154.272 546.459 154.378 546.715 154.35C546.994 154.359 547.155 154.213 547.213 153.977C547.286 153.683 547.116 153.358 546.698 153.032C546.279 152.705 545.56 152.332 544.598 151.929L544.947 150.517C546.782 151.301 547.95 152.133 548.45 153.013C548.98 153.9 549.048 155.012 548.7 156.424Z" fill="#FCC945"/>
<path d="M547.161 140.227C548.668 141.033 549.813 141.43 550.654 141.443C551.494 141.456 552.095 141.079 552.414 140.26C552.699 139.525 552.508 138.762 551.785 137.947C551.062 137.131 549.778 136.253 547.9 135.231C546.021 134.21 544.578 133.659 543.591 133.522C542.593 133.412 541.946 133.739 541.661 134.473C541.375 135.208 541.583 136.011 542.239 136.832C542.913 137.692 544.017 138.531 545.58 139.359C545.636 139.382 545.906 139.524 546.39 139.785C546.902 140.057 547.161 140.227 547.161 140.227ZM560.65 143.656L556.611 154.049L555.43 153.408L556.187 151.459L538.295 141.544L537.548 143.464L536.378 142.795C536.894 141.468 537.305 140.327 537.6 139.4C537.895 138.474 538.036 137.779 538.077 137.338L538.698 136.576L542.675 138.805C541.407 137.802 540.558 136.642 540.116 135.352C539.703 134.074 539.721 132.774 540.237 131.446C540.895 129.752 542.092 128.765 543.836 128.457C545.57 128.178 547.489 128.594 549.637 129.757C551.684 130.847 553.203 132.376 554.158 134.266C555.142 136.167 555.291 137.959 554.632 139.653C554.281 140.557 553.855 141.235 553.333 141.742C552.81 142.25 552.213 142.532 551.52 142.643L558.185 146.319L559.469 143.015L560.65 143.656Z" fill="#FCC945"/>
<path d="M553.63 120.702C555.293 121.898 556.606 122.59 557.515 122.815C558.451 123.056 559.077 122.848 559.432 122.179C559.802 121.483 559.729 120.716 559.202 119.836C558.701 118.97 557.758 118.034 556.372 117.025C556.372 117.025 556.293 116.981 556.201 116.896L555.621 116.437C555.317 116.234 555.119 116.09 555.028 116.005C554.922 115.946 554.883 115.89 554.856 115.876C553.404 114.865 552.276 114.276 551.405 114.106C550.535 113.936 549.922 114.186 549.566 114.855C549.168 115.604 549.306 116.442 549.927 117.339C550.561 118.278 551.781 119.403 553.63 120.702ZM560.817 125.576C559.979 127.154 558.717 127.98 556.964 128.049C555.212 128.119 553.346 127.434 551.314 125.964C549.347 124.565 548.05 122.809 547.449 120.712C546.848 118.614 547.055 116.547 548.135 114.514C548.604 113.631 549.216 112.931 549.957 112.44C550.698 111.95 551.515 111.64 552.42 111.551L551.192 108.761L552.045 107.155L562.431 114.663C562.88 114.98 563.251 115.185 563.532 115.237C563.814 115.289 564.005 115.187 564.119 114.973C564.261 114.705 564.162 114.374 563.838 113.952C563.513 113.53 562.935 113.003 562.078 112.356L562.747 111.099C564.355 112.334 565.294 113.407 565.577 114.36C565.86 115.312 565.668 116.383 565.014 117.614C564.459 118.658 563.755 119.272 562.916 119.431C562.077 119.59 561.074 119.347 559.895 118.661L559.154 118.182C560.33 119.456 561.049 120.684 561.337 121.951C561.624 123.218 561.443 124.398 560.817 125.576Z" fill="#FCC945"/>
<path d="M572.742 105.316C571.404 107.264 569.741 108.347 567.746 108.523C565.759 108.741 563.84 108.003 562.04 106.343C560.264 104.702 559.228 102.732 558.956 100.453C558.684 98.1733 559.234 96.0345 560.59 94.0614C561.585 92.6129 562.677 91.718 563.808 91.4092C564.939 91.1004 566.042 91.3674 567.107 92.2777C567.714 92.7857 568.036 93.3878 568.114 94.0767C568.216 94.7832 568.012 95.456 567.548 96.1303C567.085 96.8046 566.569 97.1808 565.984 97.2838C565.399 97.3868 564.845 97.177 564.263 96.6865C563.755 96.249 563.431 95.757 563.284 95.1681C563.138 94.5791 563.175 93.9358 563.405 93.2806C563.137 93.3497 562.901 93.4791 562.655 93.676C562.41 93.8729 562.189 94.0874 561.983 94.3871C561.348 95.3112 561.295 96.3526 561.805 97.5363C562.315 98.72 563.438 100.081 565.199 101.638C566.861 103.124 568.268 104.018 569.413 104.277C570.558 104.537 571.465 104.18 572.134 103.206C572.631 102.481 572.806 101.638 572.641 100.701C572.477 99.7641 572.004 98.7933 571.239 97.8741L572.186 96.7634C573.291 98.1496 573.93 99.5742 574.018 101.052C574.105 102.529 573.669 103.968 572.742 105.316Z" fill="#FCC945"/>
<path d="M593.379 80.2429C592.355 81.3591 591.31 81.8697 590.265 81.7093C589.221 81.5921 588.114 80.8276 587.007 79.4353L583.18 74.7338C582.584 74.039 582.06 73.58 581.63 73.421C581.2 73.262 580.82 73.3178 580.533 73.6303C580.164 74.0321 580.098 74.5971 580.312 75.3044C580.549 76.0327 581.067 76.9465 581.909 78.0445L587.947 85.4441L584.218 89.5068L577.361 81.0734C576.764 80.3354 576.239 79.8764 575.83 79.695C575.4 79.536 575.042 79.6127 574.735 79.9476C574.325 80.394 574.261 81.0455 574.585 81.8575C574.889 82.6918 575.56 83.7521 576.621 85.016L582.128 91.7837L578.42 95.8241L569.442 84.8627L568.049 86.3807L567.187 85.3483C568.17 84.2768 568.968 83.363 569.58 82.6068C570.192 81.8506 570.575 81.2535 570.775 80.8573L571.608 80.3969L573.643 82.8843C573.094 81.6901 572.93 80.5698 573.065 79.5263C573.201 78.4827 573.678 77.5145 574.518 76.5993C575.195 75.8626 575.923 75.4273 576.681 75.2292C577.46 75.052 578.228 75.1566 579.025 75.5416C578.76 74.5762 578.708 73.6471 578.934 72.7737C579.16 71.9003 579.6 71.0633 580.317 70.282C581.362 69.1435 582.492 68.6733 583.685 68.8072C584.88 68.9844 586.074 69.7894 587.265 71.1789L591.732 76.617C592.107 77.0593 592.414 77.3522 592.651 77.4527C592.889 77.5964 593.099 77.5461 593.263 77.3676C593.468 77.1443 593.477 76.776 593.27 76.2849C593.063 75.7939 592.616 75.1158 591.974 74.2927L592.957 73.2212C594.176 74.8047 594.792 76.1049 594.805 77.122C594.839 78.16 594.363 79.1714 593.379 80.2429Z" fill="#FCC945"/>
<path d="M610.499 65.8675C609.231 66.8523 608.092 67.1997 607.082 66.9099C606.048 66.6386 605.101 65.7244 604.181 64.1372L602.953 61.9843L600.057 64.2324L603.675 70.5512L599.343 73.9141L592.294 61.6294L590.666 62.8928L590.013 61.7127C591.329 60.6909 592.436 59.7933 593.309 59.0387C594.183 58.2841 594.733 57.7039 595.043 57.3095L595.942 56.995L599.403 63.0523L602.275 60.8228L598.845 54.8568L603.177 51.4939L609.379 62.2886C609.657 62.7629 609.875 63.0544 610.091 63.1929C610.308 63.3314 610.506 63.2928 610.698 63.1442C610.937 62.9584 611.007 62.5969 610.891 62.0354C610.768 61.5168 610.459 60.7981 609.939 59.8981L611.088 59.0063C612.008 60.7464 612.422 62.1122 612.307 63.1224C612.191 64.1326 611.576 65.0314 610.499 65.8675Z" fill="#FCC945"/>
<path d="M627.98 49.45C628.52 50.9442 628.333 52.4054 627.446 53.8878C626.56 55.3703 625.094 56.6407 623.049 57.6992C620.95 58.7856 619.227 59.0633 617.826 58.5603C616.425 58.0572 615.36 56.7322 614.604 54.5994L611.969 47.1955L610.139 48.1426L609.721 46.8925C611.201 46.1265 612.425 45.4587 613.421 44.8751C614.416 44.2916 615.089 43.8071 615.465 43.4757L616.394 43.302L618.38 48.9946C618.649 48.7189 618.985 48.4425 619.362 48.1794C619.738 47.9162 620.155 47.6662 620.586 47.4434C622.201 46.6077 623.735 46.3593 625.122 46.6989C626.523 47.0656 627.453 47.9829 627.98 49.45ZM634.539 51.752C633.113 52.4902 631.928 52.6257 630.985 52.1586C630.015 51.7054 629.247 50.6364 628.625 48.9112L625.032 38.8311L629.929 36.2963L634.104 48.0201C634.293 48.5363 634.455 48.8618 634.643 49.0371C634.805 49.2262 635.007 49.2241 635.249 49.0987C635.518 48.9594 635.653 48.6171 635.612 48.0584C635.584 47.5268 635.408 46.765 635.057 45.7869L636.348 45.1184C636.943 46.9939 637.106 48.4104 636.811 49.3819C636.516 50.3533 635.75 51.1253 634.539 51.752ZM622.548 55.8773C623.086 55.5987 623.396 55.1317 623.462 54.4491C623.529 53.7665 623.339 52.8412 622.934 51.6865C622.555 50.6541 622.124 49.9905 621.639 49.6276C621.14 49.3057 620.588 49.2844 619.942 49.6186C619.727 49.7301 619.525 49.8686 619.364 50.0204C619.176 50.186 619.041 50.3239 618.907 50.4617L619.879 53.2332C620.312 54.5104 620.744 55.3103 621.148 55.7151C621.552 56.1198 622.01 56.1558 622.548 55.8773Z" fill="#FCC945"/>
<path d="M649.316 23.5813C649.622 24.7548 649.434 25.8547 648.731 26.9188C648.028 27.9829 646.976 28.7087 645.553 29.1341C644.16 29.5509 642.919 29.5109 641.822 28.9851C640.725 28.4593 640.013 27.6285 639.736 26.4463C639.569 25.8639 639.609 25.3458 639.857 24.8922C640.105 24.4386 640.511 24.0958 641.092 23.9222C641.614 23.7659 642.091 23.7813 642.465 23.9857C642.839 24.1901 643.093 24.5252 643.227 24.9912C643.382 25.6405 643.226 26.1933 642.787 26.6408C642.348 27.0882 641.66 27.3257 640.743 27.3154C641.146 27.5111 641.735 27.5878 642.511 27.5455C643.258 27.5119 644.088 27.327 645.017 27.0492C645.946 26.7714 646.771 26.4614 647.446 26.0696C648.122 25.6778 648.607 25.2799 648.921 24.838C648.105 25.3984 647.408 25.6067 646.802 25.4718C646.195 25.3369 645.8 24.949 645.637 24.2706C645.503 23.8046 645.568 23.374 645.804 22.9873C646.01 22.6092 646.404 22.3334 646.956 22.1685C647.507 22.0035 648.001 22.0771 648.45 22.3224C648.87 22.5763 649.149 22.9989 649.316 23.5813ZM650.805 41.921C650.671 43.3208 650.271 44.4523 649.576 45.3243C648.89 46.2255 647.928 46.8292 646.709 47.1939C645.141 47.6627 643.875 47.5353 642.865 46.7623C641.863 46.0183 641.208 44.7278 640.909 42.9197L639.523 34.2581L637.549 34.8485L637.363 33.5442C638.96 33.0667 640.287 32.6382 641.373 32.2501C642.46 31.8619 643.21 31.511 643.641 31.2556L644.587 31.2573L646.265 41.919C646.416 42.8856 646.638 43.5467 646.958 43.8936C647.258 44.2783 647.665 44.378 648.188 44.2217C648.826 44.0307 649.269 43.4872 649.478 42.5707C649.667 41.692 649.643 40.4025 649.357 38.7488L648.232 31.6536L646.693 32.1137L646.537 30.8007C647.93 30.384 649.141 29.9903 650.198 29.6108C651.256 29.2313 651.977 28.8891 652.35 28.6511L653.296 28.6527L655.239 40.7848C655.331 41.3263 655.448 41.734 655.611 41.97C655.773 42.2061 655.981 42.2705 656.213 42.201C656.503 42.1142 656.706 41.8322 656.775 41.3055C656.816 40.7875 656.781 40.0074 656.624 38.9156L658.018 38.4989C658.272 40.4786 658.175 41.8988 657.7 42.7683C657.204 43.6755 656.28 44.2997 654.945 44.6991C654.016 44.9769 653.223 44.961 652.567 44.6513C651.91 44.3417 651.382 43.7091 651.019 42.7742C651.019 42.7742 650.977 42.6286 650.93 42.3578C650.855 42.0957 650.813 41.9501 650.805 41.921Z" fill="#FCC945"/>
<path d="M1082.09 32.6334C1082.26 34.332 1082.56 35.5068 1083.02 36.2172C1083.47 36.9276 1084.12 37.2268 1084.98 37.0494C1085.75 36.8903 1086.29 36.3166 1086.56 35.2691C1086.84 34.2216 1086.86 32.6705 1086.67 30.5442C1086.48 28.418 1086.14 26.9106 1085.71 26.0099C1085.24 25.1153 1084.61 24.7507 1083.84 24.9097C1083.07 25.0688 1082.51 25.6783 1082.19 26.6726C1081.85 27.7026 1081.76 29.0818 1081.94 30.8397C1081.95 30.8991 1081.98 31.202 1082.03 31.7484C1082.09 32.3244 1082.09 32.6334 1082.09 32.6334ZM1086.72 45.7863L1075.8 48.038L1075.68 46.7016L1077.73 46.2795L1076.07 25.9245L1074.05 26.3406L1073.96 24.9981C1075.35 24.7105 1076.53 24.4361 1077.47 24.181C1078.41 23.9258 1079.07 23.6664 1079.46 23.462L1080.44 23.5691L1080.79 28.1071C1080.92 26.5018 1081.42 25.1618 1082.25 24.0932C1083.09 23.0542 1084.18 22.3643 1085.58 22.0768C1087.36 21.7097 1088.85 22.1762 1090.07 23.4703C1091.27 24.7706 1091.99 26.6025 1092.21 29.0317C1092.44 31.336 1092 33.4363 1090.96 35.2609C1089.91 37.1152 1088.5 38.211 1086.72 38.5781C1085.77 38.7739 1084.97 38.7846 1084.25 38.6225C1083.54 38.4603 1082.97 38.1131 1082.5 37.593L1083.13 45.1659L1086.6 44.45L1086.72 45.7863Z" fill="white"/>
<path d="M1102.69 27.4749C1102.6 29.5174 1102.74 30.9957 1103.05 31.8841C1103.36 32.8027 1103.88 33.2198 1104.63 33.1632C1105.42 33.1045 1106.02 32.634 1106.47 31.7193C1106.92 30.8348 1107.19 29.5386 1107.27 27.8307C1107.27 27.8307 1107.26 27.7401 1107.29 27.6169L1107.35 26.8827C1107.36 26.5179 1107.37 26.2739 1107.39 26.1508C1107.38 26.0299 1107.41 25.9672 1107.4 25.937C1107.45 24.1709 1107.33 22.9041 1106.99 22.0784C1106.66 21.2527 1106.11 20.8681 1105.36 20.9247C1104.51 20.988 1103.88 21.5514 1103.47 22.5544C1103.03 23.59 1102.76 25.2208 1102.69 27.4749ZM1102.55 36.1451C1100.76 36.2785 1099.38 35.6528 1098.36 34.2098C1097.34 32.7669 1096.89 30.8255 1097.01 28.3252C1097.1 25.9178 1097.86 23.8859 1099.29 22.2598C1100.72 20.6338 1102.56 19.7057 1104.86 19.5339C1105.85 19.4593 1106.78 19.603 1107.59 19.9672C1108.41 20.3315 1109.12 20.8558 1109.69 21.5728L1111.35 19.0479L1113.17 18.9122L1112.57 31.6879C1112.55 32.2363 1112.59 32.6593 1112.7 32.9245C1112.81 33.1896 1113 33.2969 1113.24 33.2789C1113.54 33.2562 1113.76 32.9964 1113.94 32.4972C1114.12 31.9979 1114.24 31.2289 1114.31 30.1601L1115.73 30.0538C1115.58 32.0707 1115.2 33.4363 1114.55 34.1833C1113.91 34.9302 1112.91 35.3395 1111.52 35.4435C1110.34 35.5316 1109.44 35.2648 1108.84 34.6408C1108.25 34.0167 1107.9 33.04 1107.83 31.678L1107.83 30.7972C1107.41 32.4695 1106.77 33.7324 1105.87 34.6508C1104.96 35.5692 1103.87 36.0457 1102.55 36.1451Z" fill="white"/>
<path d="M1134.19 30.8807C1133.98 32.4793 1133.14 33.6591 1131.69 34.3898C1130.23 35.1204 1128.16 35.4322 1125.49 35.3264C1123.5 35.247 1122.03 34.8247 1121.06 34.0584C1120.06 33.2909 1119.67 32.2447 1119.88 30.8882C1119.97 30.1337 1120.27 29.5088 1120.8 29.0448C1121.33 28.5808 1121.98 28.3639 1122.77 28.3951C1123.52 28.4252 1124.09 28.66 1124.47 29.0995C1124.81 29.5378 1124.94 30.0888 1124.86 30.7827C1124.77 31.4161 1124.54 31.9224 1124.16 32.3318C1123.78 32.7413 1123.28 32.9945 1122.67 33.1218C1122.9 33.3737 1123.26 33.5698 1123.68 33.7077C1124.1 33.8457 1124.61 33.9267 1125.21 33.9507C1126.21 33.9904 1127.01 33.7492 1127.61 33.1968C1128.21 32.6747 1128.57 31.8704 1128.74 30.7853C1128.84 29.6675 1128.72 28.8743 1128.32 28.4033C1127.91 27.9323 1127.1 27.6576 1125.95 27.6119L1124.32 27.547L1124.52 26.2511L1126.15 26.3161C1127.15 26.3558 1127.89 26.1727 1128.39 25.7075C1128.86 25.2714 1129.17 24.4345 1129.34 23.2283C1129.44 22.3527 1129.34 21.712 1129.02 21.2749C1128.68 20.8366 1128.14 20.6031 1127.35 20.5718C1126.41 20.5345 1125.55 20.8944 1124.76 21.6212C1123.95 22.3772 1123.42 23.3268 1123.17 24.4688L1121.86 24.4171L1122.78 18.8739L1123.87 18.9172L1124.61 20.2201C1125.08 19.8143 1125.73 19.5368 1126.55 19.3271C1127.35 19.1161 1128.29 19.0323 1129.32 19.0732C1131.23 19.149 1132.67 19.57 1133.61 20.2746C1134.55 21.0094 1134.94 22.0254 1134.76 23.3225C1134.6 24.3773 1134.08 25.2361 1133.15 25.8661C1132.21 26.4961 1131.01 26.873 1129.49 26.9946C1131.06 27.2085 1132.29 27.6514 1133.11 28.3209C1133.93 28.9903 1134.29 29.8537 1134.19 30.8807Z" fill="white"/>
<path d="M1152.48 38.3474C1150.9 38.066 1149.87 37.452 1149.39 36.5053C1148.88 35.5532 1148.9 34.2333 1149.43 32.4805L1150.16 30.1173L1146.55 29.475L1144.42 36.421L1139.02 35.4603L1143.15 21.9455L1141.12 21.5846L1141.53 20.3038C1143.17 20.5958 1144.58 20.8154 1145.72 20.9574C1146.87 21.0994 1147.66 21.1181 1148.16 21.0837L1149 21.5413L1146.96 28.1943L1150.54 28.8312L1152.54 22.2624L1157.94 23.2231L1154.32 35.1045C1154.16 35.6309 1154.1 35.9888 1154.14 36.2434C1154.19 36.498 1154.35 36.6193 1154.59 36.6618C1154.89 36.7149 1155.2 36.524 1155.53 36.0593C1155.82 35.6192 1156.14 34.9052 1156.44 33.9122L1157.87 34.1669C1157.23 36.0231 1156.52 37.2508 1155.71 37.8446C1154.89 38.4385 1153.82 38.5862 1152.48 38.3474Z" fill="white"/>
<path d="M1179.27 38.211C1178.19 40.3353 1176.61 41.7975 1174.47 42.6444C1172.31 43.481 1170.14 43.5126 1167.94 42.729C1165.74 41.9453 1164.24 40.5723 1163.44 38.5813C1162.62 36.6189 1162.75 34.5419 1163.84 32.389C1164.88 30.2831 1166.47 28.8209 1168.63 27.9842C1170.8 27.1475 1172.96 27.1159 1175.19 27.9098C1177.36 28.6833 1178.85 30.0849 1179.66 32.0473C1180.45 33.9995 1180.32 36.0765 1179.27 38.211ZM1169.18 34.2922C1168.06 36.5307 1167.47 38.186 1167.39 39.3152C1167.31 40.4444 1167.71 41.1332 1168.56 41.4385C1169.42 41.7438 1170.24 41.5213 1171.06 40.7525C1171.87 40.0122 1172.82 38.5178 1173.93 36.3078C1175.01 34.0877 1175.6 32.4324 1175.68 31.3032C1175.75 30.2025 1175.4 29.4954 1174.54 29.1901C1173.68 28.8848 1172.85 29.1359 1172.03 29.9046C1171.18 30.6633 1170.24 32.1292 1169.18 34.2922Z" fill="white"/>
<path d="M1198.61 48.4018C1197.2 50.3184 1195.39 51.4986 1193.15 51.9806C1190.88 52.4478 1188.73 52.1206 1186.7 50.9843C1184.66 49.848 1183.4 48.245 1182.94 46.1488C1182.46 44.0791 1182.93 42.0521 1184.37 40.1091C1185.74 38.2042 1187.54 37.024 1189.82 36.5567C1192.09 36.0895 1194.23 36.4167 1196.29 37.5677C1198.31 38.6893 1199.55 40.3188 1200.02 42.3885C1200.47 44.4434 1200 46.4704 1198.61 48.4018ZM1189.31 42.8687C1187.84 44.8912 1186.98 46.426 1186.72 47.5263C1186.45 48.6266 1186.73 49.3716 1187.52 49.8143C1188.32 50.257 1189.16 50.173 1190.1 49.5506C1191.02 48.9547 1192.2 47.6381 1193.66 45.6421C1195.1 43.6314 1195.95 42.0965 1196.22 40.9962C1196.47 39.9224 1196.24 39.1657 1195.44 38.723C1194.65 38.2803 1193.79 38.3907 1192.85 39.0131C1191.89 39.6208 1190.72 40.9109 1189.31 42.8687Z" fill="white"/>
<path d="M1215.96 61.7738C1214.29 63.3838 1212.31 64.2511 1210.04 64.333C1207.74 64.4387 1205.7 63.7396 1203.9 62.3023C1201.87 60.6758 1200.9 58.7788 1201.02 56.5878C1201.12 54.3778 1202.32 52.153 1204.59 49.9368C1207.47 47.1146 1210.19 45.4519 1212.74 44.9723C1215.3 44.4926 1217.94 45.1676 1220.65 47.0208C1220.98 47.2856 1221.45 47.6212 1221.99 48.0137C1222.53 48.4061 1222.9 48.6661 1223.07 48.7985C1223.79 49.2996 1224.32 49.6068 1224.72 49.6917C1225.12 49.7767 1225.45 49.696 1225.73 49.4498L1226.75 50.263C1225.81 51.1438 1225.02 51.75 1224.28 52.0912C1223.54 52.4324 1222.82 52.5133 1222.07 52.3813C1221.6 52.2823 1221.13 52.098 1220.63 51.8523C1220.1 51.5876 1219.01 50.9116 1217.38 49.8007C1216 48.8552 1214.88 48.2265 1214.02 47.8485C1213.13 47.4942 1212.3 47.3291 1211.57 47.3675C1210.73 47.3964 1209.9 47.662 1209.05 48.1452C1208.18 48.6521 1207.16 49.4336 1206.08 50.5037L1206.36 50.7307C1207.75 49.8638 1209.22 49.4843 1210.76 49.5921C1212.3 49.6999 1213.77 50.2905 1215.19 51.4252C1216.94 52.8248 1217.89 54.5088 1218.06 56.4725C1218.22 58.4599 1217.51 60.2207 1215.96 61.7738ZM1207.54 54.932C1205.91 56.5798 1204.88 57.9244 1204.47 58.9184C1204.07 59.9124 1204.22 60.6931 1204.93 61.2605C1205.64 61.8279 1206.49 61.8841 1207.49 61.4481C1208.5 61.0121 1209.81 60.0033 1211.42 58.3792C1213.01 56.7787 1214.01 55.4814 1214.37 54.5347C1214.74 53.5881 1214.59 52.8074 1213.9 52.2589C1213.19 51.6915 1212.32 51.6164 1211.33 52.0287C1210.32 52.4222 1209.07 53.4025 1207.54 54.932Z" fill="white"/>
<path d="M1223.52 71.0601C1222.15 72.073 1221.3 72.9368 1220.92 73.6926C1220.54 74.4484 1220.62 75.1594 1221.21 75.807C1221.75 76.3876 1222.51 76.5494 1223.55 76.2513C1224.6 75.9533 1225.94 75.175 1227.67 73.92C1229.39 72.6651 1230.51 71.5983 1231.06 70.7643C1231.59 69.908 1231.58 69.1783 1231.05 68.5977C1230.52 68.0171 1229.71 67.8535 1228.69 68.0883C1227.63 68.3212 1226.4 68.9543 1224.98 70.0081C1224.94 70.0491 1224.69 70.2316 1224.25 70.5555C1223.79 70.9 1223.52 71.0601 1223.52 71.0601ZM1214.61 81.7834L1207.07 73.5655L1208.16 72.776L1209.57 74.3169L1226.19 62.4471L1224.8 60.9286L1225.9 60.1615C1226.86 61.2111 1227.71 62.0838 1228.41 62.7575C1229.11 63.4311 1229.67 63.8628 1230.04 64.0935L1230.45 64.9906L1226.74 67.6178C1228.18 66.9083 1229.59 66.6474 1230.93 66.8127C1232.25 66.9986 1233.41 67.5846 1234.37 68.6342C1235.6 69.9741 1235.96 71.491 1235.48 73.2072C1234.98 74.9011 1233.78 76.4575 1231.8 77.8949C1229.94 79.2727 1227.92 79.9786 1225.82 80.0163C1223.69 80.0745 1222.02 79.4234 1220.79 78.0835C1220.14 77.3689 1219.72 76.6859 1219.49 75.9898C1219.26 75.2937 1219.27 74.6292 1219.47 73.9517L1213.3 78.3812L1215.69 80.9939L1214.61 81.7834Z" fill="white"/>
<path d="M1238.95 86.888C1237.13 87.8142 1235.91 88.6641 1235.29 89.3706C1234.65 90.094 1234.54 90.7496 1234.96 91.3794C1235.4 92.0345 1236.1 92.328 1237.12 92.2682C1238.11 92.2252 1239.37 91.8206 1240.9 91.0544C1240.9 91.0544 1240.97 91.0039 1241.09 90.9617L1241.76 90.6586C1242.08 90.4818 1242.3 90.3723 1242.42 90.3302C1242.52 90.2629 1242.59 90.2544 1242.61 90.2376C1244.18 89.4125 1245.22 88.6803 1245.77 87.9823C1246.32 87.2843 1246.39 86.6203 1245.97 85.9904C1245.5 85.285 1244.7 85.0168 1243.62 85.1523C1242.51 85.2794 1240.95 85.844 1238.95 86.888ZM1231.34 91.03C1230.34 89.5435 1230.21 88.0309 1230.96 86.4335C1231.72 84.836 1233.19 83.49 1235.42 82.3618C1237.56 81.2588 1239.7 80.9206 1241.82 81.3639C1243.94 81.8073 1245.66 82.957 1246.94 84.8718C1247.49 85.7032 1247.82 86.5769 1247.9 87.4676C1247.99 88.3583 1247.88 89.2324 1247.54 90.0815L1250.55 90.2887L1251.56 91.8004L1240.15 97.568C1239.66 97.8206 1239.31 98.0562 1239.13 98.2833C1238.96 98.5104 1238.96 98.7289 1239.09 98.9304C1239.26 99.1824 1239.6 99.2493 1240.12 99.1564C1240.64 99.0634 1241.37 98.7938 1242.33 98.3306L1243.13 99.5148C1241.29 100.374 1239.92 100.711 1238.95 100.519C1237.98 100.327 1237.13 99.6551 1236.36 98.4961C1235.7 97.5135 1235.49 96.5977 1235.74 95.7739C1236 94.95 1236.68 94.1678 1237.83 93.4356L1238.59 92.9979C1236.93 93.4533 1235.51 93.5219 1234.27 93.1869C1233.03 92.852 1232.08 92.1386 1231.34 91.03Z" fill="white"/>
<path d="M1250.93 116.128C1249.42 116.679 1247.98 116.487 1246.66 115.537C1245.34 114.588 1244.1 112.895 1242.96 110.486C1242.1 108.679 1241.79 107.182 1242.02 105.967C1242.24 104.724 1242.99 103.899 1244.29 103.452C1245 103.182 1245.69 103.156 1246.35 103.414C1247.01 103.672 1247.5 104.143 1247.83 104.855C1248.16 105.539 1248.21 106.15 1248 106.688C1247.77 107.198 1247.34 107.569 1246.69 107.812C1246.09 108.03 1245.53 108.059 1244.99 107.912C1244.45 107.766 1244 107.444 1243.6 106.962C1243.49 107.285 1243.48 107.691 1243.55 108.126C1243.62 108.562 1243.79 109.053 1244.05 109.601C1244.48 110.504 1245.06 111.099 1245.83 111.373C1246.57 111.659 1247.45 111.61 1248.49 111.252C1249.53 110.826 1250.17 110.352 1250.4 109.774C1250.63 109.196 1250.5 108.353 1250.01 107.312L1249.3 105.834L1250.55 105.413L1251.25 106.891C1251.68 107.795 1252.18 108.361 1252.83 108.591C1253.43 108.807 1254.31 108.69 1255.46 108.28C1256.28 107.959 1256.8 107.576 1257.04 107.094C1257.27 106.583 1257.23 106 1256.89 105.288C1256.49 104.439 1255.77 103.841 1254.76 103.481C1253.71 103.107 1252.63 103.084 1251.5 103.386L1250.94 102.209L1256.28 100.45L1256.74 101.435L1255.93 102.692C1256.51 102.921 1257.05 103.367 1257.62 104.002C1258.18 104.61 1258.69 105.407 1259.13 106.338C1259.95 108.062 1260.25 109.532 1260.06 110.694C1259.85 111.869 1259.12 112.68 1257.89 113.129C1256.88 113.474 1255.88 113.412 1254.89 112.877C1253.9 112.341 1253.01 111.455 1252.2 110.164C1252.73 111.652 1252.91 112.944 1252.7 113.983C1252.49 115.022 1251.89 115.741 1250.93 116.128Z" fill="white"/>
<path d="M1252.64 136.038C1252.18 134.501 1252.26 133.305 1252.89 132.451C1253.51 131.568 1254.69 130.988 1256.5 130.666L1258.93 130.247L1257.87 126.737L1250.72 127.979L1249.13 122.728L1263.05 120.301L1262.46 118.328L1263.79 118.117C1264.27 119.713 1264.71 121.068 1265.1 122.152C1265.49 123.237 1265.83 123.957 1266.09 124.386L1266.06 125.343L1259.2 126.526L1260.25 130.007L1267.02 128.822L1268.6 134.072L1256.37 136.213C1255.83 136.312 1255.48 136.417 1255.27 136.574C1255.07 136.731 1255.03 136.931 1255.1 137.164C1255.19 137.454 1255.5 137.645 1256.06 137.728C1256.59 137.791 1257.37 137.746 1258.39 137.565L1258.81 138.957C1256.86 139.227 1255.45 139.148 1254.55 138.691C1253.65 138.234 1253.04 137.344 1252.64 136.038Z" fill="white"/>
<path d="M1261.87 158.983C1260.29 158.985 1258.99 158.313 1257.92 156.974C1256.85 155.634 1256.18 153.821 1255.91 151.534C1255.64 149.186 1255.98 147.468 1256.95 146.318C1257.91 145.168 1259.53 144.614 1261.78 144.626L1269.63 144.657L1269.39 142.61L1270.71 142.64C1270.9 144.295 1271.09 145.676 1271.28 146.813C1271.48 147.949 1271.69 148.748 1271.87 149.216L1271.7 150.15L1265.69 150.089C1265.85 150.436 1265.99 150.847 1266.1 151.291C1266.21 151.736 1266.3 152.214 1266.36 152.695C1266.57 154.501 1266.26 156.032 1265.45 157.224C1264.61 158.42 1263.43 158.985 1261.87 158.983ZM1257.41 164.385C1257.22 162.79 1257.51 161.627 1258.28 160.897C1259.05 160.136 1260.32 159.775 1262.15 159.775L1272.83 159.811L1273.47 165.289L1261.05 165.242C1260.5 165.245 1260.14 165.287 1259.91 165.405C1259.67 165.493 1259.6 165.685 1259.63 165.955C1259.67 166.256 1259.94 166.499 1260.48 166.65C1260.98 166.805 1261.76 166.898 1262.8 166.899L1262.96 168.343C1261 168.267 1259.62 167.94 1258.82 167.332C1258.02 166.724 1257.57 165.739 1257.41 164.385ZM1257.79 151.681C1257.86 152.283 1258.18 152.733 1258.8 153.027C1259.41 153.322 1260.34 153.457 1261.56 153.467C1262.66 153.461 1263.43 153.28 1263.94 152.946C1264.42 152.585 1264.64 152.072 1264.55 151.35C1264.52 151.109 1264.47 150.872 1264.38 150.668C1264.29 150.434 1264.21 150.261 1264.13 150.087L1261.2 150.063C1259.85 150.037 1258.95 150.172 1258.43 150.416C1257.91 150.659 1257.72 151.079 1257.79 151.681Z" fill="white"/>
<path d="M1279.25 188.075C1278.04 188.004 1277.06 187.486 1276.27 186.49C1275.48 185.493 1275.13 184.269 1275.18 182.785C1275.23 181.331 1275.66 180.164 1276.51 179.282C1277.36 178.401 1278.37 177.98 1279.58 178.081C1280.19 178.101 1280.67 178.299 1281.02 178.675C1281.37 179.05 1281.56 179.542 1281.54 180.148C1281.53 180.693 1281.36 181.142 1281.05 181.435C1280.73 181.727 1280.34 181.866 1279.85 181.849C1279.19 181.797 1278.71 181.478 1278.43 180.923C1278.14 180.368 1278.14 179.64 1278.44 178.771C1278.12 179.094 1277.86 179.631 1277.66 180.382C1277.45 181.102 1277.36 181.948 1277.33 182.917C1277.3 183.886 1277.33 184.767 1277.48 185.53C1277.64 186.293 1277.86 186.876 1278.18 187.311C1277.91 186.363 1277.94 185.636 1278.26 185.101C1278.58 184.566 1279.07 184.309 1279.77 184.363C1280.25 184.379 1280.64 184.574 1280.93 184.917C1281.22 185.23 1281.36 185.689 1281.34 186.265C1281.32 186.84 1281.09 187.287 1280.72 187.639C1280.34 187.96 1279.85 188.095 1279.25 188.075ZM1261.38 183.841C1260.1 183.282 1259.15 182.554 1258.55 181.624C1257.91 180.693 1257.64 179.593 1257.69 178.321C1257.74 176.686 1258.26 175.521 1259.32 174.798C1260.34 174.074 1261.78 173.849 1263.59 174.122L1272.24 175.472L1272.31 173.412L1273.61 173.637C1273.55 175.303 1273.53 176.697 1273.56 177.85C1273.58 179.003 1273.67 179.824 1273.78 180.313L1273.48 181.212L1262.83 179.523C1261.86 179.37 1261.17 179.377 1260.74 179.575C1260.28 179.741 1260.05 180.098 1260.03 180.643C1260.01 181.309 1260.39 181.897 1261.19 182.379C1261.96 182.829 1263.19 183.204 1264.85 183.441L1271.94 184.557L1271.99 182.952L1273.29 183.207C1273.24 184.661 1273.23 185.933 1273.25 187.056C1273.27 188.179 1273.37 188.97 1273.47 189.398L1273.17 190.297L1261.05 188.407C1260.5 188.329 1260.08 188.315 1259.8 188.396C1259.53 188.478 1259.4 188.656 1259.39 188.898C1259.38 189.201 1259.59 189.48 1260.06 189.709C1260.54 189.906 1261.29 190.113 1262.38 190.301L1262.33 191.755C1260.37 191.386 1259.06 190.857 1258.38 190.138C1257.68 189.387 1257.38 188.315 1257.43 186.922C1257.46 185.953 1257.73 185.204 1258.23 184.675C1258.73 184.146 1259.5 183.839 1260.5 183.781C1260.5 183.781 1260.66 183.786 1260.93 183.826C1261.2 183.835 1261.35 183.84 1261.38 183.841Z" fill="white"/>
</svg>
