<svg width="1440" height="960" viewBox="0 0 1440 960" fill="none" xmlns="http://www.w3.org/2000/svg">
<g clip-path="url(#clip0_1635_795)">
<rect width="480" height="480" fill="#0077FF"/>
<mask id="mask0_1635_795" style="mask-type:luminance" maskUnits="userSpaceOnUse" x="142" y="53" width="220" height="121">
<path d="M142.948 173.784L361.434 172.956L360.983 53.9569L142.497 54.7844L142.948 173.784Z" fill="white"/>
</mask>
<g mask="url(#mask0_1635_795)">
<path d="M367.229 252.822C361.533 296.602 348.513 330.248 328.984 352.949C309.454 375.65 283.415 387 251.679 387C222.792 387 199.601 376.46 182.105 354.976C164.203 333.896 157.287 307.547 160.949 276.334C164.61 245.526 176.409 220.393 195.939 200.935C215.468 181.477 239.066 171.748 266.326 171.748C279.346 171.748 290.331 174.586 299.282 179.855C307.827 185.531 314.336 193.638 318.405 204.583C318.812 164.857 314.336 135.265 305.385 116.212C296.028 97.1598 281.38 87.4309 261.851 87.4309C251.272 87.4309 242.321 89.0524 234.591 92.2954C226.454 95.5383 219.537 99.9974 213.027 106.483L204.483 95.9437C213.027 87.0256 222.792 80.5396 233.37 76.4859C243.949 72.4322 255.748 70 269.174 70C307.013 70 334.68 86.6202 351.768 119.455C368.856 152.29 373.739 196.881 367.229 252.822ZM218.316 276.334C214.248 307.953 215.468 331.464 221.164 347.274C226.861 363.083 237.846 370.785 253.307 370.785C267.14 370.785 278.939 363.083 287.89 347.679C296.841 332.275 302.944 310.385 306.199 281.198C309.454 249.985 308.233 226.473 302.537 211.069C296.434 195.665 285.856 187.558 270.395 187.558C256.155 187.558 244.763 194.449 236.625 208.231C228.488 222.014 222.385 244.715 218.316 276.334Z" fill="#080D12"/>
</g>
<path d="M386 406.5H54L87 752.5H425.5L386 406.5Z" fill="#080D12"/>
<path d="M240 418L265 394.5L289 418L265 441.5L290.5 642L279.5 717.5L248.5 709L239 642L265 441.5L240 418Z" fill="white" fill-opacity="0.3"/>
<path d="M384.535 161.5C384.535 178.069 371.104 191.5 354.535 191.5C337.967 191.5 324.535 178.069 324.535 161.5C324.535 144.931 337.967 131.5 354.535 131.5C371.104 131.5 384.535 144.931 384.535 161.5Z" fill="#080D12"/>
<path d="M191.5 250C208.069 250 221.5 235.673 221.5 218C221.5 200.327 208.069 186 191.5 186C174.931 186 161.5 200.327 161.5 218C161.5 235.673 174.931 250 191.5 250Z" fill="#080D12"/>
<path d="M205.5 158C205.5 173.464 192.516 186 176.5 186C160.484 186 147.5 173.464 147.5 158C147.5 142.536 156.984 130 173 130C189.016 130 205.5 142.536 205.5 158Z" fill="#080D12"/>
<path d="M345 254C362.397 254 376.5 240.121 376.5 223C376.5 205.879 362.397 192 345 192C327.603 192 313.5 205.879 313.5 223C313.5 240.121 327.603 254 345 254Z" fill="#080D12"/>
<mask id="mask1_1635_795" style="mask-type:alpha" maskUnits="userSpaceOnUse" x="173" y="130" width="185" height="272">
<path d="M358 131.5L173 130L237 401.5H296.5L358 131.5Z" fill="#D9D9D9"/>
</mask>
<g mask="url(#mask1_1635_795)">
<path d="M360.5 70H264.5V495H360.5V70Z" fill="#E2E2E2"/>
<path d="M264.5 70H169.5V497H264.5V70Z" fill="#C2C2C2"/>
</g>
<path d="M218 406.5L215.5 328.5L265 394.5L312.5 331V406.5H218Z" fill="#080D12"/>
<path d="M269.174 71C287.944 71 304.136 75.1211 317.738 83.2725C331.339 91.4232 342.409 103.638 350.881 119.917C367.837 152.5 372.734 196.859 366.235 252.706C360.553 296.367 347.581 329.798 328.226 352.297C308.901 374.759 283.148 386 251.679 386C223.072 386 200.174 375.58 182.88 354.345L182.874 354.337L182.867 354.329L182.046 353.349C164.962 332.68 158.363 306.953 161.941 276.452C165.579 245.843 177.291 220.926 196.645 201.644C215.987 182.372 239.332 172.748 266.326 172.748C279.19 172.748 289.987 175.549 298.756 180.706C307.103 186.259 313.473 194.187 317.468 204.932L319.404 204.593C319.812 164.822 315.338 135.047 306.29 115.787L306.282 115.771L305.834 114.873C301.159 105.663 295.201 98.6195 287.984 93.8428C280.53 88.9087 271.789 86.4307 261.851 86.4307C251.177 86.4307 242.095 88.0659 234.221 91.3662C226.289 94.5274 219.49 98.8339 213.111 105L205.818 96.0029C213.852 87.7846 222.942 81.7209 232.752 77.8018L233.728 77.4199C244.195 73.4089 255.873 71 269.174 71ZM270.395 186.558C255.986 186.558 244.425 193.455 236.155 207.069L235.764 207.723C227.519 221.689 221.397 244.56 217.324 276.206C213.249 307.881 214.446 331.581 220.223 347.613C223.123 355.663 227.399 361.723 232.987 365.768C238.578 369.814 245.405 371.785 253.307 371.785C267.589 371.785 279.676 363.803 288.754 348.182C297.804 332.606 303.93 310.559 307.192 281.309L307.193 281.302C310.452 250.051 309.253 226.35 303.475 210.723L303.471 210.711L303.467 210.7L303.172 209.972C300.097 202.497 295.924 196.696 290.57 192.733C285.035 188.637 278.309 186.558 270.395 186.558Z" stroke="white" stroke-width="2"/>
</g>
<g clip-path="url(#clip1_1635_795)">
<rect width="480" height="480" transform="translate(480)" fill="#FF0000"/>
<g clip-path="url(#clip2_1635_795)">
<path d="M840.2 431.077H605.881C605.881 431.077 587.132 504.056 587.337 551.724C587.537 598.091 605.881 669 605.881 669H840.2C840.2 669 851.873 597.754 852.001 551.724C852.132 504.384 840.2 431.077 840.2 431.077Z" fill="#080D12"/>
<mask id="mask2_1635_795" style="mask-type:alpha" maskUnits="userSpaceOnUse" x="668" y="247" width="107" height="185">
<path d="M771.423 247.748H673.649C673.649 247.748 666.462 306.351 669.267 343.793C671.868 378.517 685.787 431.414 685.787 431.414H752.88C752.88 431.414 769.298 378.703 773.109 343.793C777.18 306.501 771.423 247.748 771.423 247.748Z" fill="#D9D9D9"/>
</mask>
<g mask="url(#mask2_1635_795)">
<path d="M787.272 195.176H722.539V481.627H787.272V195.176Z" fill="#E2E2E2"/>
<path d="M722.538 195.176H657.805V482.975H722.538V195.176Z" fill="#C2C2C2"/>
</g>
<path d="M679.386 431.751L671.625 410.686C671.625 410.686 698.434 407.63 709.369 411.366C720.304 415.103 719.599 431.751 719.599 431.751H724.537C724.537 431.751 726.562 417.889 735.472 413.065C745.806 407.47 770.747 410.686 770.747 410.686L766.867 431.751H724.537H719.599H679.386Z" fill="#080D12"/>
<mask id="mask3_1635_795" style="mask-type:luminance" maskUnits="userSpaceOnUse" x="665" y="179" width="140" height="78">
<path d="M804.959 255.058L666.973 256.996L665.911 181.511L803.898 179.573L804.959 255.058Z" fill="white"/>
</mask>
<g mask="url(#mask3_1635_795)">
<path d="M806.958 185.919C800.315 208.929 790.13 226.63 776.845 238.135C763.559 250.083 747.174 255.836 727.689 255.836C706.433 255.836 690.934 249.198 680.748 235.038C670.12 221.32 666.577 202.292 669.677 177.511L686.062 44.3142H652.406L654.621 27.4985C678.534 27.4985 698.019 27.4985 712.19 26.6135C726.361 25.7286 735.218 24.4008 739.646 22.6309L748.946 26.6135L729.904 181.936C728.132 197.424 729.018 208.929 732.56 216.01C736.103 223.532 742.746 227.072 752.489 227.072C764.888 227.072 775.516 219.992 783.488 205.389C791.458 191.229 797.659 169.546 801.201 141.225L813.158 44.3142H787.03L789.244 27.4985C810.944 27.4985 828.215 27.0557 841.5 26.1707C854.342 25.2858 862.756 24.4008 866.741 22.6309L876.041 26.6135L854.342 205.389C853.013 214.682 853.456 221.762 855.228 226.187C856.999 230.613 860.099 232.825 864.97 232.825C871.17 232.825 876.041 228.842 879.584 220.877C883.127 212.912 886.227 200.079 888.441 182.378H905.269C900.841 211.584 894.641 231.055 885.784 240.79C876.927 250.525 864.085 255.393 846.371 255.393C832.2 255.393 822.014 251.411 814.929 243.445C807.844 235.48 804.743 223.532 804.743 207.602V205.389C804.743 204.062 805.187 200.964 806.073 196.539C806.073 192.556 806.515 189.901 806.515 188.131L806.958 185.919Z" fill="black"/>
</g>
</g>
<path d="M747.861 27.5635L728.911 182.492L728.91 182.5C727.136 198.043 727.985 209.816 731.655 217.188V217.188C733.509 221.133 736.195 224.071 739.717 226.011C743.225 227.943 747.5 228.852 752.488 228.852C765.352 228.852 776.267 221.458 784.358 206.608L784.359 206.609C792.421 192.255 798.643 170.377 802.193 141.935L802.194 141.933L814.15 44.8047L814.289 43.6826H788.17L790.121 28.8271C811.421 28.8153 828.43 28.3731 841.566 27.4961H841.568C847.992 27.0525 853.332 26.6065 857.572 26.0479C861.526 25.5269 864.609 24.8975 866.738 24.0371L874.958 27.5645L853.353 205.978C852.015 215.353 852.431 222.658 854.299 227.335C855.238 229.686 856.562 231.529 858.368 232.776C860.176 234.025 862.379 234.617 864.97 234.617C871.725 234.617 876.872 230.219 880.498 222.048C884.041 214.064 887.111 201.38 889.321 184.057H904.103C901.929 198.151 899.34 209.905 896.237 219.334C893.047 229.029 889.337 236.197 885.043 240.928C876.431 250.416 863.895 255.235 846.371 255.235C832.4 255.235 822.522 251.309 815.678 243.598V243.597C808.831 235.883 805.743 224.206 805.743 208.337V206.119C805.743 204.903 806.164 201.895 807.053 197.445L807.072 197.348V197.249C807.072 195.291 807.181 193.657 807.291 192.283C807.395 190.985 807.505 189.849 807.513 188.928L807.938 186.801L805.997 186.328C799.389 209.272 789.284 226.818 776.189 238.184L776.183 238.189L776.176 238.196C763.097 249.985 746.96 255.68 727.689 255.68C706.662 255.68 691.509 249.114 681.561 235.251L681.551 235.236L681.54 235.223L681.057 234.588C671.026 221.176 667.635 202.613 670.669 178.302L670.67 178.3L687.055 44.8037L687.192 43.6826H653.546L655.497 28.8281C678.998 28.828 698.216 28.8179 712.252 27.9395C726.01 27.0783 734.914 25.7935 739.625 24.0293L747.861 27.5635Z" stroke="white" stroke-width="2"/>
</g>
<g clip-path="url(#clip3_1635_795)">
<rect width="480" height="480" transform="translate(960)" fill="#EB6502"/>
<g clip-path="url(#clip4_1635_795)">
<path d="M1405.27 401.893H1278.79H1228.02L1219.41 418.849L1208.98 401.893H1038.99C1038.99 401.893 1034.64 477.64 1038.99 525.854C1043.34 574.144 1061.2 648 1061.2 648L1380.79 645.25C1380.79 645.25 1394.14 572.774 1398.92 525.854C1403.84 477.632 1405.27 401.893 1405.27 401.893Z" fill="#080D12"/>
<mask id="mask4_1635_795" style="mask-type:luminance" maskUnits="userSpaceOnUse" x="1156" y="124" width="121" height="295">
<path d="M1276.35 124H1156.68V418.239H1276.35V124Z" fill="white"/>
</mask>
<g mask="url(#mask4_1635_795)">
<mask id="mask5_1635_795" style="mask-type:alpha" maskUnits="userSpaceOnUse" x="1156" y="37" width="121" height="384">
<path d="M1276.07 37.7261H1156.4V301.632L1219.92 420.964L1276.07 301.632V37.7261Z" fill="#ADADAD"/>
</mask>
<g mask="url(#mask5_1635_795)">
<path d="M1277.89 124.473H1219.86V421.437H1277.89V124.473Z" fill="#E2E2E2"/>
<path d="M1219.86 124.473H1156.4V423.253H1219.86V124.473Z" fill="#C2C2C2"/>
</g>
</g>
<path d="M1222.13 418.239H1217.59V563.543H1222.13V418.239Z" fill="white"/>
<path d="M1219.88 418.372L1276.07 300.18L1281.06 467.279L1219.88 418.372L1154.13 467.279L1156.41 300.18L1219.88 418.372Z" fill="#FEFEFE"/>
<mask id="mask6_1635_795" style="mask-type:luminance" maskUnits="userSpaceOnUse" x="1148" y="124" width="136" height="38">
<path d="M1283.66 124H1148.57V161.234H1283.66V124Z" fill="white"/>
</mask>
<g mask="url(#mask6_1635_795)">
<path d="M1243.43 152.152C1255.63 152.152 1264.78 146.81 1270.88 136.59C1276.98 126.138 1280.03 110.808 1280.03 90.3678C1280.03 74.5733 1277.22 62.2629 1271.59 53.9011C1265.96 45.5393 1257.51 41.3584 1246.72 41.3584C1240.85 41.3584 1236.16 42.9843 1232.41 46.4684C1228.89 49.7201 1227.01 54.3657 1227.01 60.4047C1227.01 66.4437 1228.65 71.0892 1231.94 74.3411C1235.22 77.5929 1239.91 79.451 1245.55 79.451C1250.24 79.451 1253.99 78.2897 1257.04 75.9669C1260.09 73.6442 1262.44 69.9278 1263.85 65.2824C1265.72 67.6052 1267.13 70.6247 1268.07 74.1088C1269.01 77.5929 1269.48 81.7737 1269.48 86.6514C1269.48 94.3165 1267.36 100.123 1263.14 104.072C1258.92 108.02 1252.58 110.111 1243.9 110.111C1235.46 110.111 1229.59 108.02 1225.84 104.072C1222.08 100.123 1220.21 93.6196 1220.21 84.561V72.2506H1210.12V84.7933C1210.12 92.4582 1208.48 98.0328 1204.96 101.285C1201.67 104.536 1195.34 106.162 1186.42 106.162C1179.38 106.162 1174.22 104.536 1170.7 101.285C1167.18 98.0328 1165.31 93.155 1165.31 86.8837C1165.31 78.9865 1168.12 72.4828 1173.75 67.6052C1179.38 62.4951 1187.13 59.9401 1196.75 59.4756V49.2556H1153.57V57.6175L1163.43 65.0501C1160.14 68.7665 1157.8 73.8765 1155.92 79.9155C1154.04 85.9546 1153.11 92.6905 1153.11 100.356C1153.11 115.685 1155.92 127.531 1161.32 135.429C1166.71 143.326 1174.69 147.507 1185.01 147.507C1193.23 147.507 1199.8 144.255 1204.96 137.984C1210.12 131.48 1213.17 122.654 1214.34 111.272C1215.75 124.28 1218.8 134.499 1223.73 141.468C1228.89 148.436 1235.46 152.152 1243.43 152.152Z" fill="black"/>
</g>
</g>
<path d="M1246.72 42.3584C1257.22 42.3584 1265.34 46.4034 1270.76 54.46C1276.23 62.5856 1279.04 74.6651 1279.04 90.3682C1279.04 110.732 1275.99 125.849 1270.03 136.077C1264.11 145.998 1255.28 151.152 1243.44 151.152C1235.83 151.152 1229.54 147.629 1224.53 140.872C1219.76 134.105 1216.74 124.088 1215.34 111.165L1213.35 111.17C1212.19 122.428 1209.19 131.045 1204.19 137.348C1199.21 143.397 1192.92 146.507 1185.02 146.507C1175.01 146.507 1167.35 142.475 1162.15 134.864C1156.91 127.204 1154.11 115.591 1154.11 100.355C1154.11 92.7723 1155.04 86.1385 1156.88 80.2119C1158.74 74.2284 1161.03 69.2739 1164.18 65.7119L1164.9 64.9023L1164.04 64.252L1154.58 57.1191V50.2559H1195.75V58.5293C1186.42 59.1205 1178.75 61.7216 1173.08 66.8643C1167.23 71.9459 1164.31 78.7294 1164.31 86.8838C1164.31 93.3543 1166.25 98.5304 1170.03 102.02C1173.8 105.505 1179.25 107.162 1186.43 107.162C1195.36 107.162 1202.05 105.552 1205.64 102.019L1205.64 102.02C1209.47 98.4812 1211.12 92.5508 1211.12 84.793V73.251H1219.21V84.5605C1219.21 93.7158 1221.1 100.536 1225.12 104.761C1229.13 108.982 1235.31 111.111 1243.91 111.111C1252.74 111.111 1259.36 108.985 1263.83 104.803C1268.31 100.609 1270.48 94.4989 1270.48 86.6514C1270.48 81.7145 1270.01 77.4414 1269.04 73.8486C1268.07 70.2688 1266.61 67.1127 1264.63 64.6543L1263.44 63.1846L1262.89 64.9922C1261.53 69.4947 1259.28 73.0082 1256.44 75.1709C1253.6 77.3368 1250.07 78.4512 1245.55 78.4512C1240.14 78.4512 1235.72 76.6712 1232.65 73.6309C1229.6 70.6193 1228.01 66.2616 1228.01 60.4043C1228.01 54.5845 1229.82 50.2284 1233.09 47.2031L1233.09 47.2012C1236.63 43.92 1241.06 42.3585 1246.72 42.3584Z" stroke="white" stroke-width="2"/>
</g>
<g clip-path="url(#clip5_1635_795)">
<rect width="480" height="480" transform="translate(0 480)" fill="#FCC945"/>
<mask id="mask7_1635_795" style="mask-type:luminance" maskUnits="userSpaceOnUse" x="131" y="546" width="209" height="75">
<path d="M339.76 546.205H131.266V620.071H339.76V546.205Z" fill="white"/>
</mask>
<g mask="url(#mask7_1635_795)">
<path d="M326.542 774.906C309.175 774.906 295.62 770.678 286.302 761.8C276.559 753.347 270.628 740.241 268.934 722.487C264.275 739.396 255.802 752.078 243.095 761.378C230.387 770.678 214.29 774.906 195.652 774.906C175.743 774.906 160.07 770.255 148.633 760.955C136.772 751.655 131.266 738.551 131.266 721.641C131.266 703.041 138.89 687.822 154.987 676.83C171.083 665.84 196.076 658.23 229.963 653.158L260.462 648.93V618.07C260.462 601.161 256.65 588.479 249.449 580.024C241.824 571.569 230.811 567.342 215.985 567.342C209.631 567.342 203.7 568.187 197.77 569.878C191.84 571.569 187.604 573.26 185.062 575.374C194.381 578.756 201.159 583.406 205.394 588.902C209.631 594.397 211.749 601.584 211.749 610.038C211.749 621.03 208.36 629.484 202.006 635.403C195.652 641.744 187.18 644.703 176.167 644.703C164.306 644.703 155.411 641.744 148.633 635.403C141.855 629.484 138.89 621.03 138.89 610.038C138.89 591.438 148.633 575.797 168.965 563.96C189.298 552.123 214.29 546.205 244.366 546.205C273.593 546.205 296.468 552.123 312.987 563.96C329.084 575.797 337.556 592.706 337.556 613.843V728.828C337.556 734.745 338.404 739.396 340.097 742.355C341.792 745.314 344.756 746.583 348.993 746.583C354.076 746.583 358.313 743.2 361.277 735.591C363.819 727.982 365.514 717.414 365.514 703.463H383.728C383.728 728.828 379.069 747.006 370.173 757.996C360.853 769.41 346.451 774.906 326.542 774.906ZM208.783 710.228C208.783 719.104 210.478 725.445 213.866 729.673C217.256 733.9 222.338 736.014 229.54 736.014C239.283 736.014 246.907 731.363 252.413 722.063C257.497 712.763 260.462 698.814 260.462 681.058V667.108L245.637 670.49C232.504 673.449 223.186 678.099 217.256 684.018C211.324 690.359 208.783 699.236 208.783 710.228Z" fill="#080D12"/>
<path d="M326.542 774.906C309.175 774.906 295.62 770.678 286.302 761.8C276.559 753.347 270.628 740.241 268.934 722.487C264.275 739.396 255.802 752.078 243.095 761.378C230.387 770.678 214.29 774.906 195.652 774.906C175.743 774.906 160.07 770.255 148.633 760.955C136.772 751.655 131.266 738.551 131.266 721.641C131.266 703.041 138.89 687.822 154.987 676.83C171.083 665.84 196.076 658.23 229.963 653.158L260.462 648.93V618.07C260.462 601.161 256.65 588.479 249.449 580.024C241.824 571.569 230.811 567.342 215.985 567.342C209.631 567.342 203.7 568.187 197.77 569.878C191.84 571.569 187.604 573.26 185.062 575.374C194.381 578.756 201.159 583.406 205.394 588.902C209.631 594.397 211.749 601.584 211.749 610.038C211.749 621.03 208.36 629.484 202.006 635.403C195.652 641.744 187.18 644.703 176.167 644.703C164.306 644.703 155.411 641.744 148.633 635.403C141.855 629.484 138.89 621.03 138.89 610.038C138.89 591.438 148.633 575.797 168.965 563.96C189.298 552.123 214.29 546.205 244.366 546.205C273.593 546.205 296.468 552.123 312.987 563.96C329.084 575.797 337.556 592.706 337.556 613.843V728.828C337.556 734.745 338.404 739.396 340.097 742.355C341.792 745.314 344.756 746.583 348.993 746.583C354.076 746.583 358.313 743.2 361.277 735.591C363.819 727.982 365.514 717.414 365.514 703.463H383.728C383.728 728.828 379.069 747.006 370.173 757.996C360.853 769.41 346.451 774.906 326.542 774.906ZM208.783 710.228C208.783 719.104 210.478 725.445 213.866 729.673C217.256 733.9 222.338 736.014 229.54 736.014C239.283 736.014 246.907 731.363 252.413 722.063C257.497 712.763 260.462 698.814 260.462 681.058V667.108L245.637 670.49C232.504 673.449 223.186 678.099 217.256 684.018C211.324 690.359 208.783 699.236 208.783 710.228Z" fill="#080D12"/>
</g>
<path d="M367.148 880.465H49L80.6232 1210.02H405L367.148 880.465Z" fill="#151515"/>
<mask id="mask8_1635_795" style="mask-type:alpha" maskUnits="userSpaceOnUse" x="162" y="618" width="178" height="259">
<path d="M339.925 619.52L162.883 618.093L224.13 876.479H281.071L339.925 619.52Z" fill="#D9D9D9"/>
</mask>
<g mask="url(#mask8_1635_795)">
<path d="M250.445 560.991H342.316V965.462H250.445V560.991Z" fill="#E2E2E2"/>
<path d="M159.531 560.991H250.445V967.365H159.531V560.991Z" fill="#C2C2C2"/>
</g>
<path d="M205.947 881.236L203.555 807.005L250.925 869.817L296.383 809.384V881.236H205.947Z" fill="#151515"/>
<mask id="mask9_1635_795" style="mask-type:luminance" maskUnits="userSpaceOnUse" x="131" y="546" width="128" height="100">
<path d="M258.915 546.205H131.266V645.64H258.915V546.205Z" fill="white"/>
</mask>
<g mask="url(#mask9_1635_795)">
<path d="M326.542 774.906C309.175 774.906 295.62 770.678 286.302 761.8C276.559 753.347 270.628 740.241 268.934 722.487C264.275 739.396 255.802 752.078 243.095 761.378C230.387 770.678 214.29 774.906 195.652 774.906C175.743 774.906 160.07 770.255 148.633 760.955C136.772 751.655 131.266 738.551 131.266 721.641C131.266 703.041 138.89 687.822 154.987 676.83C171.083 665.84 196.076 658.23 229.963 653.158L260.462 648.93V618.07C260.462 601.161 256.65 588.479 249.449 580.024C241.824 571.569 230.811 567.342 215.985 567.342C209.631 567.342 203.7 568.187 197.77 569.878C191.84 571.569 187.604 573.26 185.062 575.374C194.381 578.756 201.159 583.406 205.394 588.902C209.631 594.397 211.749 601.584 211.749 610.038C211.749 621.03 208.36 629.484 202.006 635.403C195.652 641.744 187.18 644.703 176.167 644.703C164.306 644.703 155.411 641.744 148.633 635.403C141.855 629.484 138.89 621.03 138.89 610.038C138.89 591.438 148.633 575.797 168.965 563.96C189.298 552.123 214.29 546.205 244.366 546.205C273.593 546.205 296.468 552.123 312.987 563.96C329.084 575.797 337.556 592.706 337.556 613.843V728.828C337.556 734.745 338.404 739.396 340.097 742.355C341.792 745.314 344.756 746.583 348.993 746.583C354.076 746.583 358.313 743.2 361.277 735.591C363.819 727.982 365.514 717.414 365.514 703.463H383.728C383.728 728.828 379.069 747.006 370.173 757.996C360.853 769.41 346.451 774.906 326.542 774.906ZM208.783 710.228C208.783 719.104 210.478 725.445 213.866 729.673C217.256 733.9 222.338 736.014 229.54 736.014C239.283 736.014 246.907 731.363 252.413 722.063C257.497 712.763 260.462 698.814 260.462 681.058V667.108L245.637 670.49C232.504 673.449 223.186 678.099 217.256 684.018C211.324 690.359 208.783 699.236 208.783 710.228Z" fill="#080D12"/>
</g>
<path d="M244.362 547.205C273.462 547.205 296.102 553.098 312.391 564.765V564.766C328.22 576.406 336.552 593.011 336.552 613.843V728.828C336.552 734.801 337.401 739.664 339.226 742.852V742.853C341.163 746.235 344.546 747.583 348.989 747.583C354.656 747.583 359.165 743.758 362.205 735.954L362.214 735.931L362.222 735.907C364.745 728.354 366.427 717.997 366.506 704.463H382.718C382.596 729.22 377.957 746.782 369.395 757.363C360.329 768.466 346.265 773.906 326.538 773.906C309.32 773.906 296.054 769.715 286.987 761.076L286.971 761.061L286.953 761.045L286.511 760.655C277.28 752.407 271.577 739.704 269.926 722.392L267.966 722.221C263.36 738.936 255.006 751.418 242.5 760.571C230.009 769.712 214.139 773.906 195.648 773.906C175.889 773.906 160.465 769.291 149.26 760.18L149.246 760.168C137.674 751.094 132.262 738.308 132.262 721.642C132.262 703.651 139.497 688.924 154.812 678.165L155.547 677.656C171.45 666.798 196.253 659.215 230.095 654.147L230.096 654.148L260.596 649.921L261.459 649.801V618.07C261.459 601.029 257.618 588.079 250.206 579.376L250.197 579.365L250.188 579.354L249.816 578.949C241.968 570.501 230.77 566.342 215.981 566.342C209.534 566.342 203.51 567.201 197.491 568.917C191.56 570.608 187.138 572.344 184.419 574.605L183.079 575.72L184.717 576.314C193.914 579.652 200.511 584.208 204.599 589.512C208.67 594.793 210.745 601.748 210.745 610.038C210.745 620.813 207.431 628.98 201.32 634.671L201.308 634.683L201.296 634.695C195.176 640.802 186.986 643.703 176.163 643.703C164.478 643.703 155.854 640.793 149.312 634.673L149.287 634.649L148.688 634.11C142.616 628.469 139.887 620.508 139.887 610.038C139.887 591.869 149.369 576.523 169.465 564.824C189.609 553.098 214.417 547.205 244.362 547.205ZM260.236 666.133L245.41 669.515C232.175 672.497 222.657 677.211 216.546 683.311L216.533 683.322L216.521 683.335C210.353 689.93 207.779 699.094 207.779 710.228C207.779 719.204 209.488 725.814 213.082 730.298V730.299C216.714 734.828 222.126 737.014 229.536 737.014C239.676 737.014 247.607 732.136 253.27 722.572L253.287 722.543C258.482 713.039 261.459 698.902 261.459 681.058V665.854L260.236 666.133Z" stroke="white" stroke-width="2"/>
</g>
<g clip-path="url(#clip6_1635_795)">
<rect width="480" height="480" transform="translate(480 480)" fill="#404040" fill-opacity="0.4"/>
<path d="M898.824 959H541.107C541.107 959 529.513 891.389 529.018 847.577C528.464 798.66 541.107 723 541.107 723H898.824C898.824 723 912.582 798.611 911.981 847.577C911.443 891.444 898.824 959 898.824 959Z" fill="#080D12"/>
<path d="M718.933 769.285L656 722.597H787.556L722.844 769.285L764.8 823.814L726.756 940H715.378L684.444 823.814L718.933 769.285Z" fill="white" fill-opacity="0.3"/>
<mask id="mask10_1635_795" style="mask-type:luminance" maskUnits="userSpaceOnUse" x="649" y="590" width="147" height="133">
<path d="M795.379 590.017H649.602V722.597H795.379V590.017Z" fill="white"/>
</mask>
<g mask="url(#mask10_1635_795)">
<mask id="mask11_1635_795" style="mask-type:alpha" maskUnits="userSpaceOnUse" x="649" y="587" width="147" height="136">
<path d="M662.59 587.492C662.59 586.074 638.212 659.125 656.032 722.567H787.543C799.654 670.562 797.275 640.923 780.279 587.156C739.768 587.037 662.59 588.909 662.59 587.492Z" fill="#D9D9D9"/>
</mask>
<g mask="url(#mask11_1635_795)">
<path d="M727.656 573.592H649.434V741.099H727.656V573.592Z" fill="#C2C2C2"/>
<path d="M805.878 573.592H727.656V741.099H805.878V573.592Z" fill="#E2E2E2"/>
</g>
</g>
<mask id="mask12_1635_795" style="mask-type:luminance" maskUnits="userSpaceOnUse" x="604" y="518" width="203" height="100">
<path d="M806.045 518.024H604.09V617.103H806.045V518.024Z" fill="white"/>
</mask>
<g mask="url(#mask12_1635_795)">
<path d="M805.216 547.242C803.055 565.648 793.866 580.806 777.651 593.799C761.436 606.791 741.978 612.746 719.277 612.746C696.035 612.746 677.659 606.791 664.687 593.799C651.714 580.806 646.309 565.648 648.472 547.242C649.012 538.581 652.255 531.543 658.2 526.13C663.606 520.716 670.632 518.009 679.28 518.009C686.847 518.009 692.252 520.175 696.035 524.506C699.819 528.836 701.44 534.791 700.9 541.829C699.819 550.49 695.495 557.528 687.928 561.859C680.361 566.731 671.713 567.814 661.443 565.648C665.227 572.144 672.794 577.558 684.145 581.889C694.954 586.22 707.926 587.844 721.979 587.844C737.113 587.844 750.626 586.22 763.598 581.889C776.029 577.558 785.218 572.144 791.163 565.107C778.191 568.355 768.463 567.814 761.976 563.483C755.49 559.152 753.328 552.115 754.41 541.829C754.95 534.791 757.652 528.836 763.057 524.506C768.463 520.175 774.949 518.009 782.516 518.009C790.623 518.009 796.568 520.716 800.892 526.13C804.676 531.543 806.297 538.581 805.216 547.242ZM667.929 932.145C645.228 932.145 627.933 924.566 617.122 908.326C605.772 892.626 601.989 871.513 605.231 844.445L626.311 672.295H579.828L581.99 656.054C609.555 656.054 630.635 656.054 644.688 654.972C658.741 653.889 666.848 652.806 669.011 650.641L674.415 656.054L651.714 844.445C649.012 865.017 650.634 880.716 656.579 891.002C661.984 901.829 671.713 906.701 685.766 906.701C704.684 906.701 720.358 895.874 733.33 874.22C746.302 852.566 754.95 821.708 759.814 781.649L772.786 672.295H737.113L739.276 656.054C764.679 656.054 783.056 656.054 794.946 654.972C806.297 654.431 813.324 652.806 815.485 650.641L820.891 656.054L794.406 875.844C792.244 888.836 792.785 898.581 796.028 905.077C798.73 911.573 804.135 914.28 811.702 914.28C820.891 914.28 828.458 908.867 833.863 898.039C839.268 887.212 843.591 869.348 846.835 844.445H861.428C856.023 880.175 849.537 903.453 840.889 914.821C832.241 926.731 819.269 932.145 801.973 932.145C784.677 932.145 772.786 927.272 765.76 916.446C758.733 906.16 756.571 889.919 759.814 867.724L764.679 828.205C758.193 862.31 746.302 888.295 730.087 905.618C713.872 923.483 692.792 932.145 667.929 932.145Z" fill="#080D12"/>
</g>
<path d="M673.364 656.417L650.723 844.315C648.013 864.946 649.599 880.912 655.703 891.486C658.491 897.053 662.411 901.125 667.462 903.795C672.51 906.464 678.629 907.701 685.766 907.701C705.155 907.701 721.107 896.57 734.188 874.734C747.264 852.905 755.936 821.888 760.807 781.769V781.766L773.779 672.414L773.912 671.295H738.255L740.15 657.053C765.063 657.053 783.205 657.042 795.016 655.968C800.712 655.696 805.359 655.152 808.873 654.393C810.632 654.013 812.127 653.575 813.338 653.081C814.136 652.755 814.837 652.391 815.416 651.987L819.839 656.417L793.413 875.717C791.254 888.72 791.748 898.697 795.11 905.475C796.539 908.902 798.706 911.379 801.549 912.985C804.379 914.584 807.806 915.28 811.702 915.28C821.381 915.28 829.24 909.54 834.758 898.486C840.178 887.629 844.478 869.914 847.711 845.445H860.263C857.61 862.771 854.703 877.095 851.414 888.492C848.048 900.156 844.307 908.678 840.094 914.216L840.08 914.234C831.669 925.818 819.041 931.145 801.973 931.145C784.862 931.145 773.37 926.335 766.599 915.901L766.585 915.881C759.772 905.908 757.573 889.98 760.804 867.869L760.805 867.857L760.807 867.846L765.671 828.327L763.696 828.018C757.232 862.008 745.401 887.795 729.356 904.935L729.352 904.941L729.347 904.946C713.338 922.584 692.535 931.145 667.929 931.145C645.467 931.145 628.533 923.662 617.955 907.771L617.944 907.755L617.933 907.74L617.416 907.013C606.668 891.667 603.049 871.073 606.224 844.567L627.304 672.417L627.44 671.295H580.97L582.865 657.053C609.984 657.053 630.813 657.043 644.765 655.968C651.792 655.427 657.371 654.883 661.473 654.199C663.523 653.857 665.234 653.474 666.587 653.029C667.492 652.731 668.286 652.384 668.926 651.971L673.364 656.417ZM782.516 519.009C790.351 519.009 795.983 521.603 800.089 526.728C803.691 531.897 805.279 538.665 804.224 547.119L804.223 547.125C802.097 565.228 793.071 580.161 777.025 593.018C761.018 605.845 741.792 611.747 719.277 611.747C696.201 611.747 678.119 605.837 665.395 593.092C652.635 580.313 647.339 565.457 649.465 547.359L649.468 547.332L649.47 547.304C649.995 538.88 653.137 532.092 658.874 526.869L658.892 526.853L658.908 526.836C664.101 521.636 670.86 519.009 679.28 519.009C686.642 519.009 691.738 521.106 695.282 525.164C698.841 529.237 700.424 534.892 699.904 541.725C698.855 550.093 694.695 556.833 687.431 560.991L687.408 561.003L687.387 561.018C680.092 565.715 671.728 566.794 661.649 564.669L659.445 564.205L660.579 566.151C664.528 572.931 672.339 578.452 683.772 582.817V582.818C694.748 587.215 707.863 588.844 721.979 588.844C737.185 588.844 750.811 587.212 763.914 582.837L763.927 582.833C776.442 578.473 785.819 572.982 791.927 565.752L793.929 563.384L790.921 564.137C778.037 567.363 768.662 566.744 762.532 562.652C756.486 558.615 754.342 552.039 755.404 541.934L755.405 541.919L755.406 541.906C755.929 535.095 758.529 529.415 763.683 525.286C768.894 521.11 775.154 519.009 782.516 519.009Z" stroke="white" stroke-width="2"/>
<path d="M673.364 656.417L650.723 844.315C648.013 864.946 649.599 880.912 655.703 891.486C658.491 897.053 662.411 901.125 667.462 903.795C672.51 906.464 678.629 907.701 685.766 907.701C705.155 907.701 721.107 896.57 734.188 874.734C747.264 852.905 755.936 821.888 760.807 781.769V781.766L773.779 672.414L773.912 671.295H738.255L740.15 657.053C765.063 657.053 783.205 657.042 795.016 655.968C800.712 655.696 805.359 655.152 808.873 654.393C810.632 654.013 812.127 653.575 813.338 653.081C814.136 652.755 814.837 652.391 815.416 651.987L819.839 656.417L793.413 875.717C791.254 888.72 791.748 898.697 795.11 905.475C796.539 908.902 798.706 911.379 801.549 912.985C804.379 914.584 807.806 915.28 811.702 915.28C821.381 915.28 829.24 909.54 834.758 898.486C840.178 887.629 844.478 869.914 847.711 845.445H860.263C857.61 862.771 854.703 877.095 851.414 888.492C848.048 900.156 844.307 908.678 840.094 914.216L840.08 914.234C831.669 925.818 819.041 931.145 801.973 931.145C784.862 931.145 773.37 926.335 766.599 915.901L766.585 915.881C759.772 905.908 757.573 889.98 760.804 867.869L760.805 867.857L760.807 867.846L765.671 828.327L763.696 828.018C757.232 862.008 745.401 887.795 729.356 904.935L729.352 904.941L729.347 904.946C713.338 922.584 692.535 931.145 667.929 931.145C645.467 931.145 628.533 923.662 617.955 907.771L617.944 907.755L617.933 907.74L617.416 907.013C606.668 891.667 603.049 871.073 606.224 844.567L627.304 672.417L627.44 671.295H580.97L582.865 657.053C609.984 657.053 630.813 657.043 644.765 655.968C651.792 655.427 657.371 654.883 661.473 654.199C663.523 653.857 665.234 653.474 666.587 653.029C667.492 652.731 668.286 652.384 668.926 651.971L673.364 656.417ZM782.516 519.009C790.351 519.009 795.983 521.603 800.089 526.728C803.691 531.897 805.279 538.665 804.224 547.119L804.223 547.125C802.097 565.228 793.071 580.161 777.025 593.018C761.018 605.845 741.792 611.747 719.277 611.747C696.201 611.747 678.119 605.837 665.395 593.092C652.635 580.313 647.339 565.457 649.465 547.359L649.468 547.332L649.47 547.304C649.995 538.88 653.137 532.092 658.874 526.869L658.892 526.853L658.908 526.836C664.101 521.636 670.86 519.009 679.28 519.009C686.642 519.009 691.738 521.106 695.282 525.164C698.841 529.237 700.424 534.892 699.904 541.725C698.855 550.093 694.695 556.833 687.431 560.991L687.408 561.003L687.387 561.018C680.092 565.715 671.728 566.794 661.649 564.669L659.445 564.205L660.579 566.151C664.528 572.931 672.339 578.452 683.772 582.817V582.818C694.748 587.215 707.863 588.844 721.979 588.844C737.185 588.844 750.811 587.212 763.914 582.837L763.927 582.833C776.442 578.473 785.819 572.982 791.927 565.752L793.929 563.384L790.921 564.137C778.037 567.363 768.662 566.744 762.532 562.652C756.486 558.615 754.342 552.039 755.404 541.934L755.405 541.919L755.406 541.906C755.929 535.095 758.529 529.415 763.683 525.286C768.894 521.11 775.154 519.009 782.516 519.009Z" stroke="white" stroke-width="2"/>
</g>
<g clip-path="url(#clip7_1635_795)">
<rect width="480" height="480" transform="translate(960 480)" fill="#046E00"/>
<mask id="mask13_1635_795" style="mask-type:alpha" maskUnits="userSpaceOnUse" x="1133" y="635" width="120" height="202">
<path d="M1144.31 636.424C1144.31 634.328 1124.49 742.35 1138.98 836.163H1245.94C1255.79 759.262 1253.86 715.434 1240.03 635.928C1207.09 635.754 1144.31 638.521 1144.31 636.424Z" fill="#D9D9D9"/>
</mask>
<g mask="url(#mask13_1635_795)">
<path d="M1197.04 653H1135.46V863.844H1197.04V653Z" fill="#C2C2C2"/>
<path d="M1250.33 653H1197.04V863.844H1250.33V653Z" fill="#E2E2E2"/>
</g>
<path d="M1124.12 833.646L1128.56 822.617L1193.49 828.507L1259.02 822.617L1265.53 833.646L1281.21 849.743L1383.57 888.792C1383.57 888.792 1395.76 952.119 1395.41 993.118C1395.08 1031.23 1383.57 1090 1383.57 1090H1018.81C1018.81 1090 1004.23 1028.68 1004 988.701C1003.76 947.074 1018.81 883.129 1018.81 883.129L1106.96 849.743L1124.12 833.646Z" fill="#080D12"/>
<path d="M1250.79 788.458L1195.6 826.782L1193.19 827.971L1134.99 788.458L1128.35 822.92L1195.6 1090L1258.03 822.92L1250.79 788.458Z" fill="white"/>
<path d="M1202.96 855.598H1186.68C1176.32 864.138 1170.99 868.849 1152.93 873.267C1145.23 852.653 1145.23 839.402 1151.45 815.255C1151.45 815.255 1164.05 817.464 1170.99 821.439C1178.22 825.582 1186.68 835.868 1186.68 835.868H1202.96C1214.21 817.611 1224.28 819.083 1234.64 814.077C1243.82 840.58 1242.64 852.064 1234.64 873.267C1234.64 873.267 1224.11 870.638 1218.06 867.377C1211.48 863.823 1202.96 855.598 1202.96 855.598Z" fill="#06080B"/>
<path d="M1287.34 898.003L1293.27 915.457L1301.84 900.65L1303.82 911.208L1314.38 908.235L1312.33 918.779L1323.27 919.732L1317.46 928.839L1327.31 933.59L1318.52 940.029L1325.95 947.936L1315.37 950.838L1319.37 960.833L1303.82 955.735L1308.47 970.54L1298.65 965.722L1294.72 975.744L1289.77 962.18L1279.97 975.744L1276.03 965.722L1266.21 970.54L1266.25 959.806L1255.31 960.833L1259.31 950.838L1248.73 947.936L1256.16 940.029L1247.37 933.59L1257.23 928.839L1251.41 919.732H1264.71L1260.3 908.235L1270.86 911.208L1272.84 900.65L1280.87 911.966L1287.34 898.003Z" fill="#FF0000"/>
<mask id="mask14_1635_795" style="mask-type:luminance" maskUnits="userSpaceOnUse" x="1133" y="653" width="114" height="45">
<path d="M1246.19 653H1133.68V697.76H1246.19V653Z" fill="white"/>
</mask>
<g mask="url(#mask14_1635_795)">
<path d="M1190.97 697.76C1171.59 697.76 1158.06 692.669 1150.38 682.485C1142.34 672.302 1139.78 656.663 1142.34 634.841L1146 605.381H1101.75L1091.15 691.941H1024.97L1045.44 523.549H1020.58L1022.77 507.546C1042.88 507.546 1060.07 507.182 1073.96 506.455C1087.86 505.728 1097.37 504.273 1103.22 502.818L1114.18 506.455L1103.95 589.379H1147.82L1157.7 507.546H1223.88L1205.96 655.571C1205.23 662.118 1205.23 666.482 1206.33 669.392C1207.43 672.302 1209.62 673.393 1212.55 673.393C1216.2 673.393 1219.49 670.483 1222.42 664.3C1224.98 658.481 1227.17 649.389 1228.63 637.023H1246.19C1242.53 660.299 1236.68 676.302 1228.27 685.031C1219.86 693.76 1207.43 697.76 1190.97 697.76Z" fill="#080D12"/>
</g>
<path d="M1113.64 506.8L1103.45 589.317L1103.38 589.879H1148.27L1148.32 589.438L1158.14 508.047H1223.32L1205.47 655.512L1205.47 655.516C1204.76 661.85 1204.72 666.25 1205.76 669.279L1205.86 669.568C1206.44 671.112 1207.33 672.209 1208.49 672.911C1209.65 673.609 1211.02 673.893 1212.55 673.893C1216.51 673.892 1219.93 670.73 1222.87 664.514L1222.88 664.502C1225.43 658.687 1227.61 649.684 1229.08 637.522H1245.6C1241.94 660.468 1236.14 676.144 1227.91 684.684C1219.63 693.278 1207.35 697.261 1190.97 697.261C1171.67 697.261 1158.33 692.187 1150.78 682.184L1150.78 682.175L1150.41 681.701C1142.78 671.665 1140.32 656.339 1142.84 634.902L1146.49 605.442L1146.56 604.881H1101.31L1101.26 605.32L1090.71 691.441H1025.53L1045.94 523.609L1046.01 523.05H1021.15L1023.21 508.046C1043.14 508.041 1060.18 507.677 1073.99 506.954C1087.79 506.232 1097.29 504.79 1103.19 503.337L1113.64 506.8Z" stroke="white"/>
</g>
<defs>
<clipPath id="clip0_1635_795">
<rect width="480" height="480" fill="white"/>
</clipPath>
<clipPath id="clip1_1635_795">
<rect width="480" height="480" fill="white" transform="translate(480)"/>
</clipPath>
<clipPath id="clip2_1635_795">
<rect width="265" height="490" fill="white" transform="translate(587 179)"/>
</clipPath>
<clipPath id="clip3_1635_795">
<rect width="480" height="480" fill="white" transform="translate(960)"/>
</clipPath>
<clipPath id="clip4_1635_795">
<rect width="369" height="524" fill="white" transform="translate(1037 124)"/>
</clipPath>
<clipPath id="clip5_1635_795">
<rect width="480" height="480" fill="white" transform="translate(0 480)"/>
</clipPath>
<clipPath id="clip6_1635_795">
<rect width="480" height="480" fill="white" transform="translate(480 480)"/>
</clipPath>
<clipPath id="clip7_1635_795">
<rect width="480" height="480" fill="white" transform="translate(960 480)"/>
</clipPath>
</defs>
</svg>
