<svg width="1134" height="727" viewBox="0 0 1134 727" fill="none" xmlns="http://www.w3.org/2000/svg">
<path d="M1065.56 437.43H1099.78V447H1013.07V437.43H1035.69V310.99H1013.07V301.71C1030.76 301.71 1041.78 301.71 1046.42 301.13C1050.77 300.84 1054.25 299.68 1056.57 297.65L1060.63 300.26V342.89C1062.66 328.97 1067.3 318.24 1074.55 310.12C1081.51 302.29 1090.5 298.23 1101.52 298.23C1111.38 298.23 1119.5 301.13 1125.3 306.93C1131.1 312.73 1134 319.98 1134 329.26C1134 336.51 1132.26 342.02 1129.07 346.08C1125.59 350.14 1120.95 351.88 1115.15 351.88C1108.77 351.88 1103.84 350.14 1100.36 346.66C1096.88 343.18 1095.14 338.54 1095.14 332.45C1095.14 327.23 1096.59 323.17 1100.07 319.69C1103.55 316.21 1107.9 314.18 1113.7 313.31C1111.96 311.57 1109.93 310.12 1107.61 309.25C1105.29 308.67 1102.68 308.09 1099.2 308.09C1088.47 308.09 1080.06 314.76 1074.26 327.81C1068.46 341.15 1065.56 359.13 1065.56 381.75V437.43Z" fill="white"/>
<path d="M1001.72 437.43V447H926.899V437.43H949.519V310.99H926.899V301.71C946.329 301.71 958.799 301.71 964.019 301.13C969.239 300.55 973.009 299.39 975.329 297.65L979.389 300.26V437.43H1001.72ZM961.409 224.86C967.789 224.86 972.719 226.89 976.489 230.66C979.969 234.43 981.999 239.07 981.999 244.58C981.999 250.38 979.969 255.02 976.489 258.79C972.719 262.56 967.789 264.3 961.409 264.3C955.029 264.3 949.809 262.56 946.329 258.79C942.559 255.02 940.819 250.38 940.819 244.58C940.819 239.07 942.559 234.43 946.329 230.66C949.809 226.89 955.029 224.86 961.409 224.86Z" fill="white"/>
<path d="M749.473 447H679.583V437.43H702.203V310.99H679.583V301.71C694.373 301.71 704.813 301.71 710.613 301.13C716.413 300.55 720.473 299.39 723.083 297.65L727.143 300.26L726.563 336.51C728.303 324.33 732.653 315.05 740.193 308.38C747.443 301.71 757.013 298.23 769.193 298.23C780.213 298.23 789.203 301.13 796.163 306.93C802.833 312.73 807.183 320.85 808.923 331.58C811.243 320.85 816.173 312.73 823.133 306.93C830.093 301.13 839.083 298.23 849.813 298.23C866.053 298.23 877.363 302.58 884.323 310.7C890.993 319.11 894.473 332.45 894.473 351.01V437.43H916.803V447H847.203V437.43H864.603V353.04C864.603 338.25 862.573 327.81 858.803 321.43C855.033 315.05 848.653 311.86 839.953 311.86C830.673 311.86 823.713 315.63 819.653 322.59C815.303 329.84 813.273 341.15 813.273 356.23V437.43H830.673V447H765.713V437.43H783.403V353.04C783.403 338.25 781.373 327.81 777.603 321.43C773.833 315.05 767.453 311.86 758.753 311.86C749.473 311.86 742.803 315.63 738.453 322.88C734.103 330.13 732.073 341.15 732.073 356.23V437.43H749.473V447Z" fill="white"/>
<path d="M668.23 437.43V447H593.41V437.43H616.03V310.99H593.41V301.71C612.84 301.71 625.31 301.71 630.53 301.13C635.75 300.55 639.52 299.39 641.84 297.65L645.9 300.26V437.43H668.23Z" fill="white"/>
<path d="M582.186 447H464.156V440.33L549.126 310.99H509.686C498.666 310.99 490.546 313.89 485.616 319.11C480.686 324.62 478.366 333.9 478.366 346.66V353.91H468.796V301.71H581.026V308.09L496.056 437.43H541.296C552.316 437.43 560.146 434.82 565.076 429.31C570.006 423.8 572.616 414.52 572.616 401.47V394.51H582.186V447Z" fill="white"/>
<path d="M430.89 450.19C421.03 450.19 413.78 447.58 408.85 441.78C403.92 436.27 401.31 427.86 400.73 416.26C397.25 426.7 391.74 435.11 383.62 441.2C375.5 447.29 365.64 450.19 354.33 450.19C341.57 450.19 332 447.58 325.04 441.78C318.08 435.98 314.89 427.86 314.89 416.84C314.89 406.11 319.53 397.12 329.39 389.87C338.96 382.62 354.91 375.95 377.53 370.15L398.41 364.64V344.34C398.41 332.74 395.8 324.04 390.87 318.24C385.65 312.44 378.11 309.54 367.96 309.54C362.16 309.54 357.23 310.41 352.59 312.15C347.95 313.89 343.89 316.5 340.41 319.69C345.34 321.43 349.11 323.75 351.72 326.94C354.33 330.13 355.78 334.19 355.78 338.83C355.78 344.63 354.04 348.98 350.85 352.46C347.37 355.94 342.73 357.39 336.93 357.39C331.13 357.39 326.49 355.94 323.3 352.46C319.82 348.98 318.37 344.63 318.37 338.83C318.37 327.81 323.88 318.53 335.19 310.41C346.5 302.29 360.13 298.23 376.37 298.23C393.48 298.23 406.53 302 415.23 309.25C423.93 316.5 428.28 327.23 428.28 341.44V422.35C428.28 427.28 428.86 431.05 430.6 433.37C432.34 435.98 434.66 437.14 438.14 437.14C442.78 437.14 446.55 434.24 448.87 428.44C451.19 422.64 452.64 414.23 452.64 402.92H461.34C461.34 419.74 458.73 431.63 454.09 439.17C449.45 446.71 441.62 450.19 430.89 450.19ZM345.92 412.2C345.92 419.45 347.66 424.96 351.14 428.44C354.62 432.21 359.84 433.95 366.22 433.95C376.37 433.95 384.2 429.89 390 421.48C395.51 413.07 398.41 400.89 398.41 385.23V373.34L380.72 378.56C368.54 382.04 359.55 386.39 354.04 391.61C348.53 396.83 345.92 403.79 345.92 412.2Z" fill="white"/>
<path d="M349.3 727C296 727 255.7 713.987 228.4 687.961C199.8 661.935 182.9 618.993 175.1 556.531C172.5 548.723 171.2 533.107 168.6 512.287C166 491.466 164.7 474.549 162.1 464.139C156.9 443.318 150.4 426.401 142.6 415.991C133.5 405.581 121.8 399.074 107.5 396.471H90.6L52.9 704.878H-182.4L-109.6 102.379H-198L-190.2 45.1221C-118.7 45.1221 7 -16.4998 7 -16.4998C7 -16.4998 49.5 -16.5002 85 -16.4998C120.5 -16.4994 150.266 -16.5 150.266 -16.5L98.4 337.913H117.9C138.7 337.913 156.9 330.106 171.2 314.49C184.2 298.875 199.8 265.041 215.4 210.386C225.8 172.649 236.2 144.02 244 125.802C251.8 107.584 262.2 91.9688 272.6 78.9558C286.9 60.7377 305.1 46.4234 325.9 37.3144C346.7 28.2053 371.4 23.0001 400 23.0001C436.4 23.0001 466.3 33.4105 487.1 54.2312C507.9 75.0519 515.7 103.68 513.1 140.117C510.5 171.348 497.5 196.072 476.7 214.29C455.9 233.81 429.9 242.919 398.7 242.919C371.4 242.919 349.3 235.111 333.7 218.194C316.8 201.277 309 180.457 309 154.431C309 146.623 309 140.117 311.6 132.309C312.9 125.802 315.5 119.296 318.1 114.091C311.6 123.2 305.1 133.61 299.9 146.623C294.7 159.636 286.9 181.758 279.1 210.386C263.5 259.836 249.2 294.971 236.2 315.791C223.2 336.612 208.9 350.926 192 361.337C272.6 382.157 325.9 402.978 351.9 426.401C377.9 449.825 394.8 491.466 402.6 553.928C407.8 598.172 413 624.198 418.2 632.006C422.1 639.813 428.6 642.416 436.4 642.416C446.8 642.416 457.2 632.006 465 609.884C472.8 587.762 480.6 553.928 487.1 507.081H543C532.6 590.364 511.8 647.621 483.2 678.852C453.3 711.385 409.1 727 349.3 727Z" fill="#FF0000"/>
<mask id="mask0_3001_168" style="mask-type:alpha" maskUnits="userSpaceOnUse" x="314" y="298" width="148" height="153">
<path d="M430.891 450.19C421.031 450.19 413.781 447.58 408.851 441.78C403.921 436.27 401.311 427.86 400.731 416.26C397.251 426.7 391.741 435.11 383.621 441.2C375.501 447.29 365.641 450.19 354.331 450.19C341.571 450.19 332.001 447.58 325.041 441.78C318.081 435.98 314.891 427.86 314.891 416.84C314.891 406.11 319.531 397.12 329.391 389.87C338.961 382.62 354.911 375.95 377.531 370.15L398.411 364.64V344.34C398.411 332.74 395.801 324.04 390.871 318.24C385.651 312.44 378.111 309.54 367.961 309.54C362.161 309.54 357.231 310.41 352.591 312.15C347.951 313.89 343.891 316.5 340.411 319.69C345.341 321.43 349.111 323.75 351.721 326.94C354.331 330.13 355.781 334.19 355.781 338.83C355.781 344.63 354.041 348.98 350.851 352.46C347.371 355.94 342.731 357.39 336.931 357.39C331.131 357.39 326.491 355.94 323.301 352.46C319.821 348.98 318.371 344.63 318.371 338.83C318.371 327.81 323.881 318.53 335.191 310.41C346.501 302.29 360.131 298.23 376.371 298.23C393.481 298.23 406.531 302 415.231 309.25C423.931 316.5 428.281 327.23 428.281 341.44V422.35C428.281 427.28 428.861 431.05 430.601 433.37C432.341 435.98 434.661 437.14 438.141 437.14C442.781 437.14 446.551 434.24 448.871 428.44C451.191 422.64 452.641 414.23 452.641 402.92H461.341C461.341 419.74 458.731 431.63 454.091 439.17C449.451 446.71 441.621 450.19 430.891 450.19ZM345.921 412.2C345.921 419.45 347.661 424.96 351.141 428.44C354.621 432.21 359.841 433.95 366.221 433.95C376.371 433.95 384.201 429.89 390.001 421.48C395.511 413.07 398.411 400.89 398.411 385.23V373.34L380.721 378.56C368.541 382.04 359.551 386.39 354.041 391.61C348.531 396.83 345.921 403.79 345.921 412.2Z" fill="white"/>
</mask>
<g mask="url(#mask0_3001_168)">
<path d="M349.3 727C296 727 255.7 713.987 228.4 687.961C199.8 661.935 182.9 618.993 175.1 556.531C172.5 548.723 171.2 533.107 168.6 512.287C166 491.466 164.7 474.549 162.1 464.139C156.9 443.318 150.4 426.401 142.6 415.991C133.5 405.581 121.8 399.074 107.5 396.471H90.6L52.9 704.878H-182.4L-109.6 102.379H-198L-190.2 45.1221C-118.7 45.1221 7 -16.4998 7 -16.4998C7 -16.4998 49.5 -16.5002 85 -16.4998C120.5 -16.4994 150.266 -16.5 150.266 -16.5L98.4 337.913H117.9C138.7 337.913 156.9 330.106 171.2 314.49C184.2 298.875 199.8 265.041 215.4 210.386C225.8 172.649 236.2 144.02 244 125.802C251.8 107.584 262.2 91.9688 272.6 78.9558C286.9 60.7377 305.1 46.4234 325.9 37.3144C346.7 28.2053 371.4 23.0001 400 23.0001C436.4 23.0001 466.3 33.4105 487.1 54.2312C507.9 75.0519 515.7 103.68 513.1 140.117C510.5 171.348 497.5 196.072 476.7 214.29C455.9 233.81 429.9 242.919 398.7 242.919C371.4 242.919 349.3 235.111 333.7 218.194C316.8 201.277 309 180.457 309 154.431C309 146.623 309 140.117 311.6 132.309C312.9 125.802 315.5 119.296 318.1 114.091C311.6 123.2 305.1 133.61 299.9 146.623C294.7 159.636 286.9 181.758 279.1 210.386C263.5 259.836 249.2 294.971 236.2 315.791C223.2 336.612 208.9 350.926 192 361.337C272.6 382.157 325.9 402.978 351.9 426.401C377.9 449.825 394.8 491.466 402.6 553.928C407.8 598.172 413 624.198 418.2 632.006C422.1 639.813 428.6 642.416 436.4 642.416C446.8 642.416 457.2 632.006 465 609.884C472.8 587.762 480.6 553.928 487.1 507.081H543C532.6 590.364 511.8 647.621 483.2 678.852C453.3 711.385 409.1 727 349.3 727Z" fill="#151515"/>
</g>
</svg>
