<svg width="404" height="863" viewBox="0 0 404 863" fill="none" xmlns="http://www.w3.org/2000/svg">
<path d="M45.1682 519H408L371.935 864H2L45.1682 519Z" fill="#FCC945"/>
<mask id="mask0_1635_131" style="mask-type:alpha" maskUnits="userSpaceOnUse" x="86" y="179" width="231" height="336">
<path d="M86.6353 181.189L316.891 179.34L237.235 514.102H163.18L86.6353 181.189Z" fill="#D9D9D9"/>
</mask>
<g mask="url(#mask0_1635_131)">
<path d="M203.008 105.359H83.5238V629.388H203.008V105.359Z" fill="#E2E2E2"/>
<path d="M321.246 105.359H203.007V631.855H321.246V105.359Z" fill="#C2C2C2"/>
</g>
<path d="M256.01 520L259 424L199.804 505.231L143 427.077V520H256.01Z" fill="#FCC945"/>
<path d="M234.123 535.063L203.007 506.087L173.136 535.063L203.007 564.039L171.269 811.257L184.96 904.35L223.543 893.869L235.367 811.257L203.007 564.039L234.123 535.063Z" fill="#0077FF"/>
<g clip-path="url(#clip0_1635_131)">
<path d="M319.169 11.9189V201.439L318.173 201.503C310.313 139.189 290.669 91.2084 260.593 57.5156L260.586 57.5078C231.835 23.8328 192.633 5.69827 145.565 5.69824C103.068 5.69824 68.225 18.2576 42.2363 43.3379L41.0059 44.542C14.8654 70.4472 0.5 101.513 0.5 140.358C0.500073 168.864 8.34517 192.133 21.3652 207.616C34.3634 223.073 53.8783 230.83 77.3721 230.83C103.516 230.83 123.042 224.356 137.345 210.183L137.354 210.174L137.362 210.166L138.026 209.558C151.848 196.691 158.178 177.579 158.178 153.354C158.178 130.076 151.663 112.018 136.04 96.5322C120.407 82.3355 99.5404 74.5683 73.3877 71.9766L72.3311 71.8711L73.0859 71.123C82.3213 61.9709 92.8732 55.4387 106.039 50.2197C119.218 44.9956 133.707 42.3867 149.5 42.3867C175.819 42.3868 198.545 49.2356 217.817 62.9482C237.086 76.6577 252.872 97.2055 265.355 124.555C290.319 179.24 302.12 262.506 302.12 375.588V629.513H144.754V667.5H517.5V629.513H412.589V56.6826H517.5V18.6934C477.082 18.6934 444.787 18.6928 420.458 18.3691C396.043 18.0444 379.613 17.3957 371.048 16.0898C354.151 13.5135 341.052 8.38081 331.795 0.65918L319.169 11.9189Z" fill="#151515" stroke="white"/>
</g>
<g clip-path="url(#clip1_1635_131)">
<path d="M319.169 11.9189V201.439L318.173 201.503C310.313 139.189 290.669 91.2084 260.593 57.5156L260.586 57.5078C231.835 23.8328 192.633 5.69827 145.565 5.69824C103.068 5.69824 68.225 18.2576 42.2363 43.3379L41.0059 44.542C14.8654 70.4472 0.5 101.513 0.5 140.358C0.500073 168.864 8.34517 192.133 21.3652 207.616C34.3634 223.073 53.8783 230.83 77.3721 230.83C103.516 230.83 123.042 224.356 137.345 210.183L137.354 210.174L137.362 210.166L138.026 209.558C151.848 196.691 158.178 177.579 158.178 153.354C158.178 130.076 151.663 112.018 136.04 96.5322C120.407 82.3355 99.5404 74.5683 73.3877 71.9766L72.3311 71.8711L73.0859 71.123C82.3213 61.9709 92.8732 55.4387 106.039 50.2197C119.218 44.9956 133.707 42.3867 149.5 42.3867C175.819 42.3868 198.545 49.2356 217.817 62.9482C237.086 76.6577 252.872 97.2055 265.355 124.555C290.319 179.24 302.12 262.506 302.12 375.588V629.513H144.754V667.5H517.5V629.513H412.589V56.6826H517.5V18.6934C477.082 18.6934 444.787 18.6928 420.458 18.3691C396.043 18.0444 379.613 17.3957 371.048 16.0898C354.151 13.5135 341.052 8.38081 331.795 0.65918L319.169 11.9189Z" fill="#151515" stroke="white"/>
</g>
<defs>
<clipPath id="clip0_1635_131">
<rect width="317" height="179" fill="white"/>
</clipPath>
<clipPath id="clip1_1635_131">
<rect width="280" height="231" fill="white"/>
</clipPath>
</defs>
</svg>
