<svg width="350" height="151" viewBox="0 0 350 151" fill="none" xmlns="http://www.w3.org/2000/svg">
<path d="M44.2555 53.1587H91.7889V3.10156H136.044V147.895H91.7889V93.2878H44.2555V147.895H0V3.10156H44.2555V53.1587Z" fill="#F2F2F2"/>
<path d="M168.129 100.735C178.375 111.699 191.689 114.801 198.451 114.801C205.415 114.801 210.949 110.871 210.949 104.044C210.949 88.9458 151.326 100.526 151.326 43.8504C151.326 21.0967 168.945 0 203.164 0C223.859 0 235.743 6.61875 252.339 20.893L230.003 46.7478C219.756 38.0601 213.2 34.3388 202.958 34.3388C196.608 34.3388 193.124 35.9958 193.124 42.4063C193.124 58.1246 252.953 48.1965 252.953 104.049C252.953 128.043 238.2 151.005 198.451 151.005C179.806 151.005 162.595 144.594 145.797 126.599L168.129 100.735Z" fill="#F2F2F2"/>
<path d="M350.003 147.899H264.156V3.10156H350.003V41.9902H308.412V56.4681H347.34V93.2878H308.412V109.006H350.003V147.899Z" fill="#F2F2F2"/>
</svg>
