<svg width="1440" height="469" viewBox="0 0 1440 469" fill="none" xmlns="http://www.w3.org/2000/svg">
<circle cx="105" cy="20" r="20" fill="white"/>
<g clip-path="url(#clip0_3001_187)">
<path d="M1093.69 104.15L1093.84 104.536L1152.05 256.938L1205.81 84.4831L1205.9 84.1933L1287.7 69.6444L1287.73 70.2071L1299.76 284.339C1300.2 289.826 1300.77 294.479 1301.57 298.285C1302.33 301.862 1303.3 304.657 1304.57 306.687L1304.82 307.082L1304.83 307.091L1304.83 307.099C1306.28 309.422 1307.95 310.893 1309.84 311.682C1311.74 312.473 1313.92 312.603 1316.43 312.156C1323.38 310.919 1328.13 305.493 1331.62 295.369C1334.58 285.356 1335.53 269.854 1334.54 249.333L1334.52 248.894L1355.12 245.23L1355.13 245.814C1355.49 262.773 1354.74 277.285 1352.86 289.214C1350.98 301.137 1347.96 310.514 1343.76 317.178L1343.76 317.179C1334.94 331.107 1319.82 339.669 1299.11 343.353C1276.35 347.401 1258.56 344.167 1246.92 333.303C1235.3 322.46 1228.71 303.276 1227.22 276.927L1227.22 276.926L1218.64 122.985L1146.73 363.267L1146.64 363.563L1120.15 368.274L1120 367.886L1039.2 155.665C1040.01 182.913 1040.98 205.567 1041.5 222.946L1041.5 222.958C1041.62 241.535 1041.79 257.445 1041.92 270.174L1041.92 270.18C1041.79 314.319 1037.31 346.024 1028.95 365.139L1028.95 365.138C1020.64 384.842 1004.94 396.203 982.631 400.171C969.118 402.574 957.918 400.276 949.097 393.209C940.286 386.15 935.215 375.743 934.465 362.471C933.659 351.898 935.728 342.374 941.843 334.278C947.947 326.197 956.183 320.964 967.133 319.017C977.569 317.161 986.1 319.414 992.484 324.787C998.881 330.17 1001.92 338.29 1002.64 348.335L1002.64 348.357L1002.64 348.381C1002.52 353.714 1002.23 358.079 1001.21 361.516L1001.21 361.529L1001.2 361.542C1000.6 363.228 999.867 364.747 999.024 366.14C1004.1 360.522 1008.18 352.585 1011.23 342.287C1014.69 328.973 1016.64 310.075 1017.07 285.572L1017.07 285.567C1017.5 270.09 1017.12 249.984 1017.03 225.544C1016.43 201.348 1015.61 172.992 1013.89 139.551L973.171 146.793L973.131 146.239L971.713 126.299L971.68 125.85L1093.69 104.15Z" fill="#EB6502" stroke="#EB6502"/>
</g>
<mask id="path-3-inside-1_3001_187" fill="white">
<path d="M-39.3359 9L1508.66 338.036L1480.99 468.179L-66.9987 139.143L-39.3359 9Z"/>
</mask>
<path d="M-39.3359 9L1508.66 338.036L1480.99 468.179L-66.9987 139.143L-39.3359 9Z" fill="#151515"/>
<path d="M-39.3359 9L-39.5438 9.97815L1508.45 339.014L1508.66 338.036L1508.86 337.058L-39.128 8.02185L-39.3359 9Z" fill="white" mask="url(#path-3-inside-1_3001_187)"/>
<g clip-path="url(#clip1_3001_187)">
<path d="M1093.69 104.15L1093.84 104.536L1152.05 256.938L1205.81 84.4831L1205.9 84.1933L1287.7 69.6444L1287.73 70.2071L1299.76 284.339C1300.2 289.826 1300.77 294.479 1301.57 298.285C1302.33 301.862 1303.3 304.657 1304.57 306.687L1304.82 307.082L1304.83 307.091L1304.83 307.099C1306.28 309.422 1307.95 310.893 1309.84 311.682C1311.74 312.473 1313.92 312.603 1316.43 312.156C1323.38 310.919 1328.13 305.493 1331.62 295.369C1334.58 285.356 1335.53 269.854 1334.54 249.333L1334.52 248.894L1355.12 245.23L1355.13 245.814C1355.49 262.773 1354.74 277.285 1352.86 289.214C1350.98 301.137 1347.96 310.514 1343.76 317.178L1343.76 317.179C1334.94 331.107 1319.82 339.669 1299.11 343.353C1276.35 347.401 1258.56 344.167 1246.92 333.303C1235.3 322.46 1228.71 303.276 1227.22 276.927L1227.22 276.926L1218.64 122.985L1146.73 363.267L1146.64 363.563L1120.15 368.274L1120 367.886L1039.2 155.665C1040.01 182.913 1040.98 205.567 1041.5 222.946L1041.5 222.958C1041.62 241.535 1041.79 257.445 1041.92 270.174L1041.92 270.18C1041.79 314.319 1037.31 346.024 1028.95 365.139L1028.95 365.138C1020.64 384.842 1004.94 396.203 982.631 400.171C969.118 402.574 957.918 400.276 949.097 393.209C940.286 386.15 935.215 375.743 934.465 362.471C933.659 351.898 935.728 342.374 941.843 334.278C947.947 326.197 956.183 320.964 967.133 319.017C977.569 317.161 986.1 319.414 992.484 324.787C998.881 330.17 1001.92 338.29 1002.64 348.335L1002.64 348.357L1002.64 348.381C1002.52 353.714 1002.23 358.079 1001.21 361.516L1001.21 361.529L1001.2 361.542C1000.6 363.228 999.867 364.747 999.024 366.14C1004.1 360.522 1008.18 352.585 1011.23 342.287C1014.69 328.973 1016.64 310.075 1017.07 285.572L1017.07 285.567C1017.5 270.09 1017.12 249.984 1017.03 225.544C1016.43 201.348 1015.61 172.992 1013.89 139.551L973.171 146.793L973.131 146.239L971.713 126.299L971.68 125.85L1093.69 104.15Z" fill="#EB6502" stroke="#EB6502"/>
</g>
<defs>
<clipPath id="clip0_3001_187">
<rect width="406" height="288" fill="white" transform="translate(964 64)"/>
</clipPath>
<clipPath id="clip1_3001_187">
<rect width="189" height="288" fill="white" transform="translate(1181 64)"/>
</clipPath>
</defs>
</svg>
