<svg width="420" height="169" viewBox="0 0 420 169" fill="none" xmlns="http://www.w3.org/2000/svg">
<path d="M20.6949 46.2542H12.3025V81.9219H0V0.763672H12.3025V33.2842H20.6949V0.763672H32.9973V82.0172H20.6949V46.2542Z" fill="white"/>
<path d="M54.169 82.8748H51.7848C41.9619 82.8748 36.7167 77.5342 36.7167 67.5206V51.2126H48.9238V65.4225C48.9238 69.1418 50.1636 71.1445 52.9293 71.1445C55.8857 71.1445 56.9347 69.1418 56.9347 64.1827V62.3707C56.9347 56.5532 56.3625 54.5505 51.8802 48.7331L44.1554 38.5287C38.9102 31.7576 37.3843 26.5123 37.3843 18.406V15.8311C37.3843 5.0545 42.8202 0 52.5478 0H54.8366C64.9456 0 68.9511 4.4823 68.9511 14.1145V27.466H57.0301V15.7357C57.0301 12.97 56.4579 10.9673 53.5015 10.9673C50.5451 10.9673 49.8775 12.7793 49.8775 16.6894V18.2153C49.8775 22.793 50.7358 25.2725 54.932 30.7085L62.7522 40.8175C68.2835 48.0655 70.0955 52.1663 70.0955 61.3216V63.8966C70.0955 75.8176 64.9456 82.8748 54.169 82.8748Z" fill="white"/>
<path d="M101.662 0.763672V12.5893H85.9258V33.8564H98.2283V46.1588H85.9258V69.6194H102.329V81.9219H73.6234V0.763672H101.662Z" fill="white"/>
<path d="M135.613 66.6612H126.649L125.027 81.9201H113.965L123.883 0.666504H138.474L149.06 81.9201H137.139L135.613 66.6612ZM134.278 54.5494L131.036 24.5085L127.889 54.5494H134.278Z" fill="white"/>
<path d="M163.461 82.0172H151.158V0.763672H171.186C179.387 0.763672 183.488 4.29229 183.488 13.3523V27.7528C183.488 34.5239 180.341 37.0989 178.147 38.1479C180.913 39.3877 183.488 41.5812 183.488 47.0172V75.5322C183.488 78.7747 184.156 80.3006 184.728 81.5404V82.1126H172.521C171.949 81.2543 171.281 79.8238 171.281 75.4368V50.8319C171.281 47.2079 170.613 45.682 166.703 45.682H163.556L163.461 82.0172ZM163.461 34.1425H166.703C170.137 34.1425 171.186 31.949 171.186 28.325V16.9762C171.186 13.4476 170.423 11.731 166.703 11.731H163.461V34.1425Z" fill="white"/>
<path d="M208.38 12.4939V81.9219H196.173V12.4939H185.778V0.763672H218.775V12.5893L208.38 12.4939Z" fill="white"/>
<path d="M251.772 66.6612H242.808L241.186 81.9201H230.124L240.042 0.666504H254.633L265.219 81.9201H253.298L251.772 66.6612ZM250.437 54.5494L247.195 24.5085L244.048 54.5494H250.437Z" fill="white"/>
<path d="M278.378 0.763672L288.964 44.3469V0.763672H300.218V82.0172H290.204L278.378 35.2869V82.0172H267.22V0.763672H278.378Z" fill="white"/>
<path d="M304.796 0.763672H323.774C334.36 0.763672 337.602 6.77186 337.602 16.404V65.9C337.602 75.8183 333.883 82.0172 323.774 82.0172H304.891V0.763672H304.796ZM317.194 70.1916H320.15C323.869 70.1916 324.918 68.1889 324.918 63.8973V18.1207C324.918 13.4476 323.679 11.8264 320.627 11.8264H317.098V70.1916H317.194Z" fill="white"/>
<path d="M0 86.2114H18.8829C29.4687 86.2114 32.7112 92.2196 32.7112 101.852V151.348C32.7112 161.266 28.9919 167.465 18.8829 167.465H0V86.2114ZM12.3025 155.735H15.2589C18.9782 155.735 20.0273 153.732 20.0273 149.44V103.664C20.0273 98.9907 18.7875 97.3695 15.7357 97.3695H12.2071V155.735H12.3025Z" fill="white"/>
<path d="M65.2321 86.2114V98.0371H49.4964V119.304H61.7988V131.607H49.4964V155.067H65.8997V167.37H37.0985V86.2114H65.2321Z" fill="white"/>
<path d="M85.5455 168.325H83.1613C73.3384 168.325 68.0931 162.985 68.0931 152.971V136.663H80.3002V150.873C80.3002 154.592 81.54 156.595 84.3057 156.595C87.2621 156.595 88.3112 154.592 88.3112 149.633V147.821C88.3112 142.004 87.739 140.001 83.2567 134.183L75.4365 124.17C70.1912 117.399 68.6653 112.153 68.6653 104.047V101.472C68.6653 90.6956 74.1013 85.6411 83.8289 85.6411H86.1177C96.3221 85.6411 100.232 90.1234 100.232 99.7556V113.107H88.3112V101.377C88.3112 98.6112 87.739 96.6084 84.7825 96.6084C81.8261 96.6084 81.1586 98.4204 81.1586 102.331V103.856C81.1586 108.434 82.0169 110.914 86.2131 116.35L94.0332 126.459C99.5646 133.707 101.377 137.807 101.377 146.963V149.538C101.472 161.268 96.3221 168.325 85.5455 168.325Z" fill="white"/>
<path d="M117.302 167.465H105V86.2114H117.302V167.465Z" fill="white"/>
<path d="M133.325 168.612C126.077 168.612 121.499 162.127 121.499 153.735V102.904C121.499 93.8436 125.028 85.4512 136.663 85.4512H139.047C152.303 85.4512 153.829 94.0343 153.829 103.666V111.963H141.813V102.808C141.813 99.1842 140.954 97.2768 137.903 97.2768C135.328 97.2768 134.088 99.2795 134.088 102.808V150.301C134.088 154.116 135.614 156.119 138.093 156.119C141.24 156.119 142.671 153.925 142.671 150.874V130.56H137.14V118.067H154.401V167.468H147.439C147.344 166.991 146.39 162.985 145.341 159.457C144.483 162.222 140.287 168.517 134.088 168.517H133.325V168.612Z" fill="white"/>
<path d="M169.851 86.2114L180.437 129.795V86.2114H191.69V167.465H181.676L169.851 120.735V167.465H158.693V86.2114H169.851Z" fill="white"/>
<path d="M223.924 168.325H221.54C211.717 168.325 206.472 162.985 206.472 152.971V136.663H218.679V150.873C218.679 154.592 219.919 156.595 222.684 156.595C225.641 156.595 226.69 154.592 226.69 149.633V147.821C226.69 142.004 226.118 140.001 221.635 134.183L213.815 124.17C208.57 117.399 207.044 112.153 207.044 104.047V101.472C207.044 90.6956 212.48 85.6411 222.207 85.6411H224.496C234.605 85.6411 238.611 90.1234 238.611 99.7556V113.107H226.69V101.377C226.69 98.6112 226.118 96.6084 223.161 96.6084C220.205 96.6084 219.537 98.4204 219.537 102.331V103.856C219.537 108.434 220.395 110.914 224.592 116.35L232.412 126.459C237.943 133.707 239.755 137.807 239.755 146.963V149.538C239.851 161.268 234.701 168.325 223.924 168.325Z" fill="white"/>
<path d="M263.501 150.968V132.085H275.613V150.872C275.613 159.646 272.752 168.42 260.831 168.42H258.065C245.572 168.42 242.902 159.455 242.902 151.254V101.662C242.902 93.3654 246.526 85.3545 257.684 85.3545H260.545C274.087 85.3545 275.613 94.3191 275.613 102.235V116.731H263.501V102.425C263.501 98.8968 262.452 97.0848 259.305 97.0848C256.253 97.0848 255.49 98.8014 255.49 102.425V150.682C255.49 154.306 256.73 156.213 259.4 156.213C262.452 156.499 263.501 154.306 263.501 150.968Z" fill="white"/>
<path d="M300.313 131.797H291.921V167.465H279.618V86.2114H291.921V118.732H300.313V86.2114H312.616V167.465H300.313V131.797Z" fill="white"/>
<path d="M350.669 149.348C350.669 160.697 346.854 168.421 334.933 168.421H332.835C321.01 168.421 316.909 160.697 316.909 149.348V104.143C316.909 92.8899 321.2 85.4512 332.74 85.4512H334.838C346.854 85.4512 350.669 92.8899 350.669 104.048V149.348ZM338.08 103.476C338.08 99.1842 336.65 97.2768 333.789 97.2768C330.642 97.2768 329.402 99.3749 329.402 103.476V150.206C329.402 153.735 330.356 156.405 333.884 156.405C337.127 156.405 338.08 153.639 338.08 150.206V103.476Z" fill="white"/>
<path d="M388.339 149.348C388.339 160.697 384.525 168.421 372.604 168.421H370.506C358.68 168.421 354.579 160.697 354.579 149.348V104.143C354.579 92.8899 358.871 85.4512 370.41 85.4512H372.508C384.525 85.4512 388.339 92.8899 388.339 104.048V149.348ZM375.751 103.476C375.751 99.1842 374.32 97.2768 371.459 97.2768C368.312 97.2768 367.072 99.3749 367.072 103.476V150.206C367.072 153.735 368.026 156.405 371.555 156.405C374.797 156.405 375.751 153.639 375.751 150.206V103.476Z" fill="white"/>
<path d="M404.932 86.2114V154.876H420V167.465H392.629V86.2114H404.932Z" fill="white"/>
</svg>
