<svg width="1440" height="823" viewBox="0 0 1440 823" fill="none" xmlns="http://www.w3.org/2000/svg">
<path d="M118 766.552V777.784L117.28 777.688V775.648L102.16 773.8V775.84L101.44 775.744V768.904L102.16 769V771.64L117.28 773.488V770.368C117.28 769.192 117.04 768.328 116.536 767.8C116.056 767.272 115.072 766.912 113.584 766.72L112.624 766.6V765.88L118 766.552ZM101.896 759.206C102.304 759.206 102.664 759.35 102.952 759.614C103.24 759.902 103.384 760.262 103.384 760.718C103.384 761.198 103.24 761.558 102.952 761.822C102.664 762.11 102.328 762.23 101.896 762.23C101.464 762.23 101.104 762.11 100.816 761.822C100.528 761.558 100.384 761.198 100.384 760.718C100.384 760.262 100.552 759.902 100.84 759.614C101.128 759.35 101.488 759.206 101.896 759.206ZM118.24 760.91C118.24 761.726 118 762.326 117.52 762.662C117.04 763.022 116.344 763.142 115.384 763.022L106.72 761.99V764.054L106 763.958C106 762.734 106 761.798 105.952 761.174C105.904 760.55 105.856 760.166 105.76 760.07L106 759.83L115.744 761.006C116.368 761.078 116.8 761.054 117.064 760.958C117.328 760.862 117.448 760.646 117.448 760.31C117.448 759.878 117.208 759.542 116.704 759.278C116.2 759.014 115.432 758.822 114.376 758.678V758.03C115.912 758.27 116.92 758.582 117.448 759.014C117.976 759.446 118.24 760.094 118.24 760.91ZM109.6 754.033C110.536 754.177 111.304 754.033 111.904 753.601C112.504 753.169 112.792 752.569 112.792 751.849C112.792 751.129 112.528 750.505 111.976 750.025C111.448 749.545 110.656 749.209 109.6 749.041C108.688 748.897 107.92 749.065 107.32 749.497C106.72 749.929 106.408 750.505 106.408 751.225C106.408 751.969 106.696 752.593 107.224 753.073C107.776 753.553 108.568 753.889 109.6 754.033ZM119.392 746.881C120.808 746.881 121.96 747.457 122.872 748.609C123.784 749.761 124.216 751.177 124.216 752.857C124.216 754.417 123.904 755.737 123.28 756.793C122.656 757.849 121.864 758.377 120.88 758.377C119.992 758.377 119.248 758.041 118.648 757.345C118.048 756.649 117.688 755.689 117.568 754.465C117.424 755.185 117.16 755.689 116.824 756.025C116.488 756.361 116.032 756.529 115.456 756.529C114.88 756.529 114.4 756.313 113.968 755.833C113.536 755.353 113.248 754.705 113.056 753.841C112.72 754.609 112.216 755.209 111.568 755.617C110.92 756.025 110.2 756.169 109.432 756.073C108.328 755.929 107.44 755.425 106.768 754.513C106.096 753.625 105.76 752.497 105.76 751.153C105.76 750.913 105.784 750.673 105.832 750.433C105.88 750.193 105.928 749.929 106 749.641V745.897H106.72L106.648 748.393C107.032 747.889 107.512 747.505 108.04 747.265C108.592 747.025 109.168 746.953 109.768 747.001C110.896 747.145 111.784 747.673 112.456 748.561C113.128 749.473 113.44 750.577 113.44 751.921C113.44 752.833 113.584 753.601 113.824 754.225C114.088 754.849 114.448 755.161 114.88 755.161C115.24 755.161 115.504 755.017 115.672 754.681C115.84 754.345 115.96 753.601 116.032 752.401C116.176 750.385 116.512 748.969 117.04 748.129C117.592 747.313 118.384 746.881 119.392 746.881ZM120.76 756.553C121.648 756.553 122.32 756.241 122.776 755.617C123.232 754.993 123.448 754.057 123.448 752.833C123.448 751.585 123.136 750.601 122.512 749.857C121.888 749.113 121.072 748.729 120.064 748.729C119.56 748.729 119.152 748.849 118.84 749.065C118.552 749.281 118.312 749.617 118.168 750.097C118.096 750.337 118.024 750.625 117.976 750.961C117.928 751.297 117.88 751.873 117.808 752.641C117.808 752.713 117.784 752.833 117.784 752.977C117.784 753.121 117.76 753.241 117.76 753.313C117.904 754.369 118.24 755.185 118.744 755.737C119.272 756.289 119.944 756.553 120.76 756.553ZM118.24 735.623C118.24 736.439 118 737.039 117.52 737.375C117.04 737.735 116.344 737.855 115.384 737.735L109.408 736.991C108.592 736.895 107.968 736.943 107.536 737.183C107.104 737.423 106.888 737.807 106.888 738.359C106.888 739.223 107.368 739.967 108.328 740.591C109.288 741.215 110.656 741.623 112.432 741.815L118 742.487V744.527L100.72 742.391V744.455L100 744.359C100 743.063 100 742.127 99.952 741.503C99.904 740.903 99.856 740.543 99.76 740.447L100 740.207L109.36 741.743C108.208 741.383 107.32 740.831 106.696 740.111C106.072 739.391 105.76 738.527 105.76 737.543C105.76 736.559 106.072 735.839 106.696 735.407C107.32 734.975 108.208 734.807 109.408 734.951L115.744 735.719C116.368 735.791 116.8 735.767 117.064 735.671C117.328 735.575 117.448 735.359 117.448 735.023C117.448 734.615 117.208 734.279 116.68 733.991C116.176 733.727 115.384 733.535 114.328 733.391V732.743C115.888 732.983 116.92 733.295 117.448 733.727C117.976 734.159 118.24 734.807 118.24 735.623ZM118.24 728.336C118.24 729.224 117.976 729.848 117.424 730.232C116.896 730.616 116.08 730.736 115.024 730.592L106.72 729.584V731.336L106 731.24C106 730.28 105.664 729.512 104.968 728.888C104.272 728.288 103.192 727.832 101.728 727.52V726.92L106 727.448V724.088L106.72 724.184V727.544L115.408 728.6C116.08 728.696 116.608 728.648 116.944 728.504C117.28 728.36 117.448 728.12 117.448 727.736C117.448 727.184 117.184 726.752 116.656 726.44C116.128 726.128 115.24 725.888 114.016 725.696V724.976C115.648 725.216 116.752 725.6 117.352 726.08C117.952 726.584 118.24 727.328 118.24 728.336ZM118 709.991V716.471L117.28 716.375V714.215L102.16 712.367V714.527L101.44 714.431V707.951L102.16 708.047V710.207L117.28 712.055V709.895L118 709.991ZM118.24 704.031C118.24 704.919 117.976 705.543 117.424 705.927C116.896 706.311 116.08 706.431 115.024 706.287L106.72 705.279V707.031L106 706.935C106 705.975 105.664 705.207 104.968 704.583C104.272 703.983 103.192 703.527 101.728 703.215V702.615L106 703.143V699.783L106.72 699.879V703.239L115.408 704.295C116.08 704.391 116.608 704.343 116.944 704.199C117.28 704.055 117.448 703.815 117.448 703.431C117.448 702.879 117.184 702.447 116.656 702.135C116.128 701.823 115.24 701.583 114.016 701.391V700.671C115.648 700.911 116.752 701.295 117.352 701.775C117.952 702.279 118.24 703.023 118.24 704.031ZM118.24 694.85C118.24 696.242 117.664 697.298 116.512 697.994C115.36 698.714 113.824 698.954 111.88 698.738C110.104 698.546 108.64 697.898 107.488 696.842C106.336 695.786 105.76 694.49 105.76 692.954C105.76 692.234 105.976 691.61 106.408 691.082C106.84 690.554 107.44 690.17 108.208 689.93L105.76 688.226V687.866L115.744 689.09C116.32 689.186 116.752 689.162 117.04 689.018C117.328 688.898 117.448 688.658 117.448 688.322C117.448 687.914 117.208 687.578 116.728 687.338C116.248 687.098 115.456 686.906 114.352 686.762V686.114C115.936 686.354 116.968 686.642 117.472 687.026C118 687.41 118.24 687.986 118.24 688.754C118.24 689.522 118.024 690.05 117.544 690.362C117.088 690.674 116.368 690.77 115.384 690.626L114.04 690.458C115.36 690.842 116.392 691.394 117.136 692.162C117.88 692.93 118.24 693.842 118.24 694.85ZM111.856 696.554C113.632 696.746 114.952 696.65 115.864 696.29C116.776 695.93 117.232 695.306 117.232 694.442C117.232 693.458 116.776 692.642 115.816 691.97C114.856 691.298 113.56 690.866 111.88 690.626C111.832 690.626 111.784 690.626 111.736 690.626L111.472 690.578L111.256 690.554C111.208 690.554 111.184 690.53 111.136 690.53C109.648 690.41 108.496 690.554 107.704 690.962C106.936 691.394 106.528 692.066 106.504 692.978C106.504 693.938 106.96 694.73 107.92 695.354C108.88 695.978 110.176 696.386 111.856 696.554ZM118.24 681.863C118.24 682.679 118 683.279 117.52 683.615C117.04 683.975 116.344 684.095 115.384 683.975L100.72 682.151V684.215L100 684.119C100 682.895 100 681.959 99.952 681.335C99.904 680.711 99.856 680.327 99.76 680.231L100 679.991L115.744 681.959C116.368 682.031 116.8 682.007 117.064 681.911C117.328 681.815 117.448 681.599 117.448 681.263C117.448 680.855 117.208 680.519 116.68 680.231C116.176 679.967 115.384 679.775 114.328 679.631V678.983C115.888 679.223 116.92 679.535 117.448 679.967C117.976 680.399 118.24 681.047 118.24 681.863ZM101.896 672.698C102.304 672.698 102.664 672.842 102.952 673.106C103.24 673.394 103.384 673.754 103.384 674.21C103.384 674.69 103.24 675.05 102.952 675.314C102.664 675.602 102.328 675.722 101.896 675.722C101.464 675.722 101.104 675.602 100.816 675.314C100.528 675.05 100.384 674.69 100.384 674.21C100.384 673.754 100.552 673.394 100.84 673.106C101.128 672.842 101.488 672.698 101.896 672.698ZM118.24 674.402C118.24 675.218 118 675.818 117.52 676.154C117.04 676.514 116.344 676.634 115.384 676.514L106.72 675.482V677.546L106 677.45C106 676.226 106 675.29 105.952 674.666C105.904 674.042 105.856 673.658 105.76 673.562L106 673.322L115.744 674.498C116.368 674.57 116.8 674.546 117.064 674.45C117.328 674.354 117.448 674.138 117.448 673.802C117.448 673.37 117.208 673.034 116.704 672.77C116.2 672.506 115.432 672.314 114.376 672.17V671.522C115.912 671.762 116.92 672.074 117.448 672.506C117.976 672.938 118.24 673.586 118.24 674.402ZM118.24 665.701C118.24 667.285 117.688 668.509 116.536 669.349C115.384 670.213 113.92 670.525 112.096 670.309C110.176 670.093 108.64 669.445 107.488 668.389C106.336 667.333 105.76 666.037 105.76 664.477C105.76 663.541 106.024 662.749 106.528 662.101C107.032 661.453 107.68 661.117 108.472 661.093C108.952 661.093 109.36 661.237 109.672 661.525C109.984 661.813 110.128 662.197 110.128 662.677C110.128 663.109 110.032 663.445 109.792 663.685C109.552 663.925 109.24 664.045 108.856 664.045C108.424 664.069 108.04 663.949 107.728 663.709C107.416 663.469 107.224 663.133 107.176 662.725C106.936 662.917 106.768 663.181 106.648 663.469C106.528 663.781 106.456 664.117 106.456 664.501C106.456 665.509 106.936 666.325 107.896 666.949C108.856 667.573 110.224 667.981 111.952 668.173C113.632 668.365 114.976 668.197 115.96 667.717C116.944 667.237 117.424 666.469 117.424 665.413C117.424 664.621 117.16 663.925 116.608 663.349C116.08 662.773 115.312 662.341 114.352 662.101L114.52 661.405C115.816 661.765 116.752 662.293 117.352 662.989C117.952 663.709 118.24 664.597 118.24 665.701Z" fill="white"/>
<path d="M287 340.903C287 348.503 285 354.303 280.8 358.503C276.6 362.703 270.6 364.703 262.6 364.703H191V382.703H187C187 373.703 183.4 366.303 175.8 360.503C168.4 354.703 159.6 351.703 149.4 351.703V347.703H185V316.303H191V347.703H262.6C268.8 347.703 273.4 346.703 276.2 344.703C279.2 342.703 280.6 339.703 280.6 335.303C280.6 330.103 278.2 326.503 273.4 324.103C268.6 321.703 260.8 320.503 249.8 320.503V315.103C263.4 315.103 273 317.303 278.6 321.303C284.2 325.303 287 331.903 287 340.903Z" fill="white"/>
<path d="M279 469.633V453.633H285V502.633H279V486.633H141V502.633H135C135 491.233 135 483.633 134.6 479.833C134.2 476.033 133.4 473.233 132.2 471.633L134 469.633H167C170.8 469.633 174.8 469.833 178.8 469.833C183 470.033 194.2 470.833 212.2 472.033C203.2 470.633 196 467.033 190.8 461.233C185.6 455.433 183 448.033 183 439.233C183 427.633 186.4 419.033 193 413.233C199.8 407.633 209.8 404.633 223 404.633H279V388.633H285V437.633H279V421.633H225.2C214 421.633 205.6 423.633 200.2 427.433C194.8 431.433 192 437.433 192 445.433C192 453.433 195.2 459.433 201.4 463.433C207.8 467.633 217 469.633 229 469.633H279Z" fill="white"/>
<path d="M215 583.32C223.6 583.32 230.2 581.52 234.8 577.92C239.4 574.32 241.6 569.12 241.6 562.52C241.6 556.12 239.4 550.92 234.8 547.32C230.2 543.72 223.6 541.72 215 541.72C206.2 541.72 199.6 543.52 195.2 546.92C190.8 550.52 188.4 555.72 188.4 562.52C188.4 569.32 190.8 574.52 195.2 578.12C199.6 581.72 206.2 583.32 215 583.32ZM268 563.12C268 547.12 270.8 534.92 276.4 526.52C282 518.32 290.4 514.12 301.4 514.12C312.6 514.12 321.4 518.32 327.6 526.72C334 535.12 337 546.92 337 561.72C337 576.92 334.4 588.92 329.2 597.52C324 606.12 316.4 610.32 306.8 610.32C301.2 610.32 296.2 608.12 291.4 603.32C286.8 598.72 283.6 592.52 281.6 584.72C280.8 590.72 279 595.12 275.8 598.12C272.6 601.32 268.4 602.72 263 602.72C257.4 602.72 253 600.72 249.4 596.32C245.8 591.92 243.8 586.52 243.4 579.92C240.6 586.32 236.8 591.32 231.6 594.92C226.6 598.52 221 600.32 215 600.32C205.8 600.32 198 596.72 192 589.52C186 582.32 183 573.32 183 562.52C183 560.12 183.2 557.72 183.6 555.32C184 553.12 184.4 550.92 185 548.72V510.72H191L190.4 537.72C193.2 533.52 196.8 530.32 201 528.12C205.2 525.92 209.8 524.72 215 524.72C224 524.72 231.6 528.52 237.8 535.92C244 543.32 247 552.12 247 562.52C247 572.92 248 580.12 249.6 584.52C251.2 588.92 253.8 590.92 257.4 590.92C261.2 590.92 264 588.92 265.6 584.92C267.2 580.92 268 573.52 268 563.12ZM306.4 593.12C314 593.12 320 590.32 324.2 584.72C328.4 579.12 330.4 571.52 330.4 561.52C330.4 550.72 328.4 542.12 324 536.12C319.6 530.12 313.6 527.12 305.8 527.12C298.4 527.12 293 529.92 289.4 535.52C285.8 541.12 284 549.72 284 561.72V576.52C285.6 581.92 288.2 586.12 292.2 588.92C296.2 591.72 301 593.12 306.4 593.12Z" fill="white"/>
<path d="M279 622.383H285V671.383H279V655.383H191V671.383H185C185 657.583 185 649.183 184.6 646.383C184.2 643.583 183.4 641.583 182.2 640.383L184 638.383H279V622.383ZM132 648.983C132 645.183 133.4 642.183 135.8 639.783C138.2 637.583 141.2 636.383 144.6 636.383C148 636.383 151 637.583 153.4 639.783C155.8 642.183 157 645.183 157 648.983C157 652.983 155.8 655.983 153.4 658.183C151 660.583 148.2 661.583 144.6 661.583C141 661.583 138 660.583 135.6 658.183C133.2 655.983 132 652.983 132 648.983Z" fill="white"/>
<path d="M285 684.4V778H279V761H153V778H147V721H153V743H279V717C279 707.2 277 700.4 272.8 696.4C268.6 692.4 260.4 690.4 248.2 690.4H240.2V684.4H285Z" fill="white"/>
<rect x="362" y="2" width="1" height="820" fill="white"/>
<path d="M406.264 765.928C406.264 766.456 406.168 766.888 405.928 767.224C405.712 767.56 405.376 767.824 404.896 768.016C404.68 768.112 404.416 768.184 404.104 768.256C403.792 768.328 403.168 768.424 402.256 768.544C400.744 768.784 399.712 769.096 399.184 769.528C398.656 769.96 398.368 770.632 398.344 771.544V772.36L405.208 773.2V770.536L406 770.632V777.856L405.208 777.76V775.792L390.232 773.968V775.912L389.44 775.816V770.728C389.44 768.472 389.824 766.744 390.592 765.592C391.36 764.44 392.416 763.96 393.784 764.128C394.864 764.272 395.8 764.848 396.592 765.856C397.384 766.864 397.864 768.088 398.008 769.528C398.248 768.904 398.464 768.376 398.68 767.944C398.92 767.512 399.16 767.128 399.4 766.84C399.688 766.552 400.024 766.312 400.384 766.144C400.744 766 401.32 765.856 402.136 765.76C403.696 765.568 404.584 765.424 404.8 765.328C405.016 765.232 405.112 765.088 405.112 764.872C405.112 764.56 404.896 764.296 404.44 764.08C404.008 763.888 403.312 763.72 402.352 763.6V762.88C403.792 763.072 404.8 763.384 405.376 763.864C405.976 764.344 406.264 765.04 406.264 765.928ZM390.232 771.376L397.576 772.264V771.592C397.576 770.2 397.264 769.096 396.64 768.328C396.016 767.56 395.056 767.08 393.808 766.912C392.608 766.768 391.72 767.008 391.12 767.632C390.544 768.28 390.232 769.312 390.232 770.752V771.376ZM406.264 757.04C406.264 758.6 405.688 759.8 404.536 760.616C403.384 761.432 401.872 761.744 400.048 761.528C398.128 761.336 396.592 760.688 395.44 759.584C394.288 758.48 393.688 757.16 393.688 755.576C393.688 754.424 393.976 753.512 394.552 752.816C395.128 752.144 395.848 751.808 396.736 751.832C397.984 751.88 398.944 752.528 399.616 753.776C400.288 755.024 400.648 756.776 400.648 759.008C402.232 759.152 403.432 759.008 404.2 758.576C404.968 758.168 405.352 757.472 405.352 756.512C405.352 755.648 405.136 754.952 404.656 754.424C404.2 753.896 403.408 753.464 402.304 753.128L402.472 752.384C403.792 752.744 404.752 753.296 405.352 754.04C405.976 754.808 406.264 755.792 406.264 757.04ZM394.48 755.792C394.48 756.608 394.96 757.304 395.92 757.856C396.88 758.432 398.176 758.792 399.856 758.96C399.832 757.424 399.544 756.272 398.992 755.504C398.44 754.736 397.6 754.304 396.496 754.232C395.896 754.208 395.416 754.328 395.032 754.616C394.672 754.904 394.48 755.288 394.48 755.792ZM397.576 747.065C398.536 747.209 399.304 747.089 399.88 746.705C400.456 746.321 400.744 745.769 400.744 745.097C400.744 744.425 400.48 743.849 399.928 743.393C399.4 742.961 398.608 742.649 397.576 742.505C396.64 742.385 395.872 742.505 395.296 742.889C394.72 743.273 394.408 743.801 394.408 744.473C394.408 745.169 394.696 745.745 395.224 746.177C395.752 746.609 396.544 746.921 397.576 747.065ZM407.296 740.033C408.736 740.033 409.912 740.633 410.824 741.785C411.76 742.937 412.216 744.401 412.216 746.153C412.216 747.785 411.928 749.105 411.304 750.161C410.68 751.217 409.888 751.745 408.88 751.745C408.016 751.745 407.272 751.409 406.672 750.713C406.096 750.017 405.736 749.081 405.64 747.881C405.496 748.601 405.232 749.129 404.896 749.465C404.56 749.801 404.104 749.969 403.528 749.969C402.952 749.969 402.424 749.729 401.968 749.249C401.536 748.769 401.224 748.097 401.056 747.233C400.72 748.049 400.24 748.649 399.592 749.057C398.944 749.489 398.224 749.633 397.432 749.537C396.28 749.393 395.368 748.865 394.696 747.929C394.024 746.993 393.688 745.817 393.688 744.377C393.688 744.113 393.712 743.825 393.76 743.537C393.808 743.249 393.88 742.961 393.976 742.649V738.953L394.744 738.977L394.672 741.353C395.056 740.873 395.512 740.513 396.04 740.273C396.568 740.057 397.144 739.985 397.72 740.033C398.848 740.177 399.76 740.729 400.432 741.665C401.104 742.601 401.44 743.777 401.44 745.169C401.44 746.081 401.56 746.825 401.8 747.401C402.04 748.001 402.376 748.313 402.784 748.313C403.12 748.313 403.36 748.169 403.504 747.833C403.672 747.521 403.792 746.777 403.864 745.601C403.96 743.657 404.296 742.241 404.848 741.353C405.424 740.489 406.24 740.033 407.296 740.033ZM408.76 749.657C409.624 749.657 410.296 749.369 410.728 748.745C411.16 748.121 411.376 747.233 411.376 746.033C411.376 744.833 411.088 743.849 410.464 743.105C409.864 742.385 409.096 742.001 408.136 742.001C407.416 742.001 406.912 742.241 406.576 742.721C406.264 743.201 406.048 744.257 405.928 745.889C405.928 745.985 405.928 746.129 405.928 746.321C405.928 746.513 405.904 746.633 405.88 746.729C406.048 747.689 406.384 748.409 406.864 748.913C407.344 749.417 407.992 749.657 408.76 749.657ZM401.944 729.74C403.36 730.052 404.44 730.58 405.16 731.3C405.904 732.02 406.264 732.932 406.264 734.012C406.264 735.068 405.904 735.86 405.184 736.388C404.464 736.916 403.504 737.084 402.256 736.94L394.768 736.004V737.996L393.976 737.9C393.976 736.604 393.976 735.644 393.928 734.972C393.88 734.3 393.832 733.916 393.736 733.772L393.976 733.436L402.352 734.468C403.24 734.564 403.912 734.516 404.344 734.276C404.776 734.036 404.992 733.628 404.992 733.052C404.992 732.26 404.56 731.588 403.648 731.06C402.76 730.532 401.464 730.172 399.76 729.98L394.768 729.38V730.916L393.976 730.796C393.976 729.644 393.976 728.78 393.928 728.204C393.88 727.652 393.832 727.292 393.736 727.148L393.976 726.812L403.696 727.988C404.248 728.084 404.656 728.06 404.92 727.94C405.208 727.82 405.328 727.604 405.328 727.292C405.328 726.908 405.112 726.62 404.632 726.38C404.152 726.14 403.408 725.972 402.352 725.828V725.084C403.936 725.324 404.968 725.636 405.496 726.044C406.024 726.452 406.264 727.076 406.264 727.916C406.264 728.684 406.048 729.212 405.592 729.548C405.16 729.884 404.464 730.004 403.504 729.908C402.976 729.86 402.592 729.812 402.328 729.764C402.088 729.74 401.944 729.74 401.944 729.74ZM406.264 720.649C406.264 721.561 406.024 722.185 405.496 722.569C404.968 722.953 404.2 723.097 403.168 722.953L388.792 721.177V723.169L388.024 723.049C388.024 721.849 388 720.889 387.952 720.193C387.904 719.497 387.856 719.065 387.76 718.921L388 718.585L403.72 720.529C404.296 720.601 404.728 720.577 404.968 720.481C405.208 720.385 405.328 720.193 405.328 719.881C405.328 719.497 405.088 719.185 404.608 718.945C404.128 718.705 403.36 718.513 402.328 718.369V717.625C403.864 717.865 404.92 718.201 405.448 718.633C406 719.089 406.264 719.761 406.264 720.649ZM406.264 712.452C406.264 713.868 405.688 714.924 404.536 715.62C403.384 716.34 401.824 716.58 399.88 716.34C398.08 716.148 396.592 715.5 395.44 714.396C394.288 713.316 393.688 711.972 393.688 710.388C393.688 709.668 393.904 709.02 394.288 708.492C394.696 707.964 395.272 707.532 396.04 707.244L393.688 705.588V705.012L403.696 706.26C404.272 706.332 404.68 706.308 404.944 706.188C405.208 706.068 405.328 705.852 405.328 705.54C405.328 705.156 405.112 704.868 404.632 704.628C404.176 704.388 403.408 704.22 402.352 704.076V703.332C403.912 703.572 404.944 703.884 405.472 704.292C406 704.724 406.264 705.348 406.264 706.164C406.264 706.956 406.024 707.508 405.544 707.844C405.064 708.18 404.344 708.3 403.36 708.18L402.136 708.036C403.432 708.42 404.464 708.996 405.184 709.764C405.904 710.532 406.264 711.444 406.264 712.452ZM399.808 713.724C401.536 713.916 402.832 713.844 403.72 713.508C404.608 713.172 405.04 712.596 405.04 711.78C405.04 710.868 404.608 710.1 403.696 709.476C402.784 708.852 401.536 708.444 399.928 708.228C399.88 708.228 399.832 708.228 399.76 708.228C399.712 708.228 399.592 708.204 399.424 708.156L399.184 708.132C399.136 708.132 399.088 708.108 399.04 708.108C397.552 707.988 396.448 708.108 395.68 708.492C394.912 708.876 394.528 709.5 394.504 710.364C394.504 711.276 394.984 711.996 395.896 712.572C396.808 713.148 398.128 713.532 399.808 713.724ZM406 698.802V701.274L394.744 699.906V701.874L393.976 701.778C393.976 700.626 393.976 699.762 393.928 699.162C393.88 698.562 393.808 698.202 393.712 698.058L393.952 697.722L397.336 698.13C396.184 697.794 395.296 697.314 394.648 696.69C394.024 696.066 393.688 695.37 393.688 694.578C393.688 693.858 393.904 693.258 394.312 692.802C394.744 692.37 395.296 692.13 395.992 692.13C396.544 692.13 397 692.298 397.36 692.634C397.72 692.97 397.888 693.378 397.888 693.906C397.888 694.386 397.768 694.746 397.504 695.01C397.264 695.274 396.904 695.394 396.472 695.394C395.992 695.394 395.608 695.274 395.32 695.01C395.032 694.746 394.864 694.386 394.816 693.93C394.768 694.026 394.72 694.146 394.672 694.29C394.648 694.434 394.624 694.578 394.624 694.722C394.624 695.586 395.152 696.306 396.208 696.906C397.264 697.53 398.68 697.938 400.456 698.13L406 698.802ZM406 678.394V685.114L405.208 685.018V682.954L390.232 681.106V683.17L389.44 683.074V676.354L390.232 676.45V678.514L405.208 680.362V678.298L406 678.394ZM406.264 672.292C406.264 673.276 406 673.972 405.424 674.38C404.872 674.812 404.032 674.956 402.904 674.812L394.744 673.828V675.628L394 675.532C394 674.476 393.64 673.588 392.92 672.916C392.2 672.244 391.12 671.74 389.68 671.404V670.732L393.976 671.26V667.924L394.744 668.02V671.356L403.36 672.412C404.056 672.508 404.56 672.46 404.896 672.316C405.232 672.172 405.376 671.932 405.376 671.548C405.376 671.02 405.136 670.588 404.608 670.276C404.08 669.988 403.216 669.748 401.992 669.556V668.788C403.624 669.028 404.752 669.412 405.352 669.916C405.976 670.444 406.264 671.236 406.264 672.292ZM406.264 662.975C406.264 664.391 405.688 665.447 404.536 666.143C403.384 666.863 401.824 667.103 399.88 666.863C398.08 666.671 396.592 666.023 395.44 664.919C394.288 663.839 393.688 662.495 393.688 660.911C393.688 660.191 393.904 659.543 394.288 659.015C394.696 658.487 395.272 658.055 396.04 657.767L393.688 656.111V655.535L403.696 656.783C404.272 656.855 404.68 656.831 404.944 656.711C405.208 656.591 405.328 656.375 405.328 656.063C405.328 655.679 405.112 655.391 404.632 655.151C404.176 654.911 403.408 654.743 402.352 654.599V653.855C403.912 654.095 404.944 654.407 405.472 654.815C406 655.247 406.264 655.871 406.264 656.687C406.264 657.479 406.024 658.031 405.544 658.367C405.064 658.703 404.344 658.823 403.36 658.703L402.136 658.559C403.432 658.943 404.464 659.519 405.184 660.287C405.904 661.055 406.264 661.967 406.264 662.975ZM399.808 664.247C401.536 664.439 402.832 664.367 403.72 664.031C404.608 663.695 405.04 663.119 405.04 662.303C405.04 661.391 404.608 660.623 403.696 659.999C402.784 659.375 401.536 658.967 399.928 658.751C399.88 658.751 399.832 658.751 399.76 658.751C399.712 658.751 399.592 658.727 399.424 658.679L399.184 658.655C399.136 658.655 399.088 658.631 399.04 658.631C397.552 658.511 396.448 658.631 395.68 659.015C394.912 659.399 394.528 660.023 394.504 660.887C394.504 661.799 394.984 662.519 395.896 663.095C396.808 663.671 398.128 664.055 399.808 664.247ZM406.264 649.47C406.264 650.382 406.024 651.006 405.496 651.39C404.968 651.774 404.2 651.918 403.168 651.774L388.792 649.998V651.99L388.024 651.87C388.024 650.67 388 649.71 387.952 649.014C387.904 648.318 387.856 647.886 387.76 647.742L388 647.406L403.72 649.35C404.296 649.422 404.728 649.398 404.968 649.302C405.208 649.206 405.328 649.014 405.328 648.702C405.328 648.318 405.088 648.006 404.608 647.766C404.128 647.526 403.36 647.334 402.328 647.19V646.446C403.864 646.686 404.92 647.022 405.448 647.454C406 647.91 406.264 648.582 406.264 649.47ZM389.872 639.808C390.328 639.808 390.712 639.976 391.048 640.288C391.384 640.624 391.528 641.032 391.528 641.56C391.528 642.088 391.384 642.496 391.072 642.784C390.76 643.072 390.376 643.216 389.92 643.216C389.464 643.216 389.08 643.072 388.744 642.76C388.432 642.448 388.264 642.016 388.264 641.464C388.264 640.96 388.432 640.552 388.744 640.264C389.056 639.976 389.44 639.808 389.872 639.808ZM406.264 641.704C406.264 642.616 406.024 643.24 405.496 643.624C404.992 644.008 404.224 644.152 403.168 644.032L394.744 643.024V645.016L393.976 644.896C393.976 643.696 393.952 642.736 393.904 642.016C393.856 641.32 393.808 640.888 393.712 640.744L393.952 640.432L403.72 641.608C404.296 641.68 404.728 641.656 404.968 641.56C405.208 641.464 405.328 641.272 405.328 640.96C405.328 640.576 405.088 640.264 404.608 640C404.128 639.76 403.384 639.568 402.376 639.448V638.704C403.912 638.944 404.944 639.28 405.472 639.712C406 640.168 406.264 640.84 406.264 641.704ZM406.264 632.651C406.264 634.307 405.688 635.579 404.536 636.443C403.384 637.307 401.872 637.643 400.048 637.427C398.128 637.211 396.568 636.539 395.416 635.435C394.264 634.331 393.688 632.963 393.688 631.331C393.688 630.323 393.952 629.459 394.48 628.787C395.008 628.115 395.68 627.803 396.544 627.803C397.072 627.827 397.48 627.995 397.792 628.307C398.128 628.619 398.272 629.027 398.272 629.531C398.272 630.011 398.152 630.371 397.912 630.611C397.672 630.875 397.312 630.995 396.88 630.995C396.424 630.995 396.04 630.875 395.704 630.611C395.392 630.347 395.2 630.011 395.128 629.579C394.912 629.771 394.744 630.011 394.624 630.299C394.528 630.587 394.456 630.923 394.456 631.283C394.456 632.243 394.936 633.035 395.872 633.659C396.832 634.283 398.176 634.667 399.928 634.859C401.608 635.051 402.952 634.907 403.912 634.451C404.872 633.995 405.352 633.251 405.352 632.219C405.352 631.427 405.088 630.755 404.536 630.179C404.008 629.603 403.264 629.195 402.304 628.955L402.472 628.163C403.768 628.523 404.704 629.075 405.328 629.819C405.952 630.563 406.264 631.499 406.264 632.651Z" fill="white"/>
<path d="M566 106.081V82.4813H572.6V142.281H566V126.681H478.8V142.281H472.4C472.4 130.081 472.4 122.481 472 119.281C471.8 116.281 471 113.881 469.6 112.281L471.4 109.481H500.8C491.2 108.081 483.8 104.881 478.2 99.8813C472.8 95.0813 470 88.8812 470 81.2812C470 74.4812 472 68.8813 476 64.8813C480 60.8813 485 58.8813 491.4 58.8813C496.4 58.8813 500.2 60.0812 503 62.2812C505.8 64.6813 507 67.8813 507 71.8813C507 76.2813 505.8 79.6813 503.4 82.0813C501 84.4813 497.8 85.6813 493.6 85.6813C490 85.6813 487.2 84.6812 484.8 82.2812C482.4 79.8813 481 76.8813 480.4 72.8813C479.2 74.0813 478.2 75.4813 477.6 77.0813C477.2 78.6813 476.8 80.4813 476.8 82.8813C476.8 90.2813 481.4 96.0813 490.4 100.081C499.6 104.081 512 106.081 527.6 106.081H566Z" fill="white"/>
<path d="M574.8 172.224C574.8 179.024 573 184.024 569 187.424C565.2 190.824 559.4 192.624 551.4 193.024C558.6 195.424 564.4 199.224 568.6 204.824C572.8 210.424 574.8 217.224 574.8 225.024C574.8 233.824 573 240.424 569 245.224C565 250.024 559.4 252.224 551.8 252.224C544.4 252.224 538.2 249.024 533.2 242.224C528.2 235.624 523.6 224.624 519.6 209.024L515.8 194.624H501.8C493.8 194.624 487.8 196.424 483.8 199.824C479.8 203.424 477.8 208.624 477.8 215.624C477.8 219.624 478.4 223.024 479.6 226.224C480.8 229.424 482.6 232.224 484.8 234.624C486 231.224 487.6 228.624 489.8 226.824C492 225.024 494.8 224.024 498 224.024C502 224.024 505 225.224 507.4 227.424C509.8 229.824 510.8 233.024 510.8 237.024C510.8 241.024 509.8 244.224 507.4 246.424C505 248.824 502 249.824 498 249.824C490.4 249.824 484 246.024 478.4 238.224C472.8 230.424 470 221.024 470 209.824C470 198.024 472.6 189.024 477.6 183.024C482.6 177.024 490 174.024 499.8 174.024H555.6C559 174.024 561.6 173.624 563.2 172.424C565 171.224 565.8 169.624 565.8 167.224C565.8 164.024 563.8 161.424 559.8 159.824C555.8 158.224 550 157.224 542.2 157.224V151.224C553.8 151.224 562 153.024 567.2 156.224C572.4 159.424 574.8 164.824 574.8 172.224ZM548.6 230.824C553.6 230.824 557.4 229.624 559.8 227.224C562.4 224.824 563.6 221.224 563.6 216.824C563.6 209.824 560.8 204.424 555 200.424C549.2 196.624 540.8 194.624 530 194.624H521.8L525.4 206.824C527.8 215.224 530.8 221.424 534.4 225.224C538 229.024 542.8 230.824 548.6 230.824Z" fill="white"/>
<path d="M572.6 265.881V317.481H566V301.881H429.2V317.481H422.6C422.6 306.281 422.6 298.481 422.2 294.081C421.8 289.681 421.2 286.481 420 284.081L421.8 281.481H566V265.881H572.6Z" fill="white"/>
<path d="M575.4 358.542L573.6 361.342H546.4C555.8 362.742 562.8 366.142 567.6 371.342C572.4 376.742 574.8 384.142 574.8 393.342C574.8 404.742 571.6 413.142 565.2 418.342C558.8 423.742 548.6 426.342 535 426.342H478.8V443.742H472.4C472.4 429.742 472.4 420.742 472 416.742C471.6 412.742 470.8 410.142 469.6 408.542L471.4 405.942H533.6C544.4 405.942 552.4 404.342 557.2 401.142C562.2 397.942 564.6 392.742 564.6 385.542C564.6 378.742 561.8 373.742 555.8 370.142C550 366.542 541.4 364.742 529.8 364.742H478.8V389.142H472.4C472.4 371.742 472.4 360.742 472 356.142C471.6 351.542 470.8 348.542 469.6 346.942L471.4 344.142H566V328.542H572.6C572.6 336.142 572.8 341.942 573.2 346.142C573.6 350.542 574.4 354.542 575.4 358.542Z" fill="white"/>
<path d="M502.4 518.616C511 518.616 517.6 517.016 522 513.616C526.6 510.416 528.8 505.616 528.8 499.616C528.8 493.616 526.6 489.016 522 485.616C517.6 482.416 511 480.616 502.4 480.616C493.6 480.616 487 482.216 482.6 485.416C478.2 488.616 476 493.216 476 499.616C476 506.016 478.2 510.816 482.6 514.016C487 517.216 493.6 518.616 502.4 518.616ZM554.2 499.616C554.2 483.616 557.2 471.416 562.8 463.016C568.4 454.616 576.8 450.416 587.8 450.416C599.4 450.416 608.4 454.816 614.8 463.216C621.4 471.816 624.6 483.616 624.6 498.816C624.6 514.416 622 526.616 616.8 535.216C611.6 544.016 604.4 548.216 594.8 548.216C589.2 548.216 584 546.016 579.4 541.216C574.8 536.616 571.6 530.416 569.8 522.416C569 528.616 566.8 533.216 563.6 536.216C560.4 539.416 556.2 540.816 550.8 540.816C545.4 540.816 540.8 538.816 537.2 534.416C533.6 530.016 531.6 524.616 531 518.016C528.4 524.616 524.6 529.816 519.4 533.616C514.2 537.416 508.6 539.216 502.4 539.216C492.8 539.216 485 535.616 479 528.016C473 520.416 470 511.016 470 499.616C470 496.816 470.2 494.216 470.6 491.616C471 489.016 471.6 486.416 472.4 484.016V447.216H478.8L478.2 472.416C481 468.416 484.6 465.416 488.6 463.216C492.8 461.216 497.4 460.016 502.4 460.016C511.6 460.016 519.2 464.016 525.4 471.616C531.6 479.416 534.6 488.816 534.6 499.616C534.6 509.616 535.4 516.616 537 520.616C538.6 524.816 541 526.816 544.4 526.816C548 526.816 550.4 525.016 552 521.016C553.6 517.216 554.2 510.016 554.2 499.616ZM594.2 529.016C601.6 529.016 607.4 526.416 611.4 520.816C615.4 515.216 617.4 507.616 617.4 498.016C617.4 487.416 615.4 479.216 611.2 473.216C607 467.416 601.2 464.416 593.8 464.416C586.6 464.416 581.2 467.216 577.8 472.616C574.6 478.216 572.8 486.816 572.8 498.816L572.4 513.816C574 518.616 576.6 522.416 580.4 525.016C584.4 527.816 589 529.016 594.2 529.016Z" fill="white"/>
<path d="M574.8 599.727C574.8 613.727 570 624.927 560.4 633.727C550.8 642.527 538 646.927 522 646.927C506.8 646.927 494.2 642.727 484.6 634.127C475 625.727 470 614.927 470 601.727C470 589.127 474.2 579.127 482.6 571.727C491 564.327 501.8 560.527 515.4 560.527C516 560.527 516.8 560.727 517.8 560.727C519 560.727 519.8 560.927 520.6 560.927V625.327H522.8C538.8 625.327 550.2 623.327 557.2 618.927C564.2 614.527 567.6 607.727 567.6 598.127C567.6 590.527 565.6 584.127 561.6 579.327C557.6 574.527 551 570.727 542 567.927L543.4 561.727C553.2 564.127 560.8 568.527 566.4 575.327C572 582.127 574.8 590.327 574.8 599.727ZM476.8 602.127C476.8 609.727 479.8 615.327 485.8 618.927C491.8 622.527 501.2 624.727 514 625.127V581.527C501 581.527 491.6 583.127 485.6 586.327C479.8 589.727 476.8 594.927 476.8 602.127Z" fill="white"/>
<path d="M574.8 677.4C574.8 682 574 685.8 572.2 688.8C570.4 692 567.6 694.6 563.6 696.6C562 697.8 559.8 698.8 557.2 699.6C554.8 700.6 549.4 702.2 541.4 704.2C528.2 707.8 519.6 711.6 515.2 715.8C511 720 508.8 726.2 508.8 734.2V740.2H566V717.8H572.6V778H566V761.6H441.2V778H434.6V734C434.6 715.6 437.8 701.4 444 691.4C450.4 681.4 459.2 676.2 470.8 676.2C479.8 676.2 487.6 680.2 494.2 687.8C500.8 695.4 504.8 705.2 506 717C508 711.6 510 707 512 703C514 699.2 516 696 518 693.4C520.4 690.4 523.2 688 526 686.2C529 684.6 533.8 682.8 540.4 681.2C553 678.2 560.2 676.2 562.2 675C564.2 674 565.2 672.6 565.2 670.6C565.2 668 563.4 666 559.6 664.8C556 663.6 550.2 663 542.2 663V657C554 657 562.4 658.8 567.4 662C572.4 665.2 574.8 670.4 574.8 677.4ZM471 699.2C461 699.2 453.6 702.2 448.6 707.8C443.8 713.4 441.2 722 441.2 733.2V740.2H502.4V733.6C502.4 722.2 499.8 713.6 494.6 707.8C489.4 702.2 481.4 699.2 471 699.2Z" fill="white"/>
<rect x="649.602" y="2" width="1" height="820" fill="white"/>
<path d="M693.602 772.48V777.952L692.714 777.832V776.008L677.93 774.208V776.032L677.042 775.912V770.104L686.546 767.944L677.042 763.264V757.504L677.93 757.6V759.424L692.714 761.224V759.4L693.602 759.52V766.864L692.714 766.744V764.632L678.482 762.88L691.394 769.264V770.152L678.458 773.128L692.714 774.88V772.36L693.602 772.48ZM693.938 752.06C693.938 753.74 693.362 755.06 692.162 755.972C690.986 756.884 689.45 757.244 687.578 757.028C685.658 756.812 684.122 756.092 682.946 754.892C681.794 753.692 681.194 752.252 681.194 750.548C681.194 749.3 681.506 748.316 682.082 747.548C682.682 746.78 683.45 746.42 684.386 746.444C685.634 746.492 686.618 747.14 687.29 748.388C687.962 749.66 688.322 751.436 688.346 753.716C689.882 753.812 691.01 753.668 691.73 753.26C692.474 752.876 692.834 752.204 692.834 751.268C692.834 750.452 692.594 749.756 692.114 749.228C691.634 748.7 690.866 748.268 689.81 747.956L689.954 747.02C691.298 747.38 692.282 747.98 692.954 748.82C693.626 749.66 693.938 750.74 693.938 752.06ZM682.106 750.884C682.106 751.604 682.562 752.18 683.474 752.66C684.386 753.14 685.706 753.476 687.41 753.644C687.362 752.348 687.026 751.34 686.45 750.668C685.874 749.996 685.01 749.636 683.882 749.588C683.33 749.588 682.898 749.684 682.586 749.9C682.274 750.14 682.106 750.452 682.106 750.884ZM687.386 741.263C689.018 741.431 690.242 741.359 691.058 741.047C691.874 740.759 692.282 740.207 692.282 739.439C692.282 738.743 691.874 738.143 691.034 737.639C690.194 737.135 689.066 736.775 687.626 736.559C687.29 736.535 687.002 736.511 686.786 736.463C686.57 736.439 686.426 736.415 686.378 736.415C685.034 736.319 683.978 736.439 683.234 736.799C682.514 737.159 682.13 737.711 682.13 738.455C682.13 739.175 682.61 739.799 683.522 740.279C684.434 740.759 685.73 741.095 687.386 741.263ZM693.914 734.159C693.914 734.975 693.698 735.575 693.218 735.959C692.738 736.343 692.018 736.511 691.058 736.463C691.058 736.463 691.01 736.463 690.938 736.463C690.866 736.463 690.722 736.439 690.482 736.415C690.29 736.415 690.146 736.391 690.074 736.391C690.002 736.391 689.954 736.367 689.93 736.367C691.25 736.751 692.258 737.327 692.93 738.071C693.602 738.839 693.938 739.751 693.938 740.807C693.938 742.199 693.362 743.231 692.186 743.951C691.034 744.671 689.45 744.911 687.482 744.719C685.658 744.551 684.146 743.903 682.97 742.751C681.794 741.623 681.194 740.231 681.194 738.551C681.194 737.999 681.338 737.495 681.578 737.039C681.818 736.583 682.178 736.199 682.634 735.911C682.538 735.911 681.986 735.863 680.978 735.767C679.97 735.671 678.482 735.527 676.538 735.335V737.159L675.65 737.063C675.65 735.815 675.626 734.783 675.578 733.991C675.53 733.199 675.458 732.671 675.362 732.431L675.602 731.927L691.202 733.751C691.73 733.799 692.09 733.775 692.33 733.679C692.57 733.583 692.69 733.415 692.69 733.175C692.69 732.839 692.474 732.575 692.042 732.383C691.61 732.191 690.914 732.023 689.954 731.879V730.967C691.538 731.207 692.594 731.543 693.122 732.023C693.65 732.503 693.914 733.199 693.914 734.159ZM677.45 723.582C678.002 723.582 678.458 723.798 678.842 724.182C679.226 724.59 679.418 725.118 679.418 725.766C679.418 726.39 679.25 726.87 678.914 727.206C678.578 727.542 678.122 727.71 677.594 727.71C677.066 727.71 676.586 727.518 676.202 727.11C675.818 726.726 675.602 726.198 675.602 725.526C675.602 724.926 675.794 724.446 676.13 724.11C676.49 723.774 676.922 723.582 677.45 723.582ZM693.914 725.886C693.914 726.942 693.626 727.686 693.026 728.118C692.45 728.574 691.562 728.718 690.362 728.574L682.418 727.614V729.438L681.506 729.342C681.506 728.022 681.482 726.966 681.434 726.198C681.386 725.43 681.338 724.926 681.242 724.686L681.458 724.206L691.274 725.382C691.778 725.454 692.138 725.454 692.354 725.358C692.594 725.262 692.69 725.094 692.69 724.83C692.69 724.494 692.474 724.23 692.018 724.014C691.586 723.798 690.89 723.63 689.978 723.51V722.598C691.514 722.814 692.546 723.174 693.098 723.678C693.65 724.182 693.914 724.926 693.914 725.886ZM690.146 712.91C691.394 713.27 692.354 713.822 692.978 714.542C693.626 715.262 693.938 716.15 693.938 717.206C693.938 718.358 693.578 719.198 692.81 719.75C692.066 720.326 691.034 720.518 689.69 720.35L682.466 719.462V721.286L681.554 721.166C681.554 719.87 681.554 718.814 681.506 718.046C681.458 717.278 681.386 716.798 681.29 716.558L681.506 716.054L689.93 717.086C690.77 717.182 691.394 717.134 691.778 716.942C692.186 716.75 692.378 716.39 692.378 715.862C692.378 715.19 691.994 714.614 691.202 714.182C690.434 713.75 689.258 713.414 687.722 713.222L682.466 712.574V713.99L681.554 713.87C681.554 712.694 681.53 711.758 681.482 711.038C681.434 710.342 681.386 709.886 681.29 709.67L681.506 709.166L691.202 710.342C691.706 710.414 692.09 710.39 692.33 710.294C692.57 710.198 692.69 710.03 692.69 709.766C692.69 709.43 692.474 709.166 692.042 708.974C691.61 708.782 690.914 708.614 689.954 708.494V707.582C691.538 707.822 692.594 708.158 693.122 708.638C693.65 709.118 693.914 709.814 693.914 710.774C693.914 711.542 693.698 712.094 693.266 712.478C692.834 712.862 692.186 713.03 691.322 713.03H691.202C691.13 713.03 690.962 713.006 690.722 712.958C690.506 712.958 690.362 712.934 690.266 712.934L690.146 712.91ZM693.914 689.823C693.914 690.831 693.626 691.575 693.026 692.007C692.45 692.439 691.562 692.583 690.362 692.439L685.106 691.767C684.314 691.671 683.714 691.719 683.33 691.887C682.946 692.055 682.73 692.343 682.73 692.775C682.73 693.327 683.042 693.783 683.618 694.143C684.194 694.503 685.106 694.791 686.306 694.983L693.602 695.895V699.207L685.106 698.103C684.29 698.007 683.69 698.031 683.306 698.175C682.922 698.343 682.73 698.655 682.73 699.087C682.73 699.735 683.114 700.239 683.834 700.623C684.554 701.007 685.682 701.271 687.218 701.463L693.602 702.255V705.519L682.418 704.151V705.999L681.506 705.879C681.506 704.775 681.482 703.887 681.434 703.191C681.386 702.495 681.338 702.039 681.242 701.799L681.458 701.295L684.314 701.655C683.282 701.319 682.514 700.815 681.986 700.143C681.458 699.495 681.194 698.703 681.194 697.743C681.194 696.999 681.386 696.375 681.77 695.895C682.154 695.415 682.682 695.103 683.402 694.959C682.682 694.575 682.13 694.095 681.746 693.519C681.386 692.943 681.194 692.247 681.194 691.455C681.194 690.351 681.554 689.559 682.274 689.055C682.994 688.575 684.002 688.407 685.346 688.551L691.202 689.247C691.73 689.319 692.114 689.319 692.354 689.223C692.594 689.127 692.69 688.959 692.69 688.695C692.69 688.359 692.474 688.095 692.042 687.879C691.61 687.687 690.938 687.519 689.978 687.375V686.463C691.514 686.679 692.546 687.039 693.098 687.543C693.65 688.071 693.914 688.815 693.914 689.823ZM693.602 671.658V678.858L692.714 678.738V676.842L677.93 675.042V676.938L677.042 676.818V669.642L677.93 669.738V671.634L692.714 673.434V671.562L693.602 671.658ZM693.938 665.296C693.938 666.472 693.65 667.312 693.026 667.816C692.402 668.344 691.49 668.512 690.242 668.368L682.418 667.408V669.328L681.602 669.208C681.602 667.96 681.242 666.904 680.498 666.064C679.754 665.224 678.674 664.648 677.234 664.312V663.472L681.506 664.024V660.688L682.418 660.808V664.12L690.866 665.152C691.538 665.248 692.042 665.224 692.378 665.08C692.714 664.936 692.858 664.672 692.858 664.264C692.858 663.784 692.618 663.4 692.09 663.112C691.562 662.824 690.722 662.608 689.522 662.416V661.528C691.226 661.768 692.378 662.176 693.002 662.728C693.626 663.304 693.938 664.144 693.938 665.296ZM687.29 656.33C688.97 656.522 690.218 656.474 691.034 656.21C691.874 655.946 692.282 655.442 692.282 654.722C692.282 653.93 691.898 653.258 691.082 652.73C690.266 652.202 689.114 651.842 687.626 651.65C687.314 651.602 687.05 651.578 686.858 651.554C686.666 651.53 686.522 651.506 686.474 651.506C685.034 651.362 683.954 651.458 683.234 651.746C682.514 652.058 682.154 652.586 682.13 653.354C682.13 654.17 682.538 654.818 683.402 655.298C684.266 655.802 685.562 656.138 687.29 656.33ZM693.938 655.874C693.938 657.266 693.362 658.322 692.186 659.042C691.01 659.762 689.45 660.002 687.482 659.786C685.658 659.57 684.146 658.898 682.97 657.746C681.794 656.594 681.194 655.178 681.194 653.498C681.194 652.73 681.386 652.058 681.746 651.482C682.13 650.906 682.658 650.45 683.33 650.114L681.194 648.53V647.594L691.202 648.818C691.706 648.89 692.09 648.866 692.33 648.77C692.57 648.674 692.69 648.506 692.69 648.242C692.69 647.906 692.474 647.642 692.042 647.45C691.61 647.258 690.914 647.09 689.954 646.97V646.034C691.514 646.274 692.57 646.61 693.098 647.09C693.65 647.57 693.914 648.266 693.914 649.226C693.914 650.09 693.674 650.69 693.17 651.074C692.69 651.458 691.922 651.626 690.89 651.554L689.882 651.434C691.202 651.842 692.21 652.418 692.906 653.186C693.602 653.954 693.938 654.842 693.938 655.874ZM693.914 641.26C693.914 642.316 693.626 643.084 693.05 643.516C692.474 643.948 691.562 644.092 690.362 643.948L676.538 642.244V644.092L675.65 643.972C675.65 642.724 675.626 641.692 675.578 640.9C675.53 640.108 675.458 639.58 675.362 639.34L675.602 638.836L691.274 640.756C691.778 640.828 692.138 640.828 692.354 640.732C692.594 640.636 692.69 640.468 692.69 640.204C692.69 639.892 692.474 639.628 692.018 639.388C691.586 639.172 690.89 639.004 689.954 638.884V637.972C691.49 638.212 692.546 638.596 693.098 639.076C693.65 639.58 693.914 640.3 693.914 641.26ZM677.45 630.605C678.002 630.605 678.458 630.821 678.842 631.205C679.226 631.613 679.418 632.141 679.418 632.789C679.418 633.413 679.25 633.893 678.914 634.229C678.578 634.565 678.122 634.733 677.594 634.733C677.066 634.733 676.586 634.541 676.202 634.133C675.818 633.749 675.602 633.221 675.602 632.549C675.602 631.949 675.794 631.469 676.13 631.133C676.49 630.797 676.922 630.605 677.45 630.605ZM693.914 632.909C693.914 633.965 693.626 634.709 693.026 635.141C692.45 635.597 691.562 635.741 690.362 635.597L682.418 634.637V636.461L681.506 636.365C681.506 635.045 681.482 633.989 681.434 633.221C681.386 632.453 681.338 631.949 681.242 631.709L681.458 631.229L691.274 632.405C691.778 632.477 692.138 632.477 692.354 632.381C692.594 632.285 692.69 632.117 692.69 631.853C692.69 631.517 692.474 631.253 692.018 631.037C691.586 630.821 690.89 630.653 689.978 630.533V629.621C691.514 629.837 692.546 630.197 693.098 630.701C693.65 631.205 693.914 631.949 693.914 632.909ZM693.938 623.15C693.938 624.902 693.362 626.246 692.162 627.182C690.986 628.142 689.45 628.502 687.578 628.286C685.658 628.07 684.122 627.35 682.946 626.126C681.794 624.926 681.194 623.438 681.194 621.71C681.194 620.51 681.482 619.574 682.034 618.878C682.586 618.182 683.33 617.846 684.29 617.894C684.866 617.942 685.298 618.158 685.634 618.494C685.97 618.83 686.138 619.286 686.138 619.862C686.138 620.414 685.994 620.822 685.706 621.11C685.418 621.398 685.034 621.542 684.53 621.494C684.05 621.494 683.618 621.326 683.282 621.038C682.946 620.75 682.73 620.39 682.634 619.91C682.442 620.126 682.298 620.366 682.202 620.63C682.106 620.894 682.058 621.182 682.058 621.494C682.058 622.43 682.514 623.174 683.426 623.75C684.338 624.326 685.706 624.71 687.482 624.902C689.21 625.094 690.53 624.998 691.442 624.566C692.378 624.158 692.834 623.462 692.834 622.454C692.834 621.71 692.57 621.062 692.018 620.486C691.49 619.91 690.746 619.526 689.81 619.286L689.954 618.35C691.25 618.71 692.258 619.286 692.93 620.102C693.602 620.918 693.938 621.95 693.938 623.15Z" fill="white"/>
<path d="M860.602 158V204H854.602V188H766.602V204H760.602C760.602 193.4 760.602 186.4 760.202 183C759.802 179.8 759.002 177.2 757.802 175.6L759.602 173.6L784.802 174.2C776.402 173 770.002 170 765.402 165.2C761.002 160.4 758.602 153.8 758.602 145.8C758.602 138.2 760.802 132 764.802 127.2C768.802 122.6 774.802 119.8 782.402 118.8C774.802 117.2 768.802 114.2 764.802 109.4C760.802 104.6 758.602 98.6 758.602 91.2C758.602 80.2 761.402 72.4 767.002 67.8C772.602 63.4 781.802 61 794.602 61H854.602V45H860.602V91H854.602V78H796.802C786.002 78 778.202 79.4 773.602 82.2C769.002 85 766.602 89.6 766.602 96.2C766.602 103.2 769.202 108.2 774.202 111.4C779.402 114.6 787.402 116 798.602 116H854.602V103H860.602V146H854.602V133H796.802C786.002 133 778.202 134.4 773.602 137.2C769.002 140 766.602 144.6 766.602 151.2C766.602 158 769.202 163 774.402 166.2C779.602 169.4 787.802 171 798.602 171H854.602V158H860.602Z" fill="white"/>
<path d="M863.402 244.322L861.602 246.322H834.002C843.602 247.522 850.602 250.722 855.402 255.922C860.202 261.122 862.602 268.322 862.602 277.322C862.602 288.522 859.402 296.922 853.002 302.122C846.602 307.322 836.402 309.922 822.602 309.922H766.602V327.922H760.602C760.602 313.522 760.602 304.722 760.202 301.522C759.802 298.322 759.002 296.122 757.802 294.922L759.602 292.922H820.402C832.202 292.922 840.602 291.322 845.802 287.922C851.002 284.522 853.602 278.922 853.602 271.122C853.602 263.922 850.602 258.322 844.202 254.522C838.002 250.922 828.802 248.922 816.602 248.922H766.602V274.922H760.602C760.602 257.922 760.402 247.122 760.002 242.522C759.602 237.922 759.002 235.122 757.802 233.922L759.602 231.922H854.602V215.922H860.602C860.602 222.322 861.002 227.922 861.402 232.322C861.802 236.722 862.602 240.722 863.402 244.322Z" fill="white"/>
<path d="M854.602 337.031H860.602V386.031H854.602V370.031H766.602V386.031H760.602C760.602 372.231 760.602 363.831 760.202 361.031C759.802 358.231 759.002 356.231 757.802 355.031L759.602 353.031H854.602V337.031ZM707.602 363.631C707.602 359.831 709.002 356.831 711.402 354.431C713.802 352.231 716.802 351.031 720.202 351.031C723.602 351.031 726.602 352.231 729.002 354.431C731.402 356.831 732.602 359.831 732.602 363.631C732.602 367.631 731.402 370.631 729.002 372.831C726.602 375.231 723.802 376.231 720.202 376.231C716.602 376.231 713.602 375.231 711.202 372.831C708.802 370.631 707.602 367.631 707.602 363.631Z" fill="white"/>
<path d="M863.402 428.158L861.602 430.158H841.402C848.602 432.958 853.802 436.958 857.402 441.758C861.002 446.758 862.602 452.758 862.602 459.958C862.602 472.358 857.802 482.758 848.002 491.158C838.202 499.558 825.802 503.758 810.802 503.558C804.002 503.558 797.802 502.358 791.802 500.358C785.802 498.358 780.402 495.558 775.602 491.558C770.402 487.358 766.202 482.358 763.202 476.558C760.202 470.758 758.602 464.958 758.602 459.158C758.602 452.558 760.202 446.758 763.002 441.958C765.802 437.158 770.002 433.558 775.602 430.958C768.602 431.558 761.602 431.958 754.402 432.358C747.202 432.758 740.802 432.758 735.202 432.758H716.602V448.758H710.602C710.602 434.958 710.602 426.558 710.202 423.758C709.802 420.958 709.002 418.958 707.802 417.758L709.602 415.758H854.602V399.758H860.602C860.602 406.158 861.002 411.758 861.402 416.158C861.802 420.558 862.602 424.558 863.402 428.158ZM810.802 485.558C826.602 485.758 838.202 483.758 845.602 479.358C853.002 475.158 856.602 468.558 856.602 459.558C856.602 451.158 853.202 444.758 846.402 439.958C839.602 435.158 830.002 432.758 817.202 432.758H808.002C793.402 432.758 782.602 434.958 775.402 438.958C768.202 443.158 764.602 449.558 764.602 457.958C764.602 466.958 768.602 473.758 776.402 478.358C784.202 482.958 795.602 485.358 810.802 485.558Z" fill="white"/>
<path d="M862.602 560.316C862.602 573.716 858.002 584.516 848.402 592.916C838.802 601.316 826.202 605.516 810.202 605.516C795.002 605.516 782.602 601.516 773.002 593.316C763.402 585.116 758.602 574.716 758.602 562.116C758.602 549.916 762.802 540.316 771.002 533.116C779.202 526.116 790.002 522.516 803.402 522.516H808.002V587.516H810.202C826.802 587.516 838.602 585.516 845.602 581.116C852.802 576.916 856.202 569.916 856.202 560.116C856.202 552.316 854.202 545.916 850.202 540.916C846.202 536.116 839.602 532.116 830.402 529.316L832.002 523.716C841.602 526.116 849.002 530.716 854.402 537.116C860.002 543.516 862.602 551.316 862.602 560.316ZM764.802 562.516C764.802 570.516 767.802 576.516 773.802 580.516C779.802 584.516 789.202 586.916 802.002 587.316V540.316C789.202 540.316 779.802 541.916 773.802 545.516C767.802 549.116 764.802 554.916 764.802 562.516Z" fill="white"/>
<path d="M854.602 753V732H860.602V778H854.602V761H728.602V778H722.602V741.2L816.002 701L722.602 661V624.6H728.602V641.6H854.602V624.6H860.602V680.6H854.602V659.6H737.202L842.402 704.6V707.6L737.002 753H854.602Z" fill="white"/>
<rect x="888.402" y="2" width="1" height="820" fill="white"/>
<path d="M932.402 770.656V778.12L931.346 777.976V776.344L916.898 774.592V776.224L915.842 776.08V769.528C915.842 767.224 916.178 765.496 916.826 764.368C917.474 763.24 918.434 762.712 919.73 762.76C920.786 762.808 921.698 763.24 922.418 764.104C923.138 764.968 923.594 766.096 923.786 767.512C924.002 766.024 924.434 764.872 925.058 764.08C925.706 763.312 926.546 762.928 927.554 762.976C929.042 763.048 930.242 763.768 931.106 765.112C931.97 766.456 932.402 768.304 932.402 770.656ZM916.898 770.104L923.378 770.896V770.2C923.378 769.312 923.042 768.592 922.346 768.016C921.674 767.464 920.762 767.176 919.61 767.128C918.65 767.08 917.978 767.272 917.546 767.656C917.114 768.04 916.898 768.712 916.898 769.624V770.104ZM924.338 771.016L931.346 771.88V770.944C931.346 769.888 931.01 769.072 930.29 768.496C929.594 767.92 928.562 767.608 927.194 767.56C926.234 767.512 925.538 767.704 925.058 768.136C924.578 768.568 924.338 769.24 924.338 770.152V771.016ZM926.426 748.05C928.298 748.29 929.81 749.082 931.01 750.45C932.21 751.842 932.81 753.45 932.81 755.298C932.81 757.146 932.186 758.634 930.914 759.762C929.666 760.89 928.082 761.346 926.186 761.106C924.338 760.89 922.826 760.098 921.626 758.706C920.426 757.314 919.826 755.706 919.826 753.834C919.826 752.01 920.474 750.522 921.722 749.394C922.97 748.29 924.554 747.834 926.426 748.05ZM926.186 756.618C928.154 756.858 929.546 756.858 930.41 756.618C931.274 756.378 931.682 755.898 931.682 755.178C931.682 754.458 931.298 753.906 930.506 753.498C929.738 753.09 928.37 752.778 926.426 752.538C924.482 752.322 923.09 752.322 922.226 752.562C921.386 752.802 920.954 753.258 920.954 753.978C920.954 754.698 921.362 755.25 922.154 755.658C922.946 756.09 924.29 756.402 926.186 756.618ZM932.786 742.689C932.786 743.961 932.45 744.849 931.778 745.353C931.106 745.881 930.05 746.049 928.634 745.881L915.53 744.297V745.929L914.474 745.809C914.474 744.441 914.45 743.313 914.402 742.401C914.354 741.513 914.282 740.889 914.186 740.505L914.402 739.785L930.002 741.681C930.434 741.729 930.746 741.729 930.914 741.657C931.106 741.585 931.178 741.441 931.178 741.225C931.178 740.985 930.986 740.793 930.578 740.625C930.194 740.457 929.57 740.313 928.754 740.193V739.065C930.29 739.281 931.346 739.665 931.922 740.217C932.498 740.793 932.786 741.609 932.786 742.689ZM925.994 733.014C927.578 733.206 928.73 733.182 929.474 732.966C930.218 732.774 930.578 732.342 930.578 731.718C930.578 731.142 930.242 730.662 929.522 730.254C928.826 729.87 927.818 729.582 926.522 729.414C926.474 729.414 926.234 729.366 925.754 729.318C925.274 729.27 925.034 729.222 924.986 729.222C923.666 729.078 922.658 729.126 921.986 729.366C921.314 729.606 920.954 730.014 920.954 730.614C920.954 731.238 921.362 731.766 922.178 732.15C922.994 732.534 924.266 732.822 925.994 733.014ZM932.786 726.534C932.786 727.398 932.546 728.07 932.066 728.502C931.586 728.958 930.866 729.198 929.906 729.198H929.714C929.642 729.198 929.498 729.198 929.306 729.174C929.186 729.174 929.09 729.15 929.042 729.15H928.922C930.218 729.582 931.202 730.158 931.85 730.902C932.498 731.67 932.81 732.582 932.81 733.662C932.81 735.054 932.234 736.11 931.034 736.83C929.834 737.55 928.274 737.79 926.306 737.574C924.386 737.358 922.826 736.638 921.626 735.414C920.426 734.214 919.826 732.702 919.826 730.902C919.826 730.446 919.922 730.014 920.114 729.63C920.306 729.246 920.546 728.886 920.882 728.598C920.714 728.598 920.186 728.574 919.274 728.478C918.386 728.406 917.138 728.286 915.53 728.118V729.75L914.474 729.606C914.474 728.238 914.45 727.11 914.402 726.198C914.354 725.31 914.282 724.686 914.186 724.326L914.402 723.606L929.882 725.478C930.314 725.526 930.65 725.502 930.866 725.43C931.082 725.382 931.178 725.262 931.178 725.07C931.178 724.83 930.986 724.614 930.602 724.446C930.218 724.278 929.618 724.134 928.778 724.014V722.862C930.362 723.102 931.418 723.486 931.97 724.038C932.522 724.59 932.786 725.43 932.786 726.534ZM932.402 707.296V715.12L931.346 714.976V713.32L916.898 711.544V713.224L915.842 713.08V705.28L916.898 705.4V707.08L931.346 708.832V707.176L932.402 707.296ZM932.81 700.579C932.81 702.019 932.474 703.027 931.802 703.651C931.13 704.275 930.098 704.515 928.73 704.347L921.29 703.435V705.475L920.402 705.355C920.402 703.819 920.018 702.547 919.25 701.515C918.482 700.507 917.378 699.811 915.938 699.427V698.395L920.234 698.947V695.635L921.29 695.779V699.091L929.57 700.075C930.242 700.171 930.746 700.147 931.034 700.003C931.346 699.859 931.49 699.595 931.49 699.163C931.49 698.707 931.25 698.347 930.746 698.107C930.242 697.867 929.402 697.651 928.25 697.507V696.451C929.978 696.691 931.178 697.099 931.826 697.723C932.498 698.347 932.81 699.307 932.81 700.579ZM925.97 690.313C927.578 690.505 928.754 690.481 929.474 690.289C930.218 690.097 930.578 689.713 930.578 689.113C930.578 688.489 930.242 687.985 929.546 687.577C928.874 687.169 927.866 686.881 926.522 686.713C926.522 686.713 926.45 686.713 926.354 686.689L925.778 686.593C925.49 686.569 925.298 686.545 925.202 686.521C925.106 686.521 925.058 686.497 925.034 686.497C923.642 686.353 922.634 686.377 921.962 686.593C921.29 686.809 920.954 687.217 920.954 687.817C920.954 688.489 921.362 689.017 922.13 689.401C922.922 689.809 924.194 690.121 925.97 690.313ZM932.81 690.937C932.81 692.353 932.234 693.409 931.034 694.129C929.834 694.849 928.274 695.089 926.306 694.849C924.41 694.633 922.85 693.913 921.65 692.689C920.45 691.465 919.826 689.953 919.826 688.129C919.826 687.337 919.994 686.617 920.33 685.993C920.666 685.369 921.122 684.841 921.722 684.433L919.826 682.969V681.529L929.882 682.753C930.314 682.801 930.65 682.801 930.866 682.729C931.082 682.657 931.178 682.513 931.178 682.321C931.178 682.081 930.986 681.889 930.602 681.721C930.218 681.553 929.618 681.409 928.778 681.289V680.161C930.362 680.401 931.418 680.785 931.97 681.337C932.522 681.889 932.786 682.705 932.786 683.809C932.786 684.745 932.522 685.441 931.994 685.873C931.466 686.305 930.674 686.521 929.594 686.497L928.898 686.449C930.194 686.881 931.154 687.457 931.826 688.225C932.498 688.993 932.81 689.881 932.81 690.937ZM932.786 674.908C932.786 676.18 932.45 677.068 931.778 677.572C931.106 678.1 930.05 678.268 928.634 678.1L915.53 676.516V678.148L914.474 678.028C914.474 676.66 914.45 675.532 914.402 674.62C914.354 673.732 914.282 673.108 914.186 672.724L914.402 672.004L930.002 673.9C930.434 673.948 930.746 673.948 930.914 673.876C931.106 673.804 931.178 673.66 931.178 673.444C931.178 673.204 930.986 673.012 930.578 672.844C930.194 672.676 929.57 672.532 928.754 672.412V671.284C930.29 671.5 931.346 671.884 931.922 672.436C932.498 673.012 932.786 673.828 932.786 674.908ZM916.226 663.001C916.898 663.001 917.474 663.265 917.93 663.769C918.386 664.273 918.602 664.921 918.602 665.737C918.602 666.457 918.41 667.033 918.026 667.441C917.642 667.873 917.114 668.065 916.49 668.065C915.818 668.065 915.242 667.825 914.786 667.321C914.33 666.817 914.09 666.145 914.09 665.305C914.09 664.585 914.306 664.033 914.69 663.625C915.074 663.217 915.602 663.001 916.226 663.001ZM932.786 665.785C932.786 667.057 932.45 667.945 931.778 668.449C931.106 668.977 930.074 669.145 928.634 668.977L921.29 668.089V669.721L920.234 669.601C920.234 668.281 920.21 667.153 920.162 666.241C920.114 665.329 920.018 664.681 919.922 664.297L920.162 663.577L930.002 664.801C930.434 664.849 930.722 664.849 930.914 664.777C931.106 664.705 931.178 664.561 931.178 664.369C931.178 664.129 930.986 663.913 930.578 663.721C930.194 663.553 929.594 663.409 928.778 663.313V662.161C930.314 662.401 931.37 662.785 931.946 663.337C932.522 663.889 932.786 664.705 932.786 665.785ZM932.81 655.484C932.81 657.356 932.21 658.82 930.986 659.852C929.786 660.908 928.202 661.316 926.282 661.076C924.386 660.836 922.826 660.044 921.626 658.7C920.426 657.356 919.826 655.724 919.826 653.828C919.826 652.436 920.138 651.356 920.738 650.636C921.338 649.916 922.178 649.58 923.282 649.676C923.906 649.724 924.386 649.964 924.746 650.372C925.13 650.78 925.298 651.308 925.298 651.956C925.298 652.604 925.13 653.084 924.794 653.42C924.458 653.756 924.002 653.876 923.402 653.828C922.874 653.78 922.442 653.612 922.082 653.3C921.722 652.988 921.458 652.556 921.314 652.028C921.17 652.196 921.074 652.388 921.002 652.628C920.93 652.868 920.882 653.108 920.882 653.396C920.882 654.284 921.314 654.98 922.178 655.508C923.042 656.036 924.386 656.396 926.234 656.588C927.986 656.78 929.306 656.708 930.17 656.348C931.034 655.988 931.466 655.34 931.466 654.404C931.466 653.708 931.202 653.084 930.674 652.556C930.146 652.028 929.402 651.62 928.49 651.38L928.61 650.228C929.954 650.612 931.01 651.236 931.73 652.148C932.45 653.06 932.81 654.188 932.81 655.484Z" fill="white"/>
<path d="M1044.2 416.958C1058.6 417.158 1069 415.958 1075.2 413.558C1081.6 411.158 1084.6 406.958 1084.6 401.358C1084.6 396.358 1081.8 392.358 1076.2 389.558C1070.6 386.758 1062.8 385.358 1052.4 385.358H1039C1027.8 385.358 1019.8 386.558 1014.6 388.958C1009.6 391.358 1007 395.358 1007 400.558C1007 406.358 1010 410.558 1016 413.158C1022 415.758 1031.4 416.958 1044.2 416.958ZM1101.4 372.958L1099.6 378.958H1071.6C1081.6 381.558 1089 385.758 1094.2 391.358C1099.4 397.158 1102 404.358 1102 412.758C1102 425.158 1097.2 435.158 1087.4 442.958C1077.6 450.758 1065.2 454.558 1050.2 454.558C1034 454.558 1020.6 450.358 1009.8 441.958C999.203 433.758 993.803 423.558 993.803 411.158C993.803 404.558 995.003 398.958 997.203 394.358C999.603 389.958 1003 386.358 1007.6 383.758C1002.8 384.358 997.403 384.758 991.403 384.958C985.603 385.358 980.003 385.358 974.803 385.358H958.003V401.358H949.203C949.203 386.758 949.203 376.158 948.803 369.758C948.403 363.358 947.603 358.358 946.403 355.158L948.203 348.958H1089.8V335.758H1098.6C1098.6 344.358 1099 351.758 1099.4 357.958C1099.8 364.158 1100.6 369.158 1101.4 372.958Z" fill="white"/>
<path d="M1098.6 463.68V526.48H1089.8V513.28H958.003V526.48H949.203C949.203 514.48 949.003 504.88 948.603 498.08C948.203 491.28 947.603 486.28 946.403 483.08L948.203 476.88H1089.8V463.68H1098.6Z" fill="white"/>
<path d="M993.803 591.164C993.803 575.764 999.003 562.764 1009.4 552.164C1019.8 541.764 1032.8 536.364 1048.4 536.364C1064 536.364 1076.8 541.764 1086.8 552.164C1097 562.764 1102 575.764 1102 591.164C1102 606.764 1097 619.964 1086.6 630.364C1076.4 640.764 1063.4 645.964 1047.4 645.964C1031.8 645.964 1019 640.764 1009 630.364C999.003 619.964 993.803 606.764 993.803 591.164ZM1003.2 591.164C1003.2 597.364 1006.6 601.764 1013.4 604.564C1020.2 607.364 1031.6 608.564 1047.4 608.564C1063.8 608.564 1075.4 607.364 1082.2 604.564C1089.2 601.764 1092.6 597.364 1092.6 591.164C1092.6 585.164 1089.2 580.764 1082 577.964C1074.8 575.164 1063.6 573.564 1048.4 573.564C1032.8 573.564 1021.4 575.164 1014.2 577.964C1007 580.764 1003.2 585.164 1003.2 591.164Z" fill="white"/>
<path d="M1098.6 715.8V778H1089.8V764.6H969.403V778H960.603V723.4C960.603 703.4 963.603 688.2 969.203 678.2C974.803 668.2 983.203 663 994.403 663C1003 663 1010.2 666.2 1016 672.6C1021.8 679 1025.4 687.6 1026.8 698.4C1028.6 685.2 1032.4 674.8 1038.2 667.6C1044.2 660.4 1051.8 656.8 1061 656.8C1073.8 656.8 1083.2 661.8 1089.4 671.4C1095.6 681.2 1098.6 696 1098.6 715.8ZM994.603 699.6C985.803 699.6 979.403 701.6 975.403 705.2C971.403 709 969.403 715 969.403 723.2V727.2H1023.4V721.2C1023.4 714 1021.2 708.6 1016.4 705C1011.6 701.4 1004.4 699.6 994.603 699.6ZM1060 695.2C1050.4 695.2 1043.2 697.4 1038.4 701.4C1033.8 705.4 1031.4 711.6 1031.4 720V727.2H1089.8V719.4C1089.8 710.8 1087.6 704.6 1083 700.8C1078.4 697.2 1070.8 695.2 1060 695.2Z" fill="white"/>
<rect x="1127" y="2" width="1" height="820" fill="white"/>
<path d="M1171 770.224V778.264L1169.8 778.12V776.68L1155.64 774.952V776.392L1154.44 776.248V768.88C1154.44 766.528 1154.76 764.8 1155.38 763.648C1156 762.496 1156.96 761.92 1158.21 761.92C1159.32 761.92 1160.23 762.376 1160.95 763.24C1161.67 764.128 1162.15 765.352 1162.34 766.936C1162.53 765.4 1162.94 764.224 1163.56 763.408C1164.19 762.592 1165 762.184 1166.01 762.184C1167.5 762.184 1168.72 762.904 1169.64 764.344C1170.55 765.784 1171 767.752 1171 770.224ZM1155.64 769.432L1161.86 770.2V769.912C1161.86 769.096 1161.5 768.448 1160.78 767.944C1160.06 767.44 1159.15 767.176 1158.04 767.176C1157.18 767.176 1156.58 767.344 1156.2 767.632C1155.84 767.92 1155.64 768.424 1155.64 769.096V769.432ZM1162.96 770.32L1169.8 771.16V770.584C1169.8 769.672 1169.44 768.976 1168.68 768.472C1167.91 767.992 1166.85 767.728 1165.48 767.728C1164.62 767.728 1163.97 767.896 1163.56 768.232C1163.18 768.568 1162.96 769.12 1162.96 769.888V770.32ZM1171.46 756.205C1171.46 757.669 1171.08 758.701 1170.31 759.277C1169.54 759.877 1168.34 760.069 1166.71 759.877L1154.32 758.413V759.853L1153.12 759.709C1153.12 758.341 1153.1 757.141 1153.05 756.133C1153 755.125 1152.91 754.333 1152.79 753.781L1153 752.845L1168.56 754.717C1168.89 754.765 1169.13 754.741 1169.28 754.693C1169.42 754.645 1169.47 754.525 1169.47 754.381C1169.47 754.213 1169.3 754.069 1168.96 753.949C1168.63 753.829 1168.1 753.709 1167.38 753.613V752.245C1168.92 752.485 1170 752.893 1170.57 753.493C1171.17 754.117 1171.46 755.005 1171.46 756.205ZM1164.43 745.181C1166.01 745.373 1167.12 745.421 1167.76 745.277C1168.41 745.157 1168.72 744.869 1168.72 744.389C1168.72 743.957 1168.46 743.573 1167.88 743.285C1167.31 742.997 1166.44 742.781 1165.24 742.613L1163.4 742.373C1162.08 742.205 1161.12 742.181 1160.49 742.301C1159.89 742.445 1159.58 742.733 1159.58 743.189C1159.58 743.717 1159.94 744.101 1160.64 744.389C1161.33 744.677 1162.6 744.941 1164.43 745.181ZM1171.48 746.861C1171.48 748.277 1170.88 749.333 1169.68 750.053C1168.48 750.773 1166.88 751.013 1164.91 750.773C1162.94 750.533 1161.36 749.789 1160.13 748.493C1158.91 747.197 1158.28 745.589 1158.28 743.645C1158.28 742.805 1158.43 742.037 1158.72 741.365C1159 740.693 1159.39 740.117 1159.92 739.637L1158.28 738.269V736.349L1168.36 737.597C1168.75 737.645 1169.01 737.621 1169.2 737.573C1169.4 737.525 1169.47 737.453 1169.47 737.309C1169.47 737.141 1169.3 736.997 1168.96 736.853C1168.63 736.733 1168.1 736.613 1167.38 736.517V735.149C1168.94 735.389 1170.02 735.821 1170.6 736.445C1171.17 737.069 1171.46 738.005 1171.46 739.253C1171.46 740.285 1171.2 741.053 1170.64 741.557C1170.09 742.061 1169.25 742.325 1168.12 742.325H1167.72C1168.99 742.757 1169.92 743.357 1170.55 744.101C1171.17 744.869 1171.48 745.781 1171.48 746.861ZM1171.48 728.108C1171.48 730.124 1170.88 731.684 1169.64 732.788C1168.39 733.916 1166.78 734.348 1164.79 734.108C1162.92 733.868 1161.36 733.004 1160.13 731.516C1158.91 730.028 1158.28 728.276 1158.28 726.236C1158.28 724.628 1158.62 723.428 1159.24 722.66C1159.89 721.892 1160.83 721.604 1162.05 721.748C1162.72 721.844 1163.28 722.108 1163.66 722.564C1164.07 723.044 1164.26 723.62 1164.26 724.34C1164.26 725.108 1164.07 725.66 1163.68 726.02C1163.3 726.38 1162.75 726.524 1162.05 726.428C1161.5 726.38 1161.04 726.164 1160.66 725.828C1160.28 725.492 1159.99 725.036 1159.8 724.412C1159.7 724.58 1159.6 724.772 1159.56 724.964C1159.51 725.156 1159.48 725.372 1159.48 725.612C1159.48 726.428 1159.89 727.076 1160.68 727.532C1161.48 728.012 1162.84 728.348 1164.79 728.588C1166.56 728.804 1167.86 728.756 1168.68 728.444C1169.49 728.132 1169.9 727.532 1169.9 726.668C1169.9 725.996 1169.64 725.42 1169.11 724.892C1168.58 724.364 1167.88 724.004 1166.97 723.764L1167.07 722.396C1168.46 722.78 1169.56 723.476 1170.33 724.484C1171.1 725.492 1171.48 726.716 1171.48 728.108ZM1160.61 712.303C1160.61 712.783 1161.02 713.191 1161.79 713.551C1162.56 713.935 1163.66 714.199 1165.1 714.367L1171 715.111V720.511L1154.32 718.423V719.863L1153.12 719.719C1153.12 718.351 1153.1 717.151 1153.05 716.143C1153 715.135 1152.91 714.367 1152.79 713.791L1153 712.855C1154.88 713.143 1156.41 713.359 1157.61 713.551C1158.81 713.743 1159.7 713.911 1160.25 714.007C1159.6 713.527 1159.12 712.951 1158.79 712.255C1158.45 711.583 1158.28 710.767 1158.28 709.855C1158.28 708.775 1158.55 707.935 1159.08 707.335C1159.6 706.735 1160.32 706.423 1161.24 706.423C1161.96 706.423 1162.58 706.639 1163.16 707.071C1163.73 707.503 1164.21 708.175 1164.64 709.039L1169.8 707.071V705.943L1171 706.063V712.447L1166.11 714.175L1164.91 714.031C1164.81 713.311 1164.48 712.735 1163.88 712.279C1163.3 711.847 1162.63 711.607 1161.88 711.607C1161.45 711.607 1161.14 711.679 1160.92 711.775C1160.73 711.895 1160.61 712.063 1160.61 712.303ZM1171 690.2V698.6L1169.8 698.456V697.016L1155.64 695.288V696.728L1154.44 696.584V688.184L1155.64 688.328V689.768L1169.8 691.496V690.056L1171 690.2ZM1171.48 683.105C1171.48 684.785 1171.12 685.985 1170.38 686.729C1169.64 687.473 1168.51 687.761 1167.02 687.569L1159.96 686.705V688.865L1159 688.745C1159 686.921 1158.62 685.409 1157.83 684.209C1157.04 683.009 1155.91 682.217 1154.44 681.809V680.609L1158.76 681.161V677.873L1159.96 678.017V681.305L1168.05 682.289C1168.72 682.385 1169.2 682.361 1169.49 682.217C1169.78 682.073 1169.92 681.785 1169.92 681.353C1169.92 680.945 1169.68 680.633 1169.2 680.393C1168.72 680.153 1167.91 679.985 1166.78 679.841V678.641C1168.58 678.857 1169.8 679.313 1170.48 679.985C1171.15 680.681 1171.48 681.713 1171.48 683.105ZM1164.43 671.751C1166.01 671.943 1167.12 671.991 1167.76 671.847C1168.41 671.727 1168.72 671.439 1168.72 670.959C1168.72 670.527 1168.46 670.143 1167.88 669.855C1167.31 669.567 1166.44 669.351 1165.24 669.183L1163.4 668.943C1162.08 668.775 1161.12 668.751 1160.49 668.871C1159.89 669.015 1159.58 669.303 1159.58 669.759C1159.58 670.287 1159.94 670.671 1160.64 670.959C1161.33 671.247 1162.6 671.511 1164.43 671.751ZM1171.48 673.431C1171.48 674.847 1170.88 675.903 1169.68 676.623C1168.48 677.343 1166.88 677.583 1164.91 677.343C1162.94 677.103 1161.36 676.359 1160.13 675.063C1158.91 673.767 1158.28 672.159 1158.28 670.215C1158.28 669.375 1158.43 668.607 1158.72 667.935C1159 667.263 1159.39 666.687 1159.92 666.207L1158.28 664.839V662.919L1168.36 664.167C1168.75 664.215 1169.01 664.191 1169.2 664.143C1169.4 664.095 1169.47 664.023 1169.47 663.879C1169.47 663.711 1169.3 663.567 1168.96 663.423C1168.63 663.303 1168.1 663.183 1167.38 663.087V661.719C1168.94 661.959 1170.02 662.391 1170.6 663.015C1171.17 663.639 1171.46 664.575 1171.46 665.823C1171.46 666.855 1171.2 667.623 1170.64 668.127C1170.09 668.631 1169.25 668.895 1168.12 668.895H1167.72C1168.99 669.327 1169.92 669.927 1170.55 670.671C1171.17 671.439 1171.48 672.351 1171.48 673.431ZM1171.46 656.127C1171.46 657.591 1171.08 658.623 1170.31 659.199C1169.54 659.799 1168.34 659.991 1166.71 659.799L1154.32 658.335V659.775L1153.12 659.631C1153.12 658.263 1153.1 657.063 1153.05 656.055C1153 655.047 1152.91 654.255 1152.79 653.703L1153 652.767L1168.56 654.639C1168.89 654.687 1169.13 654.663 1169.28 654.615C1169.42 654.567 1169.47 654.447 1169.47 654.303C1169.47 654.135 1169.3 653.991 1168.96 653.871C1168.63 653.751 1168.1 653.631 1167.38 653.535V652.167C1168.92 652.407 1170 652.815 1170.57 653.415C1171.17 654.039 1171.46 654.927 1171.46 656.127ZM1154.78 642.967C1155.6 642.967 1156.24 643.279 1156.77 643.903C1157.3 644.527 1157.56 645.319 1157.56 646.279C1157.56 647.143 1157.35 647.791 1156.92 648.271C1156.48 648.751 1155.91 648.967 1155.16 648.967C1154.37 648.967 1153.7 648.679 1153.17 648.055C1152.64 647.431 1152.38 646.639 1152.38 645.655C1152.38 644.815 1152.6 644.167 1153.03 643.687C1153.46 643.207 1154.06 642.967 1154.78 642.967ZM1171.46 646.255C1171.46 647.719 1171.08 648.751 1170.31 649.327C1169.54 649.927 1168.34 650.119 1166.71 649.927L1159.96 649.111V650.551L1158.76 650.407C1158.76 649.039 1158.74 647.839 1158.69 646.831C1158.64 645.823 1158.55 645.031 1158.43 644.479L1158.64 643.543L1168.56 644.767C1168.89 644.815 1169.13 644.791 1169.28 644.743C1169.42 644.695 1169.47 644.599 1169.47 644.455C1169.47 644.287 1169.3 644.143 1168.94 643.999C1168.6 643.855 1168.08 643.759 1167.38 643.663V642.295C1168.92 642.535 1170 642.943 1170.57 643.543C1171.17 644.167 1171.46 645.055 1171.46 646.255ZM1171.48 635.249C1171.48 637.265 1170.88 638.825 1169.64 639.929C1168.39 641.057 1166.78 641.489 1164.79 641.249C1162.92 641.009 1161.36 640.145 1160.13 638.657C1158.91 637.169 1158.28 635.417 1158.28 633.377C1158.28 631.769 1158.62 630.569 1159.24 629.801C1159.89 629.033 1160.83 628.745 1162.05 628.889C1162.72 628.985 1163.28 629.249 1163.66 629.705C1164.07 630.185 1164.26 630.761 1164.26 631.481C1164.26 632.249 1164.07 632.801 1163.68 633.161C1163.3 633.521 1162.75 633.665 1162.05 633.569C1161.5 633.521 1161.04 633.305 1160.66 632.969C1160.28 632.633 1159.99 632.177 1159.8 631.553C1159.7 631.721 1159.6 631.913 1159.56 632.105C1159.51 632.297 1159.48 632.513 1159.48 632.753C1159.48 633.569 1159.89 634.217 1160.68 634.673C1161.48 635.153 1162.84 635.489 1164.79 635.729C1166.56 635.945 1167.86 635.897 1168.68 635.585C1169.49 635.273 1169.9 634.673 1169.9 633.809C1169.9 633.137 1169.64 632.561 1169.11 632.033C1168.58 631.505 1167.88 631.145 1166.97 630.905L1167.07 629.537C1168.46 629.921 1169.56 630.617 1170.33 631.625C1171.1 632.633 1171.48 633.857 1171.48 635.249Z" fill="white"/>
<path d="M1326.8 272.609V266.609H1336.8V329.609H1326.8V317.609H1197.8V329.609H1187.8C1187.8 318.209 1187.6 308.209 1187.2 299.809C1186.8 291.409 1186 285.009 1185 280.609L1186.8 272.609H1280.8L1244.8 231.809V251.809H1234.8V202.809H1244.8V216.609L1263.6 237.209L1326.8 199.009V191.009H1336.8V258.609H1326.8V250.609L1289 272.609H1326.8Z" fill="white"/>
<path d="M1303.2 347.413L1304 336.012C1315.6 337.812 1324.8 342.412 1331.2 350.012C1337.6 357.612 1340.8 367.412 1340.8 379.012C1340.8 395.812 1335.6 409.413 1325.2 420.013C1314.8 430.613 1301.4 435.812 1285 435.812C1269.4 435.812 1256.4 430.412 1246.2 419.212C1236 408.012 1230.8 394.013 1230.8 377.013C1230.8 363.613 1233.6 353.412 1238.8 346.212C1244.2 339.212 1252 335.612 1262.2 335.612C1267.8 335.612 1272.4 337.412 1275.6 340.812C1279 344.412 1280.6 349.012 1280.6 355.012C1280.6 361.412 1279 366.212 1275.8 369.612C1272.6 373.012 1268 374.612 1262.2 374.612C1257.6 374.612 1253.8 373.413 1250.6 371.013C1247.4 368.613 1245 365.012 1243.4 360.212C1242.6 361.812 1241.8 363.413 1241.4 365.013C1241 366.813 1240.8 368.612 1240.8 370.612C1240.8 377.412 1244.2 382.413 1250.8 385.413C1257.4 388.413 1268.8 389.812 1285 389.812C1299.8 389.812 1310.6 388.212 1317.4 384.612C1324.2 381.212 1327.6 375.812 1327.6 368.612C1327.6 363.212 1325.4 358.612 1321 354.812C1316.6 351.012 1310.8 348.613 1303.2 347.413Z" fill="white"/>
<path d="M1340.8 470.044C1340.8 478.844 1338.8 485.844 1334.4 491.044C1330 496.244 1323.6 499.644 1315.2 500.844C1323.2 503.244 1329.6 507.444 1334 513.844C1338.6 520.244 1340.8 527.844 1340.8 536.844C1340.8 546.444 1338.6 554.244 1333.8 560.044C1329 566.044 1322.6 568.844 1314.6 568.844C1305 568.844 1297.4 564.844 1291.8 556.644C1286.4 548.644 1283.2 536.444 1282 520.444L1281 506.044H1266C1258 506.044 1252 507.844 1248 511.244C1244 514.844 1242 520.044 1242 527.044C1242 529.044 1242.2 531.044 1242.6 532.844C1243 534.644 1243.4 536.444 1244 538.244C1245.8 534.044 1248.2 530.844 1251.2 528.844C1254.2 526.844 1257.8 525.644 1262.2 525.644C1268 525.644 1272.6 527.444 1275.8 530.844C1279 534.244 1280.6 539.044 1280.6 545.244C1280.6 551.244 1279 556.044 1275.6 559.444C1272.4 563.044 1267.8 564.644 1262.2 564.644C1252.6 564.644 1245 559.644 1239.4 549.244C1233.8 539.044 1230.8 525.844 1230.8 509.644C1230.8 494.444 1233.8 482.644 1239.6 474.044C1245.6 465.444 1253.6 461.044 1264 461.044H1317.6C1320.4 461.044 1322.2 460.844 1323.4 460.044C1324.6 459.244 1325.2 458.044 1325.2 456.244C1325.2 454.244 1323.6 452.844 1320.4 451.644C1317.2 450.444 1312.4 449.844 1306.4 449.844V439.844C1318.6 439.844 1327.4 442.244 1332.8 447.044C1338.2 451.844 1340.8 459.444 1340.8 470.044ZM1308 524.044C1311.8 524.044 1314.6 523.444 1316.2 522.244C1317.8 521.044 1318.6 519.244 1318.6 516.644C1318.6 513.644 1316.6 511.044 1312.6 509.044C1308.6 507.044 1303.2 506.044 1296.8 506.044H1291L1292 513.244C1292.6 516.844 1294.2 519.644 1296.8 521.444C1299.4 523.244 1303.2 524.044 1308 524.044Z" fill="white"/>
<path d="M1336.8 573.891V642.891H1326.8V630.891H1197.8V642.891H1187.8C1187.8 631.491 1187.6 621.491 1187.2 613.091C1186.8 604.691 1186 598.291 1185 593.891L1186.8 585.891H1326.8V573.891H1336.8Z" fill="white"/>
<path d="M1336.8 711V778H1326.8V766H1208.8V778H1198.8V716.6C1198.8 696 1201.6 680.6 1207.2 670.2C1212.8 660 1221.2 654.8 1232.4 654.8C1241 654.8 1248.2 658.2 1253.8 664.8C1259.4 671.6 1263 680.8 1264.6 692.4C1266.4 678.4 1270.2 667.8 1276 660.2C1282 652.6 1289.6 648.8 1299.2 648.8C1312 648.8 1321.6 654 1327.6 664C1333.8 674.2 1336.8 689.8 1336.8 711ZM1232.6 699C1224.2 699 1218.2 700.6 1214.4 703.4C1210.8 706.2 1208.8 710.8 1208.8 717.2V720H1260.6V717.6C1260.6 711.2 1258.4 706.6 1253.8 703.6C1249.4 700.6 1242.2 699 1232.6 699ZM1297.8 695.4C1288 695.4 1280.8 697.2 1276.4 700.4C1272 703.6 1269.8 709 1269.8 716.4V720H1326.8V715.2C1326.8 708.2 1324.6 703.2 1320.2 700C1315.8 697 1308.4 695.4 1297.8 695.4Z" fill="white"/>
<rect x="1440" y="822" width="1" height="1440" transform="rotate(90 1440 822)" fill="white"/>
<rect x="1440" width="1" height="1440" transform="rotate(90 1440 0)" fill="white"/>
</svg>
